<?xml version="1.0" standalone="no"?>
<!DOCTYPE svg PUBLIC "-//W3C//DTD SVG 1.1//EN" "http://www.w3.org/Graphics/SVG/1.1/DTD/svg11.dtd" >
<svg xmlns="http://www.w3.org/2000/svg">
<metadata>
Created by FontPrep 20130207 at Mon Apr 13 14:36:11 2015
 By Adel Amodwala
Typeface and data copyright 1996 Microsoft Corporation. All Rights Reserved.
</metadata>
<defs>
<font id="eada819634d0164c6a7547bdcc405033" horiz-adv-x='1024' >
  <font-face 
    font-family="Georgia"
    font-weight="400"
    font-stretch="normal"
    units-per-em="2048"
    panose-1="2 4 5 2 5 4 5 2 3 3"
    ascent="1638"
    descent="-410"
    x-height="986"
    cap-height="1419"
    bbox="-355 -444 2389 1868"
    underline-thickness="101"
    underline-position="-131"
    unicode-range="U+0020-F010"
  />
<missing-glyph horiz-adv-x="2048" 
d="M384 128h1280v1280h-1280v-1280zM256 0v1536h1536v-1536h-1536z" />
    <glyph glyph-name=".notdef" horiz-adv-x="2048" 
d="M384 128h1280v1280h-1280v-1280zM256 0v1536h1536v-1536h-1536z" />
    <glyph glyph-name=".null" horiz-adv-x="0" 
 />
    <glyph glyph-name="nonmarkingreturn" horiz-adv-x="494" 
 />
    <glyph glyph-name="space" unicode=" " horiz-adv-x="494" 
 />
    <glyph glyph-name="space" unicode="&#xa0;" horiz-adv-x="494" 
 />
    <glyph glyph-name="exclam" unicode="!" horiz-adv-x="678" 
d="M481 115q0 -56 -40.5 -95.5t-96.5 -39.5t-96.5 39.5t-40.5 95.5t40.5 96.5t96.5 40.5t96.5 -40.5t40.5 -96.5zM472 1325q0 -54 -33 -340t-58 -553h-78q-22 267 -54.5 552.5t-32.5 339.5t36 93t92 39t92 -38.5t36 -92.5z" />
    <glyph glyph-name="quotedbl" unicode="&#x22;" horiz-adv-x="843" 
d="M343 1420q0 -43 -26 -157t-58 -296h-61q-27 170 -53.5 290.5t-26.5 162.5t28 75.5t84 33.5t84.5 -33t28.5 -76zM725 1420q0 -43 -26 -157t-58 -296h-62q-23 148 -51.5 282t-28.5 174t28 73t84 33t85 -33t29 -76z" />
    <glyph glyph-name="numbersign" unicode="#" horiz-adv-x="1317" 
d="M807 747h-222l-74 -255h221zM1163 745h-249l-72 -251h261v-123h-296l-107 -371h-111l107 371h-217l-107 -371h-111l107 371h-214v123h249l73 251h-262v123h296l105 362h111l-105 -362h217l105 362h111l-105 -362h214v-123z" />
    <glyph glyph-name="dollar" unicode="$" horiz-adv-x="1249" 
d="M915 276q0 90 -45 154t-111.5 87t-77.5 27v-483q117 7 175.5 66t58.5 149zM599 1215q-97 0 -163 -54.5t-66 -138.5t43 -139t186 -108v440zM681 1295q188 -4 292 -90.5t103.5 -190.5t-90.5 -104q-48 0 -80.5 25t-32.5 58t22 136q-24 48 -95.5 67t-118.5 19v-464
q39 -14 66 -24.5t77 -30.5q201 -78 240 -168.5t39 -162.5q0 -157 -120 -263.5t-302 -118.5v-282h-82v280q-198 4 -321 94.5t-123 218.5t102 128q50 0 80 -26t30 -58t-19 -86.5t-24 -74.5q29 -52 100.5 -84t174.5 -33v506q-102 37 -162 62q-115 47 -180 123.5t-65 209.5
t120 232t287 102v229h82v-229z" />
    <glyph glyph-name="percent" unicode="%" horiz-adv-x="1674" 
d="M1499 1424l-1179 -1424h-138l1176 1424h141zM1396 336q0 132 -43 215t-128 83t-127.5 -83t-42.5 -215t43 -213t127 -81t127.5 81t43.5 213zM1565 333q0 -171 -95 -268t-245 -97t-244.5 97t-94.5 268t92.5 273t246.5 102t247 -102t93 -273zM619 1082q0 132 -43 214.5
t-128 82.5t-127.5 -82.5t-42.5 -214.5t43 -213.5t127 -81.5t127.5 81.5t43.5 213.5zM788 1078q0 -171 -95 -268t-245 -97t-244.5 97t-94.5 268t92.5 273t246.5 102t247 -102t93 -273z" />
    <glyph glyph-name="ampersand" unicode="&#x26;" horiz-adv-x="1455" 
d="M281 420q0 -136 77.5 -225.5t207.5 -89.5q73 0 143.5 31.5t115.5 91.5q-93 118 -209.5 258.5t-186.5 237.5q-148 -102 -148 -304zM747 1159q0 96 -45 150.5t-127 54.5t-126 -60t-44 -127q0 -66 36 -136.5t112 -170.5q103 58 148.5 125.5t45.5 163.5zM1094 742
q0 32 -46.5 50.5t-128.5 35.5v71h535v-71q-156 -13 -211 -82q-21 -24 -42.5 -71t-51.5 -111t-61 -126t-80 -124q40 -48 98 -104.5t98 -80.5t114 -40t121 -18v-71h-412l-149 170q-86 -94 -152 -133q-65 -38 -117.5 -55t-124.5 -17q-164 0 -287 97q-122 97 -122 283
q0 124 65.5 224.5t244.5 213.5q-81 107 -126 185t-45 161q0 151 101 237q101 87 253 87q151 0 229 -85q79 -85 79 -200t-74.5 -201.5t-205.5 -155.5q94 -127 184 -231.5t173 -205.5q141 225 141 368z" />
    <glyph glyph-name="quotesingle" unicode="'" horiz-adv-x="441" 
d="M333 1420q0 -43 -26 -157t-58 -296h-61q-27 170 -53.5 290.5t-26.5 162.5t28 75.5t84 33.5t84.5 -33t28.5 -76z" />
    <glyph glyph-name="parenleft" unicode="(" horiz-adv-x="768" 
d="M309 602q0 -776 392 -848v-82q-273 34 -428.5 275t-155.5 653t155.5 654t428.5 278v-83q-392 -71 -392 -847z" />
    <glyph glyph-name="parenright" unicode=")" horiz-adv-x="768" 
d="M459 602q0 776 -392 847v83q273 -36 428.5 -278t155.5 -654t-155.5 -653t-428.5 -275v82q392 72 392 848z" />
    <glyph glyph-name="asterisk" unicode="*" horiz-adv-x="967" 
d="M161 1028q-75 0 -75 71q0 34 21 52.5t53 18.5t107 -21t187 -32q-56 76 -117 140q-60 63 -74.5 84.5t-14.5 47.5t24 46t56 20t51 -32t42 -115.5t63 -173.5q45 102 65.5 179t32.5 99q24 44 58 43q33 0 56.5 -19t23.5 -54t-55.5 -90t-150.5 -175q108 12 187 32.5t109 20.5
t51 -18t21 -53q0 -71 -75 -71q-22 0 -105.5 21.5t-187.5 33.5q45 -62 83.5 -103.5t80.5 -86.5t42 -76q0 -32 -24 -52t-56 -20q-32 1 -52 35t-35.5 98t-68.5 188q-48 -119 -67 -188.5t-39 -101.5t-51 -31q-32 0 -55.5 19.5t-23.5 45.5t14 47t81 93t111 133
q-98 -10 -182.5 -32.5t-110.5 -22.5z" />
    <glyph glyph-name="plus" unicode="+" horiz-adv-x="1317" 
d="M1173 497h-451v-451h-127v451h-451v125h451v451h127v-451h451v-125z" />
    <glyph glyph-name="comma" unicode="," horiz-adv-x="552" 
d="M429 50q0 -193 -123 -288t-163 -116l-46 67q104 65 141 110q75 91 85 179h-51q-67 0 -104.5 35t-37.5 85t34 90t106 40t115.5 -57.5t43.5 -144.5z" />
    <glyph glyph-name="hyphen" unicode="-" horiz-adv-x="766" 
d="M681 465h-596v157h596v-157z" />
    <glyph glyph-name="hyphen" unicode="&#xad;" horiz-adv-x="766" 
d="M681 465h-596v157h596v-157z" />
    <glyph glyph-name="period" unicode="." horiz-adv-x="552" 
d="M415 115q0 -56 -40.5 -95.5t-96.5 -39.5t-96.5 39.5t-40.5 95.5t40.5 96.5t96.5 40.5t96.5 -40.5t40.5 -96.5z" />
    <glyph glyph-name="slash" unicode="/" horiz-adv-x="960" 
d="M870 1523l-691 -1947h-130l689 1947h132z" />
    <glyph glyph-name="zero" unicode="0" horiz-adv-x="1257" 
d="M933 543q0 232 -81.5 363t-222.5 131t-223 -131t-82 -363t78.5 -369.5t225.5 -137.5t226 137.5t79 369.5zM1154 526q0 -124 -39 -232t-108 -180q-140 -146 -389 -146t-382 158t-133 406t134 410q134 163 392 163t398 -171q127 -152 127 -408z" />
    <glyph glyph-name="one" unicode="1" horiz-adv-x="880" 
d="M576 797v-593q0 -76 60 -103q26 -11 85 -20t88 -10v-71h-674v71q137 9 174 21q38 11 54.5 33.5t16.5 67.5v702h-249v84h55q108 0 193.5 40t122.5 86h83q-9 -195 -9 -308z" />
    <glyph glyph-name="two" unicode="2" horiz-adv-x="1144" 
d="M1047 0h-937v136q100 115 412 282q141 75 193 145q29 39 43 85t14 152t-67 164.5t-152 58.5q-168 0 -230 -96q7 -32 17.5 -76t10.5 -84t-31.5 -69.5t-87.5 -29.5q-110 0 -110 120t120 219q120 98 316 98t316.5 -91.5t120.5 -243.5t-91 -240q-53 -51 -124 -87.5
t-239 -111.5t-263 -154h769v-177z" />
    <glyph glyph-name="three" unicode="3" horiz-adv-x="1130" 
d="M342 766q0 -40 -31.5 -69.5t-88.5 -29.5t-81.5 38t-24.5 89q0 111 121 211t331 100t321 -125q79 -90 79 -203q0 -177 -105 -247.5t-192 -94.5v-16q232 -21 293.5 -137.5t61.5 -215.5q0 -192 -154 -311.5t-385 -119.5q-184 0 -303.5 85.5t-119.5 200.5q0 49 24 88.5
t80 39.5t88 -29.5t32 -76.5t-27 -142q38 -49 105.5 -66.5t129.5 -17.5q135 0 221 91q87 91 87 262q0 204 -96 242.5t-178 38.5h-131v115h87q138 0 199 76t61 215q0 266 -226 266q-75 0 -140 -37q-25 -14 -41 -31t-24 -25q27 -124 27 -164z" />
    <glyph glyph-name="four" unicode="4" horiz-adv-x="1157" 
d="M689 221v655l-540 -655h540zM1084 90h-203v-455h-192v455h-640v154l701 855h131v-878h203v-131z" />
    <glyph glyph-name="five" unicode="5" horiz-adv-x="1082" 
d="M267 471q134 95 293 95q160 0 298 -109t138 -325q0 -217 -147 -357t-373 -140q-175 0 -296 83t-121 193q0 51 25 89t81 38t87.5 -31.5t31.5 -71.5t-28 -148q80 -70 219 -70q139 -1 222 107q82 108 82 305q0 141 -78.5 233.5t-206.5 92.5q-172 0 -274 -130l-67 26l85 722
h716v-178h-635z" />
    <glyph glyph-name="six" unicode="6" horiz-adv-x="1159" 
d="M858 425q0 171 -74.5 269t-213.5 98t-250 -122q-5 -60 -5 -124q0 -234 76.5 -366.5t198.5 -132.5t195 103.5t73 274.5zM660 908q178 0 296.5 -128t118.5 -319q0 -210 -140 -352q-140 -141 -353 -141t-346 158t-133 432q0 357 212.5 602t569.5 294l18 -90l-90 -16
q-416 -134 -489 -577q158 137 336 137z" />
    <glyph glyph-name="seven" unicode="7" horiz-adv-x="1029" 
d="M469 905q-87 0 -136 -2t-85 -17q-70 -29 -98 -205h-61v392h940v-65l-713 -1373h-125l671 1270h-393z" />
    <glyph glyph-name="eight" unicode="8" horiz-adv-x="1221" 
d="M300 374q0 -147 86.5 -237.5t227.5 -90.5t222 80t81 200t-105 200q-75 58 -326 164q-186 -101 -186 -316zM875 1102q0 122 -72.5 198.5t-185.5 76.5t-185 -73.5t-72 -180.5t82 -180t292 -156q141 90 141 315zM162 1073q0 163 138.5 273t331.5 110t312.5 -104t119.5 -261
q0 -101 -66 -191.5t-194 -148.5q166 -71 239.5 -157t73.5 -218q0 -168 -145.5 -289t-373.5 -121t-361 111t-133 286q0 129 78.5 215.5t232.5 146.5q-253 141 -253 348z" />
    <glyph glyph-name="nine" unicode="9" horiz-adv-x="1159" 
d="M569 1027q-122 0 -195 -102.5t-73 -273.5t74.5 -269t199.5 -98q157 0 264 120l3 50l2 74q0 234 -76.5 366.5t-198.5 132.5zM1056 516q0 -357 -213 -598t-572 -288l-18 90l90 16q422 133 492 567q-82 -70 -163.5 -102.5t-183.5 -32.5q-163 0 -283.5 127t-120.5 327
t139.5 342t353.5 142t346.5 -159t132.5 -431z" />
    <glyph glyph-name="colon" unicode=":" horiz-adv-x="640" 
d="M457 115q0 -56 -40.5 -95.5t-96.5 -39.5t-96.5 39.5t-40.5 95.5t40.5 96.5t96.5 40.5t96.5 -40.5t40.5 -96.5zM457 853q0 -56 -40.5 -96t-96.5 -40t-96.5 40t-40.5 96t40 96.5t97 40.5t97 -40.5t40 -96.5z" />
    <glyph glyph-name="semicolon" unicode=";" horiz-adv-x="640" 
d="M474 50q0 -193 -123 -288t-163 -116l-46 67q97 60 137 108q78 91 89 181h-51q-67 0 -104.5 35t-37.5 85t34.5 90t106.5 40t115 -57.5t43 -144.5zM457 853q0 -56 -40.5 -96t-96.5 -40t-96.5 40t-40.5 96t40 96.5t97 40.5t97 -40.5t40 -96.5z" />
    <glyph glyph-name="semicolon" unicode="&#x37e;" horiz-adv-x="640" 
d="M474 50q0 -193 -123 -288t-163 -116l-46 67q97 60 137 108q78 91 89 181h-51q-67 0 -104.5 35t-37.5 85t34.5 90t106.5 40t115 -57.5t43 -144.5zM457 853q0 -56 -40.5 -96t-96.5 -40t-96.5 40t-40.5 96t40 96.5t97 40.5t97 -40.5t40 -96.5z" />
    <glyph glyph-name="less" unicode="&#x3c;" horiz-adv-x="1317" 
d="M1118 22l-925 481v113l925 481v-137l-769 -400l769 -401v-137z" />
    <glyph glyph-name="equal" unicode="=" horiz-adv-x="1317" 
d="M1163 311h-1009v125h1009v-125zM1163 683h-1009v125h1009v-125z" />
    <glyph glyph-name="greater" unicode="&#x3e;" horiz-adv-x="1317" 
d="M1124 503l-925 -481v137l769 401l-769 400v137l925 -481v-113z" />
    <glyph glyph-name="question" unicode="?" horiz-adv-x="980" 
d="M531 115q0 -56 -40.5 -95.5t-96.5 -39.5t-96.5 39.5t-40.5 95.5t40.5 96.5t96.5 40.5t96.5 -40.5t40.5 -96.5zM331 1194q0 -35 -31.5 -65.5t-89.5 -30.5t-81 37t-23 81q0 88 91 158q97 78 267 78q90 0 172 -33.5t136 -90.5q107 -113 107 -292q0 -180 -118 -297t-324 -141
v-221h-92v379q239 19 291.5 116t52.5 191q0 150 -63.5 230t-185.5 80q-79 0 -131 -39q22 -105 22 -140z" />
    <glyph glyph-name="at" unicode="@" horiz-adv-x="1902" 
d="M844 224q125 0 223 180l115 338q-14 81 -45 118t-93 37t-115.5 -51.5t-91.5 -123.5q-81 -155 -81 -327q0 -171 88 -171zM826 140q-242 0 -242 275q0 73 33.5 164t90.5 173t147.5 143t195.5 61q56 0 99.5 -31.5t53.5 -92.5h6l43 112h149l-189 -538q-20 -56 -20 -108
t26 -75.5t67 -23.5q155 0 259 145.5t104 386.5t-150 393q-158 164 -440 164q-283 0 -498 -209q-103 -100 -167 -249.5t-64 -333.5q0 -357 184 -544q184 -188 484 -188q299 0 501 168l31 -51q-223 -194 -544 -194q-151 0 -379 75.5t-333.5 294.5t-105.5 405q0 372 247 634
q115 123 285 198.5t356 75.5q342 0 521 -202q162 -180 162 -438t-134 -426t-339 -168q-85 0 -144 42.5t-66 119.5l-7 2q-48 -73 -109.5 -116.5t-113.5 -43.5z" />
    <glyph glyph-name="A" unicode="A" horiz-adv-x="1374" 
d="M849 580l-215 550l-211 -550h426zM288 159q0 -40 63 -62t142 -26v-71h-534v71q129 10 171 66.5t63 108.5q107 267 236 600t230 593h80l473 -1224q27 -69 82 -105q56 -36 127 -39v-71h-591v71q181 12 181 57q0 25 -8 45l-118 318h-497q-100 -250 -100 -332z" />
    <glyph glyph-name="B" unicode="B" horiz-adv-x="1339" 
d="M501 206q0 -127 193 -127q149 0 228 87t79 256q0 126 -84.5 207t-241.5 81q-86 0 -174 -4v-500zM663 1340q-30 0 -162 -4v-545h127q163 0 232 80t69 208q0 261 -266 261zM1104 661q144 -98 144 -279q0 -182 -155 -288q-137 -94 -326 -94h-672v71q101 8 134 23
q59 26 59 99v1020q0 75 -56 102t-130 33v71h655q165 0 278 -68q135 -80 135 -241q0 -205 -134 -267t-203 -77v-9q162 -19 271 -96z" />
    <glyph glyph-name="C" unicode="C" horiz-adv-x="1315" 
d="M754 1450q190 0 352 -99l41 68h80l9 -506h-82q-68 315 -185.5 383.5t-208.5 68.5t-174.5 -43.5t-143.5 -125.5q-126 -174 -125 -465q0 -291 135 -471t345 -180q156 0 267 93q102 90 150 222l75 -36q-86 -211 -228 -301.5t-338 -90.5q-264 0 -455 200q-190 200 -190 531.5
t196 544.5q91 99 215 153t265 54z" />
    <glyph glyph-name="D" unicode="D" horiz-adv-x="1534" 
d="M697 1338q-96 0 -196 -4v-1091q0 -91 53.5 -126t171.5 -35q242 0 364 166t122 452q0 287 -149 462q-69 82 -169.5 129t-196.5 47zM1457 708q1 -348 -245 -539q-218 -169 -530 -169h-588v71q98 -1 133 15q61 28 61 103v1024q0 77 -54 103t-132 32v71h620q128 0 252 -39.5
t216 -106.5q125 -89 196 -233t71 -332z" />
    <glyph glyph-name="E" unicode="E" horiz-adv-x="1338" 
d="M86 0v71q114 8 146 22q56 26 56 100v1020q0 74 -58 101t-144 34v71h1098v-342h-75q-20 76 -86.5 161.5t-127.5 93.5t-171 8h-223v-564h160q77 0 144.5 27.5t88.5 204.5h75v-555h-75q-10 118 -59 180t-174 62h-160v-426q0 -125 42.5 -156t175.5 -31h147q148 0 193 48
t95.5 145t64.5 143h72l-27 -418h-1178z" />
    <glyph glyph-name="F" unicode="F" horiz-adv-x="1227" 
d="M1199 1064h-75q-21 79 -87.5 169.5t-128.5 98.5t-169 8h-238v-570h163q128 0 180 57t63 174h76v-557h-76q-3 44 -20.5 100t-42.5 87q-47 58 -180 58h-163v-489q0 -72 59 -101q15 -7 65 -17t76 -11v-71h-615v71q124 8 150 20q52 23 52 98v1024q0 74 -58 101t-144 34v71
h1113v-355z" />
    <glyph glyph-name="G" unicode="G" horiz-adv-x="1485" 
d="M791 1450q202 0 366 -99l41 68h80l9 -496h-82q-51 200 -145 321t-275 121q-212 0 -338 -173t-126 -470t127 -475q133 -191 366 -191q88 0 160.5 27t102.5 57q9 58 9 195v78q0 97 -56 122q-56 24 -181 32v73h622v-73q-97 -12 -128 -28q-57 -28 -57 -107v-110
q0 -164 5 -231q-275 -124 -524 -124q-136 0 -262.5 51.5t-220.5 145.5t-150 230t-56 301q0 331 205 544q95 100 226.5 155.5t281.5 55.5z" />
    <glyph glyph-name="H" unicode="H" horiz-adv-x="1669" 
d="M1567 0h-589v71q114 9 138 20q52 22 52 98v505h-667v-494q0 -71 52 -98t134 -31v-71h-589v71q114 9 138 20q52 22 52 98v1024q0 73 -60 101q-60 29 -130 34v71h589v-71q-150 -5 -168 -48.5t-18 -76.5v-440h667v430q0 73 -60 101q-60 29 -130 34v71h589v-71
q-150 -5 -168 -48.5t-18 -76.5v-1023q0 -71 52 -98t134 -31v-71z" />
    <glyph glyph-name="I" unicode="I" horiz-adv-x="798" 
d="M718 0h-639v71q128 9 155 20q58 22 58 96v1028q0 35 -11 58.5t-69 46.5t-133 28v71h639v-71q-172 -6 -192.5 -48t-20.5 -75v-1027q0 -72 64 -99q67 -26 149 -28v-71z" />
    <glyph glyph-name="J" unicode="J" horiz-adv-x="1060" 
d="M593 462v751q0 35 -11.5 58.5t-57.5 46.5t-144 30v71h626v-71q-161 -6 -179.5 -49t-18.5 -76v-841q0 -153 -115 -285q-115 -131 -316 -131q-163 0 -264.5 91.5t-101.5 246.5q0 68 34.5 120.5t98.5 52.5t100.5 -33.5t36.5 -88.5t-46 -127t-57 -104q53 -83 188 -83t186 123
q41 97 41 298z" />
    <glyph glyph-name="K" unicode="K" horiz-adv-x="1422" 
d="M1008 1297q0 41 -147 51v71h532v-71q-3 0 -13 -1t-24 -2t-28 -4l-42 -9q-81 -17 -127 -67q-103 -117 -215 -242t-222 -228q170 -193 428 -517q78 -98 121 -130.5t83 -52.5t121 -24v-71h-398q-220 340 -550 694h-26v-494q0 -73 58 -101q16 -7 59.5 -17t72.5 -11v-71h-589
v71q110 10 135 20q51 23 51 98v1024q0 73 -60 102t-126 33v71h589v-71q-153 -5 -171.5 -48.5t-18.5 -76.5v-490h20q206 174 310 294t140.5 174.5t36.5 95.5z" />
    <glyph glyph-name="L" unicode="L" horiz-adv-x="1236" 
d="M98 0v71q108 9 136 21q54 24 54 101v1016q0 75 -57 102q-61 32 -133 37v71h599v-71q-70 -2 -120 -20q-51 -18 -63.5 -47t-12.5 -62v-953q0 -66 6.5 -102.5t30.5 -55.5q38 -30 174 -30q237 0 280 50q44 50 98.5 143t75.5 151h71l-30 -422h-1109z" />
    <glyph glyph-name="M" unicode="M" horiz-adv-x="1899" 
d="M1806 0h-627v71q124 4 158 23q63 36 63 106v1032h-15l-484 -1209h-50l-461 1234h-13v-847q0 -224 63 -279q22 -21 91 -40t90 -20v-71h-573v71q126 11 166 44q40 32 53 90t13 194v726q0 169 -89.5 195t-133.5 28v71h484l406 -1064l347 890q44 112 47 174h463v-71
q-156 -6 -174.5 -49t-18.5 -76v-1023q0 -70 58 -101q18 -10 64 -18.5t73 -9.5v-71z" />
    <glyph glyph-name="N" unicode="N" horiz-adv-x="1571" 
d="M1324 1025v-1039h-87l-860 1161v-732q0 -228 63 -283q23 -22 95 -41t95 -20v-71h-582v71q27 2 91 19.5t80 31.5q35 28 48 85.5t13 196.5v699q0 109 -64 167q-32 29 -93 52.5t-99 25.5v71h405l798 -1082v675q0 234 -62 279q-28 19 -91.5 37t-96.5 20v71h577v-71
q-28 -1 -86 -16.5t-88 -35.5q-56 -38 -56 -271z" />
    <glyph glyph-name="O" unicode="O" horiz-adv-x="1524" 
d="M1095 245q107 174 107 469t-114 472q-114 178 -333 178q-218 0 -334 -202q-99 -174 -99 -460t111 -467q111 -180 329 -180q107 0 193 50t140 140zM1244 1251q200 -209 200 -544t-204 -541q-194 -200 -478 -200q-148 0 -273.5 55.5t-215.5 153.5t-141.5 236.5t-51.5 304.5
q0 324 203 535q193 202 481 202q138 0 263.5 -53t216.5 -149z" />
    <glyph glyph-name="P" unicode="P" horiz-adv-x="1249" 
d="M936 1027q0 215 -104.5 262.5t-189.5 47.5h-141v-627h102q197 0 277 117q56 79 56 200zM1184 1069q0 -219 -164 -338q-147 -108 -360 -108h-159v-430q0 -79 59 -102q44 -17 147 -20v-71h-609v71q108 9 136 21q54 24 54 101v1024q0 35 -15 77t-182 54v71h648
q198 0 321.5 -95.5t123.5 -254.5z" />
    <glyph glyph-name="Q" unicode="Q" horiz-adv-x="1524" 
d="M1095 245q107 174 107 469t-114 472q-114 178 -333 178q-218 0 -334 -202q-99 -174 -99 -460t111 -467q111 -180 329 -180q107 0 193 50t140 140zM1418 -343q-145 -42 -256 -42t-175 19.5t-146 87.5t-101 246q-291 10 -476 218q-184 208 -184 530q0 323 203 535
q193 202 481 202q138 0 264 -53t218 -150t145 -235.5t53 -289.5q0 -406 -181.5 -544.5t-285.5 -175.5q2 -110 79 -197.5t175 -87.5t187 16v-79z" />
    <glyph glyph-name="R" unicode="R" horiz-adv-x="1437" 
d="M954 1046q0 140 -74 216t-209 76h-170v-609h131q138 0 230 88.5t92 228.5zM501 643v-450q0 -79 51 -99t146 -23v-71h-600v71q108 9 136 21q54 24 54 101v1026q0 82 -56 103t-134 26v71h655q190 0 319 -83t129 -255q0 -225 -135 -292.5t-211 -89.5q105 -139 175 -234
t142 -193t107.5 -126.5t77.5 -49.5t123 -25v-71h-382q-222 348 -452 643h-145z" />
    <glyph glyph-name="S" unicode="S" horiz-adv-x="1149" 
d="M548 1364q-92 0 -159.5 -61t-67.5 -151q0 -170 168 -250q73 -35 237.5 -94.5t242.5 -144.5q57 -62 78.5 -121.5t21.5 -138.5q0 -188 -139 -310t-345 -122q-95 0 -190 29.5t-164 71.5l-43 -73h-80l-14 486h81q119 -427 430 -427q200 0 233.5 95t33.5 167t-48 145.5
t-128 105.5t-164 63.5t-145 59.5q-120 54 -186.5 141.5t-66.5 238.5t125 264t293 113t328 -100l41 68h80l8 -471h-81q-53 197 -109 272q-55 75 -117 109.5t-154 34.5z" />
    <glyph glyph-name="T" unicode="T" horiz-adv-x="1267" 
d="M1251 1034h-69q-20 81 -68 153q-90 137 -151 145q-62 9 -165 9h-58v-1135q0 -76 63 -103q18 -7 75.5 -19t89.5 -13v-71h-670v71q132 9 165 23q64 26 64 103v1144h-58q-98 0 -148 -6t-85.5 -41.5t-81 -104t-69.5 -155.5h-70v385h1236v-385z" />
    <glyph glyph-name="U" unicode="U" horiz-adv-x="1549" 
d="M1303 1032v-617q0 -223 -178 -348q-148 -101 -334 -101q-248 0 -390 119q-141 119 -141 289v839q0 69 -53 99t-133 36v71h591v-71q-154 -6 -172 -49t-18 -76v-784q0 -146 62 -236q89 -125 292 -125q204 0 300 127q75 99 75 232v582q0 229 -63 274q-35 25 -95.5 39
t-92.5 16v71h580v-71q-28 -1 -82 -12.5t-88 -33.5q-60 -40 -60 -270z" />
    <glyph glyph-name="V" unicode="V" horiz-adv-x="1365" 
d="M1090 1260q0 70 -211 88v71h528v-71q-69 -3 -114 -30q-44 -28 -83 -90.5t-499 -1245.5h-83q-376 1010 -460 1231q-23 60 -79 95q-55 35 -127 40v71h587v-71q-75 -4 -126.5 -15t-51.5 -39q0 -20 107 -305.5t260 -694.5q330 803 341 873.5t11 92.5z" />
    <glyph glyph-name="W" unicode="W" horiz-adv-x="1998" 
d="M1710 1260q0 73 -197 88v71h515v-71q-59 -2 -106 -32q-48 -29 -69.5 -57.5t-37.5 -79.5q-71 -231 -165 -539.5t-203 -657.5h-92l-358 1092l-373 -1092h-88q-137 486 -347 1231q-36 123 -193 135v71h579v-71q-183 -10 -183 -52q0 -34 74 -290t189 -660l354 1053h98
l357 -1076q218 749 232 831t14 106z" />
    <glyph glyph-name="X" unicode="X" horiz-adv-x="1455" 
d="M1045 1282q0 32 -37.5 47t-126.5 19v71h529v-71q-145 -6 -221 -92t-368 -486q80 -114 178.5 -259t178.5 -261t146 -157q31 -18 133 -22v-71h-664v71q183 4 183 57q0 35 -61 133q-145 232 -225 350q-88 -116 -200 -279.5t-112 -194.5t30.5 -46.5t134.5 -19.5v-71h-530v71
q96 7 153 37t124 122t167 223.5t177 239.5q-58 85 -148 215.5t-162 236.5t-97 132t-66 45t-134 26v71h657v-71q-58 -2 -120.5 -14.5t-62.5 -38.5q-1 -35 59 -129q140 -223 208 -320q277 375 277 436z" />
    <glyph glyph-name="Y" unicode="Y" horiz-adv-x="1260" 
d="M1009 1273q0 60 -79.5 66t-108.5 9v71h493v-71q-17 -1 -53.5 -13.5t-64.5 -30.5t-71 -58t-334 -551q-37 -64 -49 -103t-12 -113v-271q0 -76 64 -105q21 -8 75 -19.5t87 -12.5v-71h-664v71q131 9 165 23q60 25 60 104v345q0 55 -326 635q-56 96 -117 137q-44 28 -118 33
v71h605v-71q-186 -4 -186 -48q0 -18 36 -85t71 -135t205 -371q322 519 322 564z" />
    <glyph glyph-name="Z" unicode="Z" horiz-adv-x="1232" 
d="M27 0v35l893 1305h-327q-113 0 -172 -12q-60 -12 -142.5 -107.5t-124.5 -202.5h-70l43 401h1063v-35l-893 -1305h337q85 0 181 12t125 41q65 62 121 152t83 159h70l-47 -443h-1140z" />
    <glyph glyph-name="bracketleft" unicode="[" horiz-adv-x="768" 
d="M701 -310h-533v1829h533v-91h-355v-1646h355v-92z" />
    <glyph glyph-name="backslash" unicode="\" horiz-adv-x="960" 
d="M911 -424h-130l-691 1947h132z" />
    <glyph glyph-name="bracketright" unicode="]" horiz-adv-x="768" 
d="M600 -310h-533v92h355v1646h-355v91h533v-1829z" />
    <glyph glyph-name="asciicircum" unicode="^" horiz-adv-x="1317" 
d="M1126 796h-145l-321 524l-324 -524h-145l412 660h113z" />
    <glyph glyph-name="underscore" unicode="_" horiz-adv-x="1317" 
d="M1322 -282h-1327v101h1327v-101z" />
    <glyph glyph-name="grave" unicode="`" 
d="M328 1454q0 35 23 59.5t61 24.5t65.5 -18t78.5 -101t183 -277l-38 -32q-103 82 -184 143.5t-119 93.5t-54 52t-16 55z" />
    <glyph glyph-name="a" unicode="a" horiz-adv-x="1032" 
d="M281 236q0 -74 43.5 -112.5t112.5 -38.5q123 0 214 116l6 345q-184 -54 -268 -109q-108 -74 -108 -201zM331 -25q-108 0 -179.5 68.5t-71.5 178.5t64 182q44 52 116 80t209.5 74t185.5 72v99q0 120 -61.5 166t-117.5 46t-95.5 -15.5t-55.5 -32.5q0 -20 9.5 -59t9.5 -73
t-31.5 -63t-84.5 -29t-76.5 35.5t-23.5 80.5q0 88 112 158q112 71 218 71q105 0 167.5 -11t113.5 -49q104 -76 104 -265l-6 -495q0 -70 55 -101q18 -11 114 -11v-64q-105 -38 -163 -38q-157 0 -184 143h-6q-65 -72 -139.5 -110t-182.5 -38z" />
    <glyph glyph-name="b" unicode="b" horiz-adv-x="1147" 
d="M577 902q-126 0 -217 -102v-574q16 -64 58 -104q43 -41 81 -58.5t93 -17.5q122 0 197 118t75 323q0 278 -105 346.5t-182 68.5zM660 1013q169 0 291 -144.5t122 -370.5t-140 -377t-310 -151t-322 92l-74 -115l-62 14q9 133 9 379v976q0 34 -15.5 68t-42.5 52t-132 25v64
l362 23l14 -15v-650l7 -2q124 132 293 132z" />
    <glyph glyph-name="c" unicode="c" horiz-adv-x="930" 
d="M278 525q0 -206 82.5 -323.5t216.5 -117.5q97 0 162.5 47t121.5 141l64 -42q-66 -118 -174 -187t-223 -69q-214 0 -335 142t-121 365t127 375q131 158 362 158q125 0 216 -69.5t91 -189.5q0 -50 -24 -88.5t-81 -38.5t-89.5 30t-32.5 71t12 88.5t14 69.5q-30 52 -132 52
t-180 -104q-77 -104 -77 -310z" />
    <glyph glyph-name="d" unicode="d" horiz-adv-x="1176" 
d="M561 937q-119 0 -200 -120q-80 -121 -80 -313t70 -301q78 -124 211 -124t229 112v577q-19 63 -60 100q-77 69 -170 69zM791 1294q0 91 -49 125t-182 44v62l403 23l15 -15v-1330q0 -66 53 -101q25 -16 121 -19v-65l-344 -22l-15 14v92l-8 2q-52 -58 -128.5 -95t-158.5 -37
t-161 38t-137 106q-128 149 -128 372q0 224 136 375q136 150 357 150q116 0 226 -62v343z" />
    <glyph glyph-name="e" unicode="e" horiz-adv-x="990" 
d="M727 608q0 331 -206 331q-105 0 -174.5 -87.5t-75.5 -243.5h456zM551 -26q-238 0 -358.5 149.5t-120.5 365.5t123 371q123 154 329 154q205 0 303 -119q97 -119 97 -305v-66h-653q0 -311 121 -375.5t209 -64.5t152.5 41.5t124.5 149.5l70 -43q-62 -118 -166 -188
t-231 -70z" />
    <glyph glyph-name="f" unicode="f" horiz-adv-x="666" 
d="M405 1083v-101h254v-96h-254v-708q0 -69 49 -87t140 -25v-66h-520v66q23 2 47.5 4t47.5 10q50 16 50 88v718h-195v96h195v63q0 225 116.5 364.5t291.5 139.5q89 0 134 -34.5t45 -82.5t-24 -79t-64 -31t-63.5 13t-43.5 35t-37 50t-29 45q-140 -6 -140 -382z" />
    <glyph glyph-name="g" unicode="g" horiz-adv-x="1043" 
d="M218 -183q0 -123 110 -154t195 -31q147 0 231.5 56.5t84.5 171.5t-105 141q-98 14 -317 14q-108 -21 -153.5 -70.5t-45.5 -127.5zM647 692q0 112 -47.5 181.5t-136.5 69.5t-132 -75q-37 -61 -37 -174q0 -112 48 -182t130 -70t128.5 69t46.5 181zM837 674
q0 -121 -105.5 -211t-245.5 -90h-121q-23 -8 -48 -29.5t-25 -57.5q0 -66 72 -82q37 -10 114 -12t153.5 -7t115.5 -7q91 -3 173 -80q83 -77 83 -214.5t-125 -228.5q-141 -99 -390 -99q-446 0 -446 257q0 102 80 161t204 64v14q-78 23 -110 49q-65 51 -65 125q0 110 151 174
v15q-202 95 -202 279q0 140 104.5 230t267.5 90q75 0 180 -32h344v-96h-232v-6q73 -85 73 -206z" />
    <glyph glyph-name="h" unicode="h" horiz-adv-x="1192" 
d="M650 894q-178 0 -265 -149v-567q0 -66 55 -90q39 -18 97 -22v-66h-484v66q70 6 94 14q52 16 52 88v1148q0 34 -15.5 68t-40.5 52t-137 25v64l365 23l14 -15v-688h4q79 79 124 107q96 61 220 61t195 -83.5t71 -240.5v-513q0 -68 49 -87q49 -20 95 -23v-66h-484v66
q23 2 51 4t51 10q50 16 50 88v507q0 105 -49.5 162t-111.5 57z" />
    <glyph glyph-name="i" unicode="i" horiz-adv-x="600" 
d="M425 1384q0 -54 -37.5 -96.5t-90.5 -42.5t-90.5 40.5t-37.5 94.5t37.5 94.5t91.5 40.5t90.5 -38.5t36.5 -92.5zM551 0h-477v66q23 2 47.5 4t47.5 10q50 16 50 88v609q0 122 -176 134v65l348 22l14 -14v-804q0 -71 56 -92q45 -19 90 -22v-66z" />
    <glyph glyph-name="j" unicode="j" horiz-adv-x="598" 
d="M446 1385q0 -54 -37.5 -96.5t-90.5 -42.5t-90.5 40t-37.5 94t37.5 95t91.5 41t90.5 -38.5t36.5 -92.5zM431 60q0 -227 -117 -366q-117 -138 -286 -138q-89 0 -134 35t-45 81t24 78.5t75 32.5t92 -47q20 -22 64 -96q76 0 108.5 92t32.5 295v742q0 69 -56 109
q-33 23 -168 36v62l396 22l14 -14v-924z" />
    <glyph glyph-name="k" unicode="k" horiz-adv-x="1097" 
d="M733 864q0 42 -127 58v64h434v-62q-150 -45 -247 -130q-24 -20 -68 -65t-123 -118q82 -101 184 -242t148 -202t81 -79t102 -22v-66h-298q-78 113 -167 242t-185 251l-82 -77v-234q0 -73 55 -94q44 -18 97 -22v-66h-484v66q70 6 94 14q52 16 52 88v1146q0 81 -56 119
q-26 20 -137 28v64l365 23l14 -15v-1043q78 78 213 211.5t135 162.5z" />
    <glyph glyph-name="l" unicode="l" horiz-adv-x="586" 
d="M534 0h-481v66q73 6 96 14q52 16 52 88v1142q0 77 -56 117q-18 12 -66 22t-77 12v64l371 23l14 -15v-1353q0 -69 55 -92q40 -18 92 -22v-66z" />
    <glyph glyph-name="m" unicode="m" horiz-adv-x="1804" 
d="M1257 894q-163 0 -249 -147v-569q0 -70 48 -89t95 -23v-66h-471v66q65 6 88 13q51 16 51 89v509q0 104 -47.5 160.5t-107.5 56.5q-105 0 -182 -58q-31 -23 -79 -91v-565q0 -103 148 -114v-66h-479v66q23 2 47.5 4t47.5 10q50 16 50 88v613q0 63 -47 94t-113 36v65l330 22
l14 -14v-141h7q85 85 124 111q86 59 193 59q108 0 177 -51.5t99 -124.5q36 35 109 105.5t234 70.5q122 0 195 -82t73 -252v-501q0 -70 47 -89t102 -23v-66h-481v66q23 2 46.5 4t46.5 10q50 16 50 88v509q0 104 -47.5 160.5t-118.5 56.5z" />
    <glyph glyph-name="n" unicode="n" horiz-adv-x="1210" 
d="M1161 0h-483v66q23 2 50.5 4t50.5 10q50 16 50 88v507q0 105 -49.5 162t-111.5 57q-103 0 -184 -57q-48 -34 -81 -92v-567q0 -100 152 -112v-66h-483v66q23 2 47.5 4t47.5 10q50 16 50 88v609q0 71 -55 109q-32 20 -101 25v65l328 22l14 -14v-139h5q81 81 123 109
q91 59 221 59q129 0 197.5 -88.5t68.5 -235.5v-513q0 -68 47 -87t96 -23v-66z" />
    <glyph glyph-name="o" unicode="o" horiz-adv-x="1104" 
d="M826 501q0 296 -98 366.5t-174 70.5q-146 0 -219 -142q-58 -111 -58 -290q0 -317 101 -388.5t177 -71.5q125 0 198 121t73 334zM901 122q-132 -152 -343 -152t-350 143q-138 143 -138 375t135 379t347 147t346.5 -139.5t134.5 -369.5q0 -231 -132 -383z" />
    <glyph glyph-name="p" unicode="p" horiz-adv-x="1170" 
d="M601 902q-123 0 -216 -110v-583q20 -60 63 -95q43 -36 79 -51.5t90 -15.5q120 0 195 117q76 117 76 323q0 278 -105 346.5t-182 68.5zM385 41v-296q0 -73 61 -96t138 -26v-67h-551v67q80 5 111 15q55 18 55 94v1049q0 65 -54 103q-33 22 -112 27v65l336 22l14 -12v-111
l8 -2q52 60 129 100t161 40q172 0 294 -146t122 -372q0 -227 -142 -378q-139 -143 -323 -143q-150 0 -239 67h-8z" />
    <glyph glyph-name="q" unicode="q" horiz-adv-x="1146" 
d="M580 81q119 0 211 102v589q-34 107 -107.5 136t-126.5 29q-117 0 -196.5 -121t-79.5 -333q0 -271 107.5 -336.5t191.5 -65.5zM785 98q-110 -124 -294 -124q-73 0 -152.5 38t-138.5 106q-128 149 -128 374q0 226 146 379q63 65 151.5 103.5t188.5 38.5t189 -42
q31 -13 62 -33.5t44 -27.5l85 130l57 -8q-17 -314 -17 -371v-912q0 -74 52 -97t124 -29v-67h-533v67q82 5 114 15q56 17 56 94v364z" />
    <glyph glyph-name="r" unicode="r" horiz-adv-x="839" 
d="M610 812q0 26 10 86q-47 0 -110 -38t-107 -108v-574q0 -69 56 -90q39 -16 133 -22v-66h-520v66q23 2 47.5 4t47.5 10q50 16 50 88v609q0 71 -55 109q-32 20 -101 25v65l328 22l14 -14v-139h5q62 81 138 123t139 42t102.5 -41t39.5 -101t-25 -99.5t-79 -39.5t-83.5 28.5
t-29.5 54.5z" />
    <glyph glyph-name="s" unicode="s" horiz-adv-x="885" 
d="M417 1014q138 0 230 -51l23 52h72l15 -317h-69q-21 106 -90.5 172.5t-160.5 66.5t-138 -40.5t-47 -92.5q0 -90 54 -127q54 -36 200 -84q147 -48 225 -116q77 -68 77 -199q0 -130 -102.5 -217t-265.5 -87q-86 0 -158.5 31t-103.5 57l-20 -65h-75l-10 343h69
q20 -98 105 -193q85 -96 194 -96q214 0 214 168q0 79 -59 121t-193 83q-135 41 -191 86q-113 90 -113 213q0 124 90 208t228 84z" />
    <glyph glyph-name="t" unicode="t" horiz-adv-x="707" 
d="M560 100q75 0 121 16v-73q-65 -27 -123 -45.5t-162 -18.5q-205 0 -205 239v668h-178v96h182v307h182v-307h283v-96h-281v-551q0 -129 21 -167t53 -53t107 -15z" />
    <glyph glyph-name="u" unicode="u" horiz-adv-x="1178" 
d="M793 135h-6q-72 -75 -120 -103q-48 -29 -90 -43t-119 -14q-131 0 -199.5 85.5t-68.5 248.5v472q0 66 -53 103q-30 20 -102 25v65l329 24l15 -14v-685q0 -107 48 -161t109 -54q135 0 189.5 62.5t65.5 82.5v559q0 64 -53 102q-21 14 -133 19v65l358 24l15 -14v-783
q0 -63 53 -99q27 -17 98 -19v-65l-321 -22l-15 14v125z" />
    <glyph glyph-name="v" unicode="v" horiz-adv-x="1017" 
d="M-19 986h456v-70q-30 -1 -75 -12.5t-45 -31.5q0 -3 5 -15.5t51 -131.5t197 -477q36 86 91 214t91 220t45 116t9 44q0 33 -46 53.5t-91 26.5v64h377v-61q-45 -8 -85.5 -32.5t-69.5 -86.5q-252 -573 -285 -665t-52 -150h-78q-177 439 -341 825q-20 46 -64.5 71.5
t-89.5 32.5v66z" />
    <glyph glyph-name="w" unicode="w" horiz-adv-x="1510" 
d="M-5 986h440v-70q-33 -1 -71.5 -11t-38.5 -33q0 -9 62.5 -209t126.5 -407l252 710h96l257 -700q43 134 85 259.5t62 193.5t26.5 89.5t6.5 41.5q1 35 -47 53q-48 19 -86 19v64h375v-64q-42 -4 -90.5 -35t-70.5 -93q-230 -676 -264 -801h-86l-265 726l-267 -726h-82
q-75 222 -146.5 440.5t-126.5 380.5q-16 47 -61 74t-87 32v66z" />
    <glyph glyph-name="x" unicode="x" horiz-adv-x="1034" 
d="M732 871q0 35 -100 51v64h364v-62q-128 -33 -193 -111q-33 -41 -78.5 -101t-127.5 -168q166 -233 263 -379q29 -44 64.5 -69.5t97.5 -29.5v-66h-452v66q45 5 76.5 10t31.5 26q0 28 -205 324q-71 -88 -133 -178q-62 -89 -69.5 -104t-7.5 -24q0 -46 114 -56v-64h-365v62
q115 34 186 119q31 40 86.5 110t143.5 190q-176 252 -224 322t-81.5 93.5t-94.5 23.5v66h429v-66q-94 0 -94 -22q-1 -14 21 -46t68.5 -103t100.5 -150q166 227 172.5 244.5t6.5 27.5z" />
    <glyph glyph-name="y" unicode="y" horiz-adv-x="1008" 
d="M-3 -321q0 49 27.5 80.5t63.5 31.5q78 0 114 -55t46 -72q50 27 119.5 141t100.5 200q-159 398 -333 811q-19 46 -64 71.5t-90 32.5v66h450v-70q-30 -1 -72 -12.5t-42 -26.5q0 -21 104.5 -271t147.5 -362q45 107 93 221.5t82 202.5t47 121t13 58t-45.5 47.5t-86.5 27.5v64
h366v-62q-30 -5 -79 -34.5t-73 -83.5q-119 -276 -211.5 -503t-148.5 -351q-105 -233 -201 -325q-78 -71 -158 -71q-81 0 -125.5 37t-44.5 86z" />
    <glyph glyph-name="z" unicode="z" horiz-adv-x="909" 
d="M280 81q72 -2 168 -2q97 0 199 6q64 3 92 84q27 72 54 179h60v-348h-798v53l558 852h-138q-169 0 -219 -20q-64 -26 -102 -202h-61v303h754v-41z" />
    <glyph glyph-name="braceleft" unicode="{" horiz-adv-x="881" 
d="M814 1537v-82q-123 -6 -168 -31q-90 -50 -90 -186v-234q0 -199 -99 -286q-79 -70 -245 -101v-31q168 -33 245 -101q99 -88 99 -286v-233q0 -134 81 -182q55 -31 177 -37v-80q-232 0 -330 69q-117 83 -117 291l15 254q0 198 -120.5 224.5t-189.5 31.5v129q162 14 217 53
q54 40 73.5 87.5t19.5 115.5l-15 255q0 297 172 328.5t275 31.5z" />
    <glyph glyph-name="bar" unicode="|" horiz-adv-x="768" 
d="M448 -424h-127v1947h127v-1947z" />
    <glyph glyph-name="braceright" unicode="}" horiz-adv-x="881" 
d="M67 -333v80q124 6 170 33q88 52 88 186v233q0 198 99 286q77 68 245 101v31q-166 31 -245 101q-99 87 -99 286v234q0 136 -81 181q-54 30 -177 36v82q230 0 330 -72q117 -85 117 -288l-15 -255q0 -135 75 -189t235 -67v-129q-160 -12 -227 -60q-83 -59 -83 -196l15 -254
q0 -208 -117 -291q-99 -69 -330 -69z" />
    <glyph glyph-name="asciitilde" unicode="~" horiz-adv-x="1317" 
d="M1068 526q-106 -106 -217 -106t-247 68q-51 26 -100.5 47t-107.5 21t-102 -46t-86 -130l-78 31q13 38 46.5 92t73.5 96t100 74t143 32t222 -68q54 -27 98.5 -47.5t106.5 -20.5t107 49t82 127l78 -31q-42 -111 -119 -188z" />
    <glyph glyph-name="exclamdown" unicode="&#xa1;" horiz-adv-x="678" 
d="M472 103q0 -57 -36 -96t-92 -39t-92 38t-36 100t32 329.5t55 556.5h78q23 -242 57 -537t34 -352zM481 1309q0 -56 -40.5 -95.5t-96.5 -39.5t-96.5 39.5t-40.5 95.5t40.5 96.5t96.5 40.5t96.5 -40.5t40.5 -96.5z" />
    <glyph glyph-name="cent" unicode="&#xa2;" horiz-adv-x="1137" 
d="M344 478q0 -130 59 -236.5t166 -141.5v839q-225 -56 -225 -461zM651 -299h-82v281q-205 18 -316.5 160t-111.5 346t119 350.5t309 171.5v265h82v-260q146 -1 244 -72t98 -193t-106 -122q-65 0 -93.5 30t-28.5 71t14.5 88t16.5 70q-33 50 -145 57v-856l20 -1
q104 0 176.5 48.5t134.5 144.5l58 -46q-59 -100 -161.5 -172.5t-227.5 -80.5v-280z" />
    <glyph glyph-name="sterling" unicode="&#xa3;" horiz-adv-x="1274" 
d="M536 621q0 -281 -237 -435v-9h866v-177h-1048v148q219 73 219 473h-167v96h167l-8 100q-7 100 -7 152q0 212 126.5 349.5t328.5 137.5q163 0 259 -91q97 -91 97 -205q0 -50 -24 -87.5t-82 -37.5t-91.5 29.5t-33.5 70.5t12.5 88t17.5 69q-13 28 -55 56t-90 28
q-173 0 -216.5 -101.5t-43.5 -191.5l10 -366h396v-96h-396z" />
    <glyph glyph-name="currency" unicode="&#xa4;" horiz-adv-x="1170" 
d="M747 558q0 68 -47.5 117t-114.5 49t-114.5 -48t-47.5 -116t47.5 -117t114.5 -49t114.5 48t47.5 116zM585 283q-78 0 -144 42l-189 -186l-85 90l184 186q-42 65 -42 143q0 77 42 145l-184 189l88 86l186 -185q25 17 69 29.5t75 12.5q77 0 145 -41l185 184l90 -85
l-186 -190q43 -67 43 -145t-43 -143l186 -187l-86 -87l-188 184q-68 -42 -146 -42z" />
    <glyph glyph-name="yen" unicode="&#xa5;" horiz-adv-x="1259" 
d="M726 560h393v-96h-393v-257q0 -76 58 -105q18 -8 66.5 -19t78.5 -12v-71h-610v71q121 10 147 22q55 25 55 104v267h-393v96h393v64q-101 204 -298 554q-56 96 -117 137q-44 28 -118 33v71h579v-71q-97 -4 -132 -14t-35 -35t104.5 -212t183.5 -329q114 190 202.5 340
t88.5 174q0 60 -67.5 66.5t-101.5 9.5v71h472v-71q-17 -1 -53.5 -13.5t-64.5 -30.5t-42.5 -30.5t-90.5 -124.5t-139.5 -221.5t-165.5 -284.5v-83z" />
    <glyph glyph-name="brokenbar" unicode="&#xa6;" horiz-adv-x="768" 
d="M448 -424h-127v810h127v-810zM448 723h-127v800h127v-800z" />
    <glyph glyph-name="section" unicode="&#xa7;" 
d="M274 636q0 -98 75.5 -162t232.5 -127q92 52 129 110.5t37 138.5q0 162 -302 266q-172 -71 -172 -226zM362 900q-204 97 -204 242t107 228q107 84 282 84q176 0 243.5 -55t67.5 -110q0 -108 -99 -108q-77 0 -107 76t-46 110q-35 10 -83 10q-92 0 -151.5 -52.5
t-59.5 -126.5t81 -128q51 -35 213 -102q161 -67 229 -148.5t68 -183.5t-67 -188.5t-183 -129.5q208 -89 208 -267q0 -135 -112 -222t-282 -87t-239.5 55t-69.5 108q0 110 99 110q74 0 107.5 -80t45.5 -106q40 -10 83 -10q91 0 153.5 55.5t62.5 121.5t-51.5 123t-223.5 123
t-242.5 152t-70.5 202q0 200 241 304z" />
    <glyph glyph-name="dieresis" unicode="&#xa8;" 
d="M415 1364q0 -51 -34.5 -87t-83.5 -36t-83.5 36t-34.5 87t34.5 87t83.5 36t83.5 -36t34.5 -87zM845 1364q0 -51 -34.5 -87t-83.5 -36t-83.5 36t-34.5 87t34.5 87t83.5 36t83.5 -36t34.5 -87z" />
    <glyph glyph-name="copyright" unicode="&#xa9;" horiz-adv-x="1929" 
d="M972 111q-210 0 -345 131t-135 346q0 216 146 360q67 66 164.5 105t181.5 39t149 -20t97 -44l45 66h59l5 -363h-54q-46 138 -91 189t-96 75t-126 24q-120 0 -196.5 -111.5t-76.5 -299.5t92.5 -295t231.5 -107q101 0 172 53.5t122 169.5l58 -25q-118 -293 -403 -293z
M1750 602q0 325 -229 560t-557 235t-556.5 -235t-228.5 -560t228.5 -560t556.5 -235t557 235t229 560zM1849 602q0 -366 -259.5 -624.5t-625.5 -258.5t-625 258.5t-259 624.5t259 624.5t625 258.5t625.5 -258.5t259.5 -624.5z" />
    <glyph glyph-name="ordfeminine" unicode="&#xaa;" 
d="M331 840q0 -56 32.5 -87t92.5 -31q100 0 176 87l4 266q-156 -47 -219 -84q-86 -52 -86 -151zM791 617q-130 0 -153 120h-5q-118 -124 -269 -124q-89 0 -148.5 57t-59.5 148t52 153q51 56 212.5 105.5t214.5 77.5v55q0 98 -52.5 135t-113.5 37t-101 -40q2 -15 8.5 -45
t6.5 -56t-31 -47.5t-76 -21.5t-63.5 30.5t-18.5 65.5q0 76 96 131t180 55q164 0 236 -49q90 -63 90 -214l-5 -392q0 -56 47 -81q17 -9 95 -9v-60q-93 -31 -142 -31z" />
    <glyph glyph-name="guillemotleft" unicode="&#xab;" horiz-adv-x="1190" 
d="M170 523.5q0 34.5 15.5 52.5t29.5 32l352 329l49 -41l-259 -367l259 -369l-49 -40l-355 332q-42 37 -42 71.5zM551 523.5q0 34.5 16.5 53.5t28.5 31l352 329l49 -41l-259 -367l259 -369l-49 -40l-355 332q-42 37 -42 71.5z" />
    <glyph glyph-name="logicalnot" unicode="&#xac;" horiz-adv-x="1317" 
d="M1163 76h-132v451h-887v125h1019v-576z" />
    <glyph glyph-name="registered" unicode="&#xae;" horiz-adv-x="1929" 
d="M1155 834q0 169 -197 169h-116v-378h87q104 0 165 55t61 154zM842 549v-262q0 -53 38 -67t103 -17v-58h-439v58q76 8 97 17q39 16 39 67v642q0 54 -43 69q-43 14 -93 19v58h492q203 0 254 -80.5t51 -140.5q0 -109 -59.5 -171t-175.5 -94q125 -151 236 -290
q71 -88 200 -96v-58h-287q-122 173 -308 404h-105zM1750 602q0 325 -229 560t-557 235t-556.5 -235t-228.5 -560t228.5 -560t556.5 -235t557 235t229 560zM1849 602q0 -366 -259.5 -624.5t-625.5 -258.5t-625 258.5t-259 624.5t259 624.5t625 258.5t625.5 -258.5
t259.5 -624.5z" />
    <glyph glyph-name="overscore" unicode="&#xaf;" horiz-adv-x="1317" 
d="M1322 1603h-1327v101h1327v-101z" />
    <glyph glyph-name="degree" unicode="&#xb0;" horiz-adv-x="859" 
d="M607 1123q0 122 -48.5 188.5t-130.5 66.5t-129 -67t-47 -182t47 -183t123 -68t130.5 61.5t54.5 183.5zM755 1128q0 -137 -91.5 -231t-235.5 -94t-234 95t-90 233t93 230t234 92t232.5 -94t91.5 -231z" />
    <glyph glyph-name="plusminus" unicode="&#xb1;" horiz-adv-x="1317" 
d="M1168 0h-1019v125h446v402h-446v125h446v451h127v-451h446v-125h-446v-402h446v-125z" />
    <glyph glyph-name="twosuperior" unicode="&#xb2;" 
d="M350 1196q0 -32 -28 -55t-78 -23t-70.5 31.5t-20.5 70.5q0 91 104.5 162t252.5 71t246.5 -75.5t98.5 -202.5q0 -191 -109 -258.5t-167 -95.5q-206 -100 -300 -187h621v-144h-753v111q64 105 273 237q132 83 187 158q56 75 56 178q0 104 -49.5 154t-117.5 50
q-123 0 -167 -65q21 -85 21 -117z" />
    <glyph glyph-name="threesuperior" unicode="&#xb3;" 
d="M453 1027q192 1 192 185q0 170 -162 169q-95 0 -142 -59q19 -65 19 -99t-28.5 -56.5t-76.5 -22.5t-68.5 29t-20.5 65q0 77 91 142q40 30 111 51.5t156 21.5q166 0 252 -86q61 -63 61 -139t-34 -117q-67 -81 -180 -112v-9q105 -10 172 -63q85 -62 85 -182t-115 -205
t-307 -85q-135 0 -233 58t-98 142q0 45 23.5 72.5t67.5 27.5t71.5 -22.5t27.5 -52.5t-21 -99q63 -53 166 -53t164.5 57.5t61.5 155.5t-43.5 145t-160.5 47h-107v94h76z" />
    <glyph glyph-name="acute" unicode="&#xb4;" 
d="M696 1456q0 -34 -17.5 -58t-59.5 -58t-122.5 -95.5t-173.5 -134.5l-38 32q130 192 182 276q51 83 80 101.5t66 18.5t60 -24t23 -58z" />
    <glyph glyph-name="mu1" unicode="&#xb5;" horiz-adv-x="1160" 
d="M462 -21q-66 0 -119 24t-79 57h-6v-58q0 -68 26.5 -182t26.5 -162t-31.5 -75t-69.5 -27t-63.5 27t-25.5 79t27 195t27 279v850h189v-677q0 -104 46.5 -160.5t109.5 -56.5q139 0 190.5 59.5t62.5 79.5v755h189v-784q0 -115 68.5 -117t102.5 -2v-64q-105 -38 -174 -38
q-68 0 -119.5 39t-64.5 115h-6q-82 -85 -122 -109q-40 -23 -79.5 -35t-105.5 -12z" />
    <glyph glyph-name="paragraph" unicode="&#xb6;" 
d="M1000 1345h-111v-1561h-103v1561h-160v-1561h-103v922q-193 0 -308.5 92.5t-115.5 257.5t107 264t277 99h517v-74z" />
    <glyph glyph-name="middot" unicode="&#xb7;" horiz-adv-x="572" 
d="M425 559q-1 -55 -41 -95t-96 -40t-96 40t-41 95q1 57 41 97t96 40t96 -40t41 -97z" />
    <glyph glyph-name="cedilla" unicode="&#xb8;" 
d="M476 -99q230 0 230 -156q0 -51 -32 -91t-109 -69t-258 -29v72q129 0 170 10q85 20 85 80q0 49 -55 62t-110 13v224h79v-116z" />
    <glyph glyph-name="onesuperior" unicode="&#xb9;" 
d="M596 1208v-559q0 -49 45 -68q45 -20 148 -20v-71h-565v71q127 4 165 17.5t38 62.5v631h-207v78h62q78 0 146 28.5t102 66.5h73q-7 -157 -7 -237z" />
    <glyph glyph-name="ordmasculine" unicode="&#xba;" 
d="M723 1030q0 238 -74.5 293.5t-134.5 55.5q-114 0 -169 -112q-45 -86 -45 -194q0 -393 214 -393q105 0 157 101q52 102 52 249zM908 1037q0 -184 -109 -307.5t-283 -123.5t-287 118t-113 304t111 305.5t287 119.5t285 -116t109 -300z" />
    <glyph glyph-name="guillemotright" unicode="&#xbb;" horiz-adv-x="1190" 
d="M639 532q0 -36 -17 -54.5t-25 -25.5l-355 -332l-49 40l259 369l-259 367l49 41l352 -329q45 -40 45 -76zM1020 532q0 -36 -17 -54.5t-25 -25.5l-355 -332l-49 40l259 369l-259 367l49 41l352 -329q45 -40 45 -76z" />
    <glyph glyph-name="onequarter" unicode="&#xbc;" horiz-adv-x="2150" 
d="M507 1208v-559q0 -49 45 -68q45 -20 148 -20v-71h-565v71q127 4 153 13q50 18 50 67v631h-207v78h62q78 0 146 28t102 67h73q-7 -157 -7 -237zM1447 1419l-739 -1419h-135l737 1419h137zM1663 321v453l-393 -453h393zM1988 212h-159v-232h-166v232h-495v126l543 623h118
v-640h159v-109z" />
    <glyph glyph-name="onehalf" unicode="&#xbd;" horiz-adv-x="2150" 
d="M507 1208v-559q0 -49 45 -68q45 -20 148 -20v-71h-565v71q127 4 153 13q50 18 50 67v631h-207v78h62q78 0 146 28t102 67h73q-7 -157 -7 -237zM1437 1419l-739 -1419h-135l737 1419h137zM1494 706q0 -32 -28 -55t-78 -23t-70 32t-21 70q1 91 105 162t252 71
q148 1 246 -75q99 -76 99 -203q1 -191 -169 -296q-48 -30 -107 -58q-206 -100 -300 -187h621v-144h-753v111q64 105 273 237q132 83 187 158q56 75 56 178q0 104 -49 154q-50 50 -118 50q-122 0 -167 -65q21 -85 21 -117z" />
    <glyph glyph-name="threequarters" unicode="&#xbe;" horiz-adv-x="2150" 
d="M443 1027q192 1 192 185q0 170 -162 169q-95 0 -142 -59q19 -65 19 -99q0 -35 -28 -57t-77 -22t-69 28t-20 66q0 77 91 142q40 30 111 52t156 21q166 0 252 -86q61 -63 61 -139t-34 -117q-67 -81 -180 -112v-9q105 -10 172 -63q85 -62 85 -182t-115 -205t-307 -85
q-135 0 -233 58t-98 142q-1 45 23 73t68 27t72 -23q27 -22 27 -52t-21 -99q63 -53 166 -53q102 0 164 58t62 155q0 98 -30 131q-56 61 -174 61h-107v94h76zM1599 1419l-739 -1419h-135l737 1419h137zM1753 321v453l-393 -453h393zM2078 212h-159v-232h-166v232h-495v126
l543 623h118v-640h159v-109z" />
    <glyph glyph-name="questiondown" unicode="&#xbf;" horiz-adv-x="980" 
d="M649 232q0 35 31.5 65.5t89.5 30.5t81 -37t23 -81q0 -88 -91 -158q-103 -78 -267 -78q-90 0 -172 33t-136 91q-108 113 -107 292q0 180 118 297t324 141v221h92v-379q-239 -19 -291.5 -116t-52.5 -191q0 -150 63.5 -230t185.5 -80q79 0 131 39q-22 105 -22 140zM723 1311
q0 -56 -40.5 -96.5t-96.5 -40.5t-96.5 40.5t-40.5 96.5t40.5 95.5t96.5 39.5t96.5 -39.5t40.5 -95.5z" />
    <glyph glyph-name="Agrave" unicode="&#xc0;" horiz-adv-x="1374" 
d="M849 580l-215 550l-211 -550h426zM288 159q0 -40 63 -62t142 -26v-71h-534v71q129 9 191 93q22 30 43 82q107 267 236 600t230 593h80l473 -1224q27 -69 82 -105q56 -36 127 -39v-71h-591v71q181 12 181 57q0 25 -8 45l-118 318h-497q-100 -250 -100 -332zM470 1785
q0 39 25 61t61 22t62 -14t94 -85q69 -72 227 -223l-31 -39q-118 58 -210 102q-92 43 -138 67t-68 48t-22 61z" />
    <glyph glyph-name="Aacute" unicode="&#xc1;" horiz-adv-x="1374" 
d="M849 580l-215 550l-211 -550h426zM288 159q0 -40 63 -62t142 -26v-71h-534v71q129 9 191 93q22 30 43 82q107 267 236 600t230 593h80l473 -1224q27 -69 82 -105q56 -36 127 -39v-71h-591v71q181 12 181 57q0 25 -8 45l-118 318h-497q-100 -250 -100 -332zM897 1868
q34 0 61 -23t27 -61q0 -62 -92 -109q-45 -23 -137 -67t-209 -101l-31 39q176 168 264 261q57 61 117 61z" />
    <glyph glyph-name="Acircumflex" unicode="&#xc2;" horiz-adv-x="1374" 
d="M849 580l-215 550l-211 -550h426zM288 159q0 -40 63 -62t142 -26v-71h-534v71q129 9 191 93q22 30 43 82q107 267 236 600t230 593h80l473 -1224q27 -69 82 -105q56 -36 127 -39v-71h-591v71q181 12 181 57q0 25 -8 45l-118 318h-497q-100 -250 -100 -332zM704 1868
q40 0 56 -11t30 -30l236 -288l-48 -32l-279 212l-275 -212l-48 32l234 284q18 21 36 33t58 12z" />
    <glyph glyph-name="Atilde" unicode="&#xc3;" horiz-adv-x="1374" 
d="M849 580l-215 550l-211 -550h426zM288 159q0 -40 63 -62t142 -26v-71h-534v71q129 9 191 93q22 30 43 82q107 267 236 600t230 593h80l473 -1224q27 -69 82 -105q56 -36 127 -39v-71h-591v71q181 12 181 57q0 25 -8 45l-118 318h-497q-100 -250 -100 -332zM526 1685
q-34 0 -50 -8q-16 -9 -32 -27t-33 -48q-16 -30 -30 -53l-58 25q26 83 71 138q87 105 172 105q84 0 177 -52q38 -21 64 -36t82 -15t80 30q25 30 57 104l61 -23q-23 -88 -94 -166q-71 -77 -159 -77t-176 51q-34 20 -66 36t-66 16z" />
    <glyph glyph-name="Adieresis" unicode="&#xc4;" horiz-adv-x="1374" 
d="M849 580l-215 550l-211 -550h426zM288 159q0 -40 63 -62t142 -26v-71h-534v71q129 9 191 93q22 30 43 82q107 267 236 600t230 593h80l473 -1224q27 -69 82 -105q56 -36 127 -39v-71h-591v71q181 12 181 57q0 25 -8 45l-118 318h-497q-100 -250 -100 -332zM588 1718
q0 -51 -34 -87t-84 -36t-84 36t-34 87t34 87t84 36t84 -36t34 -87zM1038 1718q0 -51 -34 -87t-84 -36t-84 36t-34 87t34 87t84 36t84 -36t34 -87z" />
    <glyph glyph-name="Aring" unicode="&#xc5;" horiz-adv-x="1374" 
d="M829 1645q0 69 -33.5 114t-97.5 45t-98.5 -43t-34.5 -113t34 -116.5t98 -46.5t98 45.5t34 114.5zM849 580l-215 550l-211 -550h426zM288 159q0 -40 63 -62t142 -26v-71h-534v71q129 10 171 66.5t63 108.5q102 255 226.5 577t234.5 602q-101 12 -158 71.5t-57 153.5
t75 156t185 62t183 -60t73 -154t-58 -155t-153 -73l468 -1211q53 -138 209 -144v-71h-591v71q181 12 181 57q0 25 -8 45l-118 318h-497q-100 -250 -100 -332z" />
    <glyph glyph-name="AE" unicode="&#xc6;" horiz-adv-x="1988" 
d="M948 690v641h-77l-354 -641h431zM596 1419h1238v-342h-75q-19 76 -86 161.5t-128 93.5t-171 8h-213v-564h150q76 0 144 27t89 205h75v-555h-75q-10 119 -64 187q-25 32 -64 43.5t-105 11.5h-150v-426q0 -125 44 -157q43 -30 174 -30h143q144 0 188 48t94.5 145t64.5 143
h72l-27 -418h-1168v71q118 10 147 23q55 25 55 99v409h-480q-84 -138 -138 -247q-54 -110 -63 -136t-9 -49q0 -89 168 -99v-71h-523v71q123 9 193.5 91.5t669.5 1163.5q-44 16 -170 22v71z" />
    <glyph glyph-name="Ccedilla" unicode="&#xc7;" horiz-adv-x="1315" 
d="M834 -282q0 75 -165 75v177q-232 19 -396 191q-195 206 -195 537.5t196 544.5q91 99 215 153t265 54q190 0 352 -99l41 68h80l9 -506h-82q-68 315 -185.5 383.5t-208.5 68.5t-174.5 -43.5t-143.5 -125.5q-126 -174 -125 -465q0 -291 135 -471t345 -180q156 0 267 93
q102 90 150 222l75 -36q-82 -204 -218.5 -294.5t-322.5 -96.5v-67q96 0 142 -23q88 -44 88 -126q0 -113 -121 -160q-99 -36 -278 -36v72q128 0 170 10q85 20 85 80z" />
    <glyph glyph-name="Egrave" unicode="&#xc8;" horiz-adv-x="1338" 
d="M86 0v71q114 8 146 22q56 26 56 100v1020q0 74 -58 101t-144 34v71h1098v-342h-75q-21 75 -87 161t-127 94t-171 8h-223v-564h160q77 0 113 14q100 41 120 218h75v-555h-75q-10 118 -59 180t-174 62h-160v-426q0 -125 44 -157q41 -30 174 -30h112q183 0 228 48t95 144
q50 98 65 144h72l-27 -418h-1178zM377 1785q0 39 25 61t61 22q35 0 61 -14t95 -85q69 -72 227 -223l-31 -39q-117 58 -209 102q-92 43 -140 67q-46 24 -68 48t-21 61z" />
    <glyph glyph-name="Eacute" unicode="&#xc9;" horiz-adv-x="1338" 
d="M86 0v71q114 8 146 22q56 26 56 100v1020q0 74 -58 101t-144 34v71h1098v-342h-75q-21 75 -87 161t-127 94t-171 8h-223v-564h160q77 0 113 14q100 41 120 218h75v-555h-75q-10 118 -59 180t-174 62h-160v-426q0 -125 44 -157q41 -30 174 -30h112q183 0 228 48t95 144
q50 98 65 144h72l-27 -418h-1178zM875 1868q34 0 61 -23t27 -61q0 -62 -92 -109q-45 -23 -137 -67t-209 -101l-31 39q176 168 264 261q57 61 117 61z" />
    <glyph glyph-name="Ecircumflex" unicode="&#xca;" horiz-adv-x="1338" 
d="M86 0v71q114 8 146 22q56 26 56 100v1020q0 74 -58 101t-144 34v71h1098v-342h-75q-21 75 -87 161t-127 94t-171 8h-223v-564h160q77 0 113 14q100 41 120 218h75v-555h-75q-10 118 -59 180t-174 62h-160v-426q0 -125 44 -157q41 -30 174 -30h112q183 0 228 48t95 144
q50 98 65 144h72l-27 -418h-1178zM682 1868q40 0 56 -11t30 -30l236 -288l-48 -32l-279 212l-275 -212l-48 32l234 284q18 21 36 33t58 12z" />
    <glyph glyph-name="Edieresis" unicode="&#xcb;" horiz-adv-x="1338" 
d="M86 0v71q114 8 146 22q56 26 56 100v1020q0 74 -58 101t-144 34v71h1098v-342h-75q-21 75 -87 161t-127 94t-171 8h-223v-564h160q77 0 113 14q100 41 120 218h75v-555h-75q-10 118 -59 180t-174 62h-160v-426q0 -125 44 -157q41 -30 174 -30h112q183 0 228 48t95 144
q50 98 65 144h72l-27 -418h-1178zM581 1730q-1 -51 -35 -87t-83 -36t-83 36t-35 87q1 51 35 87t83 36t83 -36t35 -87zM1031 1730q-1 -51 -35 -87t-83 -36t-83 36t-35 87q1 51 35 87t83 36t83 -36t35 -87z" />
    <glyph glyph-name="Igrave" unicode="&#xcc;" horiz-adv-x="798" 
d="M718 0h-639v71q128 9 155 20q58 22 58 96v1028q0 35 -11 59t-69 46q-58 23 -133 28v71h639v-71q-172 -6 -200 -63q-13 -27 -13 -60v-1027q0 -72 64 -99q67 -26 149 -28v-71zM205 1785q0 39 25 61t61 22q35 0 61 -14t95 -85q69 -72 227 -223l-31 -39q-117 58 -209 102
q-92 43 -140 67q-46 24 -68 48t-21 61z" />
    <glyph glyph-name="Iacute" unicode="&#xcd;" horiz-adv-x="798" 
d="M718 0h-639v71q128 9 155 20q58 22 58 96v1028q0 35 -11 59t-69 46q-58 23 -133 28v71h639v-71q-172 -6 -200 -63q-13 -27 -13 -60v-1027q0 -72 64 -99q67 -26 149 -28v-71zM548 1868q34 0 61 -23t27 -61q0 -62 -92 -109q-44 -23 -136 -67t-210 -101l-31 39
q176 168 264 261q57 61 117 61z" />
    <glyph glyph-name="Icircumflex" unicode="&#xce;" horiz-adv-x="798" 
d="M718 0h-639v71q128 9 155 20q58 22 58 96v1028q0 35 -11 59t-69 46q-58 23 -133 28v71h639v-71q-172 -6 -200 -63q-13 -27 -13 -60v-1027q0 -72 64 -99q67 -26 149 -28v-71zM402 1868q40 0 56 -11t30 -30l236 -288l-48 -32l-279 212l-275 -212l-48 32l234 284
q18 21 36 33t58 12z" />
    <glyph glyph-name="Idieresis" unicode="&#xcf;" horiz-adv-x="798" 
d="M718 0h-639v71q128 9 155 20q58 22 58 96v1028q0 35 -11 59t-69 46q-58 23 -133 28v71h639v-71q-172 -6 -200 -63q-13 -27 -13 -60v-1027q0 -72 64 -99q67 -26 149 -28v-71zM302 1730q0 -51 -34 -87t-84 -36t-84 36t-34 87t34 87t84 36t84 -36t34 -87zM732 1730
q0 -51 -34 -87t-84 -36t-84 36t-34 87t34 87t84 36t84 -36t34 -87z" />
    <glyph glyph-name="Eth" unicode="&#xd0;" horiz-adv-x="1534" 
d="M697 1338q-96 0 -196 -4v-535h301v-98h-301v-458q0 -91 53.5 -126t171.5 -35q242 0 364 166t122 452q0 287 -149 462q-69 82 -169.5 129t-196.5 47zM1457 708q1 -348 -245 -539q-218 -169 -530 -169h-588v71q98 -1 133 15q61 28 61 103v512h-186v98h186v414q0 77 -54 103
t-132 32v71h620q128 0 252 -39.5t216 -106.5q125 -89 196 -233t71 -332z" />
    <glyph glyph-name="Ntilde" unicode="&#xd1;" horiz-adv-x="1571" 
d="M1324 1025v-1039h-87l-860 1161v-732q0 -228 63 -283q23 -22 95 -41t95 -20v-71h-582v71q27 1 91 19t80 32q35 28 48 86t13 196v699q0 109 -64 167q-32 28 -92 52q-62 24 -100 26v71h405l798 -1082v675q0 234 -62 279q-27 19 -91 37t-97 20v71h577v-71q-28 -1 -86 -16
q-58 -16 -88 -36q-56 -38 -56 -271zM632 1695q-34 0 -50 -8q-16 -9 -32 -27t-32 -48t-30 -53l-58 25q26 83 71 138q87 105 172 105q84 0 177 -52q38 -21 64 -36t82 -15t80 30q25 30 57 104l61 -23q-23 -88 -94 -166q-71 -77 -159 -77t-176 51q-35 20 -67 36t-66 16z" />
    <glyph glyph-name="Ograve" unicode="&#xd2;" horiz-adv-x="1524" 
d="M1095 245q107 174 107 469t-114 472q-114 178 -333 178q-218 0 -334 -202q-99 -174 -99 -460t111 -467q111 -180 329 -180q107 0 193 50t140 140zM1244 1251q200 -209 200 -544t-204 -541q-194 -200 -478 -200q-148 0 -274 56t-215 153q-89 99 -141 237t-52 304
q0 324 203 535q193 202 481 202q138 0 264 -53q125 -53 216 -149zM562 1785q0 39 25 61t61 22t62 -14t94 -85q69 -72 227 -223l-31 -39q-118 58 -210 102q-92 43 -138 67t-68 48t-22 61z" />
    <glyph glyph-name="Oacute" unicode="&#xd3;" horiz-adv-x="1524" 
d="M1095 245q107 174 107 469t-114 472q-114 178 -333 178q-218 0 -334 -202q-99 -174 -99 -460t111 -467q111 -180 329 -180q107 0 193 50t140 140zM1244 1251q200 -209 200 -544t-204 -541q-194 -200 -478 -200q-148 0 -274 56t-215 153q-89 99 -141 237t-52 304
q0 324 203 535q193 202 481 202q138 0 264 -53q125 -53 216 -149zM917 1868q34 0 61 -23t27 -61q0 -62 -92 -109q-45 -23 -137 -67t-209 -101l-31 39q176 168 264 261q57 61 117 61z" />
    <glyph glyph-name="Ocircumflex" unicode="&#xd4;" horiz-adv-x="1524" 
d="M1095 245q107 174 107 469t-114 472q-114 178 -333 178q-218 0 -334 -202q-99 -174 -99 -460t111 -467q111 -180 329 -180q107 0 193 50t140 140zM1244 1251q200 -209 200 -544t-204 -541q-194 -200 -478 -200q-148 0 -274 56t-215 153q-89 99 -141 237t-52 304
q0 324 203 535q193 202 481 202q138 0 264 -53q125 -53 216 -149zM764 1868q40 0 56 -11t31 -30l236 -288l-48 -32l-279 212l-275 -212l-48 32l234 284q17 21 35 33t58 12z" />
    <glyph glyph-name="Otilde" unicode="&#xd5;" horiz-adv-x="1524" 
d="M1095 245q107 174 107 469t-114 472q-114 178 -333 178q-218 0 -334 -202q-99 -174 -99 -460t111 -467q111 -180 329 -180q107 0 193 50t140 140zM1244 1251q200 -209 200 -544t-204 -541q-194 -200 -478 -200q-148 0 -274 56t-215 153q-89 99 -141 237t-52 304
q0 324 203 535q193 202 481 202q138 0 264 -53q125 -53 216 -149zM582 1695q-34 0 -50 -8q-16 -9 -32 -27t-32 -48t-30 -53l-58 25q26 83 71 138q87 105 172 105q84 0 177 -52q38 -21 64 -36t82 -15t80 30q25 30 57 104l61 -23q-23 -88 -94 -166q-71 -77 -159 -77t-176 51
q-35 20 -67 36t-66 16z" />
    <glyph glyph-name="Odieresis" unicode="&#xd6;" horiz-adv-x="1524" 
d="M1095 245q107 174 107 469t-114 472q-114 178 -333 178q-218 0 -334 -202q-99 -174 -99 -460t111 -467q111 -180 329 -180q107 0 193 50t140 140zM1244 1251q200 -209 200 -544t-204 -541q-194 -200 -478 -200q-148 0 -274 56t-215 153q-89 99 -141 237t-52 304
q0 324 203 535q193 202 481 202q138 0 264 -53q125 -53 216 -149zM655 1730q-1 -51 -35 -87t-83 -36t-83 36t-35 87q1 51 35 87t83 36t83 -36t35 -87zM1105 1730q-1 -51 -35 -87t-83 -36t-83 36t-35 87q1 51 35 87t83 36t83 -36t35 -87z" />
    <glyph glyph-name="multiply" unicode="&#xd7;" horiz-adv-x="1317" 
d="M1108 199l-89 -89l-361 363l-362 -364l-88 89l364 362l-364 361l89 88l361 -362l362 363l88 -88l-364 -362z" />
    <glyph glyph-name="Oslash" unicode="&#xd8;" horiz-adv-x="1524" 
d="M426 243q116 -189 336 -189t331 184q112 184 112 447q0 262 -65 417zM1098 1176q-118 189 -339 189t-340 -203q-100 -172 -100 -432t66 -415zM272 180q-192 211 -192 535t203 536q94 99 219 151t260 52q247 0 433 -161l151 183l65 -52l-158 -188q191 -213 191 -528
q0 -171 -55.5 -309.5t-148.5 -234.5q-194 -200 -478 -199q-249 0 -433 160l-174 -210l-64 50z" />
    <glyph glyph-name="Ugrave" unicode="&#xd9;" horiz-adv-x="1549" 
d="M1303 1032v-617q0 -223 -178 -348q-148 -101 -334 -101q-248 0 -390 119q-141 119 -141 289v839q0 69 -53 99t-133 36v71h591v-71q-155 -6 -179 -64q-12 -28 -11 -61v-784q0 -146 62 -236q89 -125 292 -125q204 0 300 127q75 99 75 232v582q0 229 -63 274q-35 25 -95 39
t-93 16v71h580v-71q-28 -1 -82 -12q-54 -12 -88 -34q-60 -40 -60 -270zM552 1785q0 39 25 61t61 22t62 -14t94 -85q69 -72 227 -223l-31 -39q-118 58 -210 102q-92 43 -138 67t-68 48t-22 61z" />
    <glyph glyph-name="Uacute" unicode="&#xda;" horiz-adv-x="1549" 
d="M1303 1032v-617q0 -223 -178 -348q-148 -101 -334 -101q-248 0 -390 119q-141 119 -141 289v839q0 69 -53 99t-133 36v71h591v-71q-155 -6 -179 -64q-12 -28 -11 -61v-784q0 -146 62 -236q89 -125 292 -125q204 0 300 127q75 99 75 232v582q0 229 -63 274q-35 25 -95 39
t-93 16v71h580v-71q-28 -1 -82 -12q-54 -12 -88 -34q-60 -40 -60 -270zM964 1868q34 0 61 -23t27 -61q0 -62 -92 -109q-44 -23 -136 -67t-210 -101l-31 39q176 168 264 261q57 61 117 61z" />
    <glyph glyph-name="Ucircumflex" unicode="&#xdb;" horiz-adv-x="1549" 
d="M1303 1032v-617q0 -223 -178 -348q-148 -101 -334 -101q-248 0 -390 119q-141 119 -141 289v839q0 69 -53 99t-133 36v71h591v-71q-155 -6 -179 -64q-12 -28 -11 -61v-784q0 -146 62 -236q89 -125 292 -125q204 0 300 127q75 99 75 232v582q0 229 -63 274q-35 25 -95 39
t-93 16v71h580v-71q-28 -1 -82 -12q-54 -12 -88 -34q-60 -40 -60 -270zM812 1868q40 0 56 -11t31 -30l236 -288l-48 -32l-279 212l-275 -212l-48 32l234 284q17 21 35 33t58 12z" />
    <glyph glyph-name="Udieresis" unicode="&#xdc;" horiz-adv-x="1549" 
d="M1303 1032v-617q0 -223 -178 -348q-148 -101 -334 -101q-248 0 -390 119q-141 119 -141 289v839q0 69 -53 99t-133 36v71h591v-71q-155 -6 -179 -64q-12 -28 -11 -61v-784q0 -146 62 -236q89 -125 292 -125q204 0 300 127q75 99 75 232v582q0 229 -63 274q-35 25 -95 39
t-93 16v71h580v-71q-28 -1 -82 -12q-54 -12 -88 -34q-60 -40 -60 -270zM708 1730q0 -51 -34 -87t-84 -36t-84 36t-34 87t34 87t84 36t84 -36t34 -87zM1158 1730q0 -51 -34 -87t-84 -36t-84 36t-34 87t34 87t84 36t84 -36t34 -87z" />
    <glyph glyph-name="Yacute" unicode="&#xdd;" horiz-adv-x="1260" 
d="M1009 1273q0 59 -125 69q-34 2 -63 6v71h493v-71q-17 -2 -54 -14q-36 -12 -64 -30t-42 -31q-72 -67 -363 -578q-37 -64 -49 -103t-12 -113v-271q0 -76 64 -105q21 -7 75 -19t87 -13v-71h-664v71q131 9 165 23q60 25 60 104v345q0 55 -326 635q-56 96 -117 137
q-44 28 -118 33v71h605v-71q-186 -4 -186 -48q0 -18 36 -85t71 -135t205 -371q322 519 322 564zM875 1868q34 0 61 -23t27 -61q0 -62 -92 -109q-45 -23 -137 -67t-209 -101l-31 39q176 168 264 261q57 61 117 61z" />
    <glyph glyph-name="Thorn" unicode="&#xde;" horiz-adv-x="1258" 
d="M941 733q0 217 -107 266.5t-192 49.5h-141v-638h109q196 0 263.5 99.5t67.5 222.5zM1189 757q0 -216 -152 -325t-367 -109h-169v-130q0 -79 51 -99t152 -23v-71h-606v71q108 9 136 21q54 24 54 101v1022q0 74 -62 101t-130 32v71h597v-71q-154 -5 -173 -47t-19 -76v-93
h252q189 0 312.5 -103t123.5 -272z" />
    <glyph glyph-name="germandbls" unicode="&#xdf;" horiz-adv-x="1123" 
d="M613 1474q-228 0 -228 -414v-1060h-326v66q73 7 94 14q45 16 45 93v833q0 137 21 232.5t95 175.5q127 136 309 136q143 0 245 -76t102 -222q0 -145 -88 -224t-179 -88v-9q129 -27 235 -136t106 -316q0 -206 -125 -348t-309 -142q-70 0 -121 11v81q209 -45 288 115
q58 114 58 298q0 183 -74.5 290t-211.5 107h-20v85h36q90 0 161 67q70 67 70 189q0 121 -50 181.5t-133 60.5z" />
    <glyph glyph-name="agrave" unicode="&#xe0;" horiz-adv-x="1032" 
d="M281 236q-1 -74 43 -112q44 -39 113 -39q123 0 214 116l6 345q-184 -54 -268 -109q-108 -74 -108 -201zM331 -25q-107 0 -179 68q-72 69 -72 179t64 182q44 52 116 80t210 74t185 72v99q1 121 -85 185q-36 28 -94 27q-56 1 -96 -15t-55 -33q-1 -20 9 -59t10 -73t-32 -63
t-84 -29q-52 -1 -76 35t-24 81q0 88 112 158q112 71 218 71t168 -12t113 -48q104 -76 104 -265l-6 -495q0 -70 55 -101q18 -11 114 -11v-64q-105 -38 -163 -38q-157 0 -184 143h-6q-65 -72 -139 -110t-183 -38zM283 1454q0 36 23 60q22 24 60 24t66 -18t79 -101t183 -277
l-38 -32q-103 82 -184 144q-82 62 -120 93q-38 32 -54 52t-15 55z" />
    <glyph glyph-name="aacute" unicode="&#xe1;" horiz-adv-x="1032" 
d="M281 236q-1 -74 43 -112q44 -39 113 -39q123 0 214 116l6 345q-184 -54 -268 -109q-108 -74 -108 -201zM331 -25q-107 0 -179 68q-72 69 -72 179t64 182q44 52 116 80t210 74t185 72v99q1 121 -85 185q-36 28 -94 27q-56 1 -96 -15t-55 -33q-1 -20 9 -59t10 -73t-32 -63
t-84 -29q-52 -1 -76 35t-24 81q0 88 112 158q112 71 218 71t168 -12t113 -48q104 -76 104 -265l-6 -495q0 -70 55 -101q18 -11 114 -11v-64q-105 -38 -163 -38q-157 0 -184 143h-6q-65 -72 -139 -110t-183 -38zM738 1456q0 -34 -18 -58t-59 -58q-43 -34 -123 -95
q-80 -62 -173 -135l-38 32q130 192 182 276q51 84 80 102t66 18t60 -24t23 -58z" />
    <glyph glyph-name="acircumflex" unicode="&#xe2;" horiz-adv-x="1032" 
d="M281 236q-1 -74 43 -112q44 -39 113 -39q123 0 214 116l6 345q-184 -54 -268 -109q-108 -74 -108 -201zM331 -25q-107 0 -179 68q-72 69 -72 179t64 182q44 52 116 80t210 74t185 72v99q1 121 -85 185q-36 28 -94 27q-56 1 -96 -15t-55 -33q-1 -20 9 -59t10 -73t-32 -63
t-84 -29q-52 -1 -76 35t-24 81q0 88 112 158q112 71 218 71t168 -12t113 -48q104 -76 104 -265l-6 -495q0 -70 55 -101q18 -11 114 -11v-64q-105 -38 -163 -38q-157 0 -184 143h-6q-65 -72 -139 -110t-183 -38zM493 1548q41 0 56 -10t29 -31l239 -351l-48 -32l-279 273
l-275 -273l-48 32l237 347q16 25 32 35t57 10z" />
    <glyph glyph-name="atilde" unicode="&#xe3;" horiz-adv-x="1032" 
d="M281 236q-1 -74 43 -112q44 -39 113 -39q123 0 214 116l6 345q-184 -54 -268 -109q-108 -74 -108 -201zM331 -25q-107 0 -179 68q-72 69 -72 179t64 182q44 52 116 80t210 74t185 72v99q1 121 -85 185q-36 28 -94 27q-56 1 -96 -15t-55 -33q-1 -20 9 -59t10 -73t-32 -63
t-84 -29q-52 -1 -76 35t-24 81q0 88 112 158q112 71 218 71t168 -12t113 -48q104 -76 104 -265l-6 -495q0 -70 55 -101q18 -11 114 -11v-64q-105 -38 -163 -38q-157 0 -184 143h-6q-65 -72 -139 -110t-183 -38zM326 1327q-34 0 -50 -8q-16 -9 -32 -27t-32 -48t-30 -53
l-58 25q26 83 71 138q87 105 172 105q84 0 177 -52q38 -21 64 -36t82 -15t80 30q25 30 57 104l61 -23q-23 -88 -94 -166q-71 -77 -159 -77t-176 51q-35 20 -67 36t-66 16z" />
    <glyph glyph-name="adieresis" unicode="&#xe4;" horiz-adv-x="1032" 
d="M281 236q-1 -74 43 -112q44 -39 113 -39q123 0 214 116l6 345q-184 -54 -268 -109q-108 -74 -108 -201zM331 -25q-107 0 -179 68q-72 69 -72 179t64 182q44 52 116 80t210 74t185 72v99q1 121 -85 185q-36 28 -94 27q-56 1 -96 -15t-55 -33q-1 -20 9 -59t10 -73t-32 -63
t-84 -29q-52 -1 -76 35t-24 81q0 88 112 158q112 71 218 71t168 -12t113 -48q104 -76 104 -265l-6 -495q0 -70 55 -101q18 -11 114 -11v-64q-105 -38 -163 -38q-157 0 -184 143h-6q-65 -72 -139 -110t-183 -38zM396 1364q0 -51 -34 -87t-84 -36t-84 36t-34 87t34 87t84 36
t84 -36t34 -87zM826 1364q0 -51 -34 -87t-84 -36t-84 36t-34 87t34 87t84 36t84 -36t34 -87z" />
    <glyph glyph-name="aring" unicode="&#xe5;" horiz-adv-x="1032" 
d="M281 236q-1 -74 43 -112q44 -39 113 -39q123 0 214 116l6 345q-184 -54 -268 -109q-108 -74 -108 -201zM331 -25q-107 0 -179 68q-72 69 -72 179t64 182q44 52 116 80t210 74t185 72v99q1 121 -85 185q-36 28 -94 27q-56 1 -96 -15t-55 -33q-1 -20 9 -59t10 -73t-32 -63
t-84 -29q-52 -1 -76 35t-24 81q0 88 112 158q112 71 218 71t168 -12t113 -48q104 -76 104 -265l-6 -495q0 -70 55 -101q18 -11 114 -11v-64q-105 -38 -163 -38q-157 0 -184 143h-6q-65 -72 -139 -110t-183 -38zM625 1336q1 70 -33 114q-34 45 -98 45t-98 -43
q-34 -44 -35 -114q0 -70 34 -115t98 -45t98 44t34 114zM751 1338q0 -100 -71 -162q-72 -62 -188 -62t-186 61t-71 161q0 100 75 161q75 62 185 62q110 -1 183 -61t73 -160z" />
    <glyph glyph-name="ae" unicode="&#xe6;" horiz-adv-x="1509" 
d="M425 86q131 0 219 108v343q-262 -52 -312.5 -139t-50.5 -160t39.5 -112.5t104.5 -39.5zM1246 631q0 308 -195 308q-100 0 -162.5 -90.5t-63.5 -217.5h421zM783 893q116 121 295 121t277 -122q88 -107 88 -285v-58h-618q0 -465 306 -465q104 0 164 51.5t103 140.5l70 -43
q-58 -123 -159.5 -191t-226.5 -68t-213 45.5t-157 142.5h-6q-77 -100 -163.5 -144t-201.5 -44t-187.5 66.5t-72.5 179.5q0 167 82 216.5t170 85.5t164 57.5t145 42.5v107q0 120 -58 166t-112 46t-93.5 -15.5t-55.5 -32.5q0 -20 9.5 -59t9.5 -73t-31.5 -63t-84.5 -29
t-76.5 35.5t-23.5 81.5q0 86 115 160q104 68 254 68q204 0 288 -121z" />
    <glyph glyph-name="ccedilla" unicode="&#xe7;" horiz-adv-x="930" 
d="M624 -282q0 75 -165 75v185q-182 23 -284.5 162t-102.5 352t127 364q131 158 362 158q125 0 216 -69.5t91 -189.5q0 -50 -24 -88.5t-81 -38.5t-89.5 30t-32.5 71t12 88.5t14 69.5q-30 52 -132 52t-180 -104q-77 -104 -77 -310t82.5 -323.5t216.5 -117.5q97 0 162.5 47
t121.5 141l64 -42q-64 -115 -169.5 -184t-217.5 -72v-73q96 0 142 -23q88 -44 88 -126q0 -113 -121 -160q-99 -36 -278 -36v72q128 0 170 10q85 20 85 80z" />
    <glyph glyph-name="egrave" unicode="&#xe8;" horiz-adv-x="990" 
d="M727 608q0 331 -206 331q-105 1 -175 -87t-75 -244h456zM551 -26q-238 0 -359 149q-120 149 -120 366q0 216 123 371q123 154 329 154q205 0 303 -119q97 -119 97 -305v-66h-653q0 -310 179 -406q63 -34 151 -34q89 0 153 42t124 149l70 -43q-62 -118 -166 -188t-231 -70
zM284 1454q0 36 23 60t61 24t65 -18q28 -18 79 -101t183 -277l-38 -32q-103 82 -184 144t-119 93q-38 32 -54 52t-16 55z" />
    <glyph glyph-name="eacute" unicode="&#xe9;" horiz-adv-x="990" 
d="M727 608q0 331 -206 331q-105 1 -175 -87t-75 -244h456zM551 -26q-238 0 -359 149q-120 149 -120 366q0 216 123 371q123 154 329 154q205 0 303 -119q97 -119 97 -305v-66h-653q0 -310 179 -406q63 -34 151 -34q89 0 153 42t124 149l70 -43q-62 -118 -166 -188t-231 -70
zM763 1456q1 -34 -17 -58t-60 -58t-122 -95q-80 -62 -174 -135l-38 32q130 192 182 276q51 84 80 102t66 18t60 -24t23 -58z" />
    <glyph glyph-name="ecircumflex" unicode="&#xea;" horiz-adv-x="990" 
d="M727 608q0 331 -206 331q-105 1 -175 -87t-75 -244h456zM551 -26q-238 0 -359 149q-120 149 -120 366q0 216 123 371q123 154 329 154q205 0 303 -119q97 -119 97 -305v-66h-653q0 -310 179 -406q63 -34 151 -34q89 0 153 42t124 149l70 -43q-62 -118 -166 -188t-231 -70
zM523 1542q41 0 56 -10t29 -31l239 -351l-48 -32l-279 273l-275 -273l-48 32l237 347q16 25 32 35t57 10z" />
    <glyph glyph-name="edieresis" unicode="&#xeb;" horiz-adv-x="990" 
d="M727 608q0 331 -206 331q-105 1 -175 -87t-75 -244h456zM551 -26q-238 0 -359 149q-120 149 -120 366q0 216 123 371q123 154 329 154q205 0 303 -119q97 -119 97 -305v-66h-653q0 -310 179 -406q63 -34 151 -34q89 0 153 42t124 149l70 -43q-62 -118 -166 -188t-231 -70
zM432 1364q0 -51 -34 -87t-84 -36t-84 36t-34 87t34 87t84 36t84 -36t34 -87zM862 1364q0 -51 -34 -87t-84 -36t-84 36t-34 87t34 87t84 36t84 -36t34 -87z" />
    <glyph glyph-name="igrave" unicode="&#xec;" horiz-adv-x="600" 
d="M551 0h-477v66l48 4t47 10q50 16 50 88v609q0 122 -176 134v65l348 22l14 -14v-804q0 -71 56 -92q45 -19 90 -22v-66zM41 1454q0 36 23 60q22 24 60 24t66 -18t79 -101t183 -277l-38 -32q-103 82 -184 144q-82 62 -120 93q-38 32 -54 52t-15 55z" />
    <glyph glyph-name="iacute" unicode="&#xed;" horiz-adv-x="600" 
d="M551 0h-477v66l48 4t47 10q50 16 50 88v609q0 122 -176 134v65l348 22l14 -14v-804q0 -71 56 -92q45 -19 90 -22v-66zM511 1456q1 -34 -17 -58t-60 -58t-122 -95q-80 -62 -174 -135l-38 32q130 192 182 276q51 84 80 102t66 18t60 -24t23 -58z" />
    <glyph glyph-name="icircumflex" unicode="&#xee;" horiz-adv-x="600" 
d="M262 1542q54 0 70.5 -16t23.5 -29l204 -347l-48 -29l-244 270l-240 -270l-48 29l202 343q26 49 80 49zM551 0h-477v66q23 2 47.5 4t47.5 10q50 16 50 88v609q0 122 -176 134v65l348 22l14 -14v-804q0 -71 56 -92q45 -19 90 -22v-66z" />
    <glyph glyph-name="idieresis" unicode="&#xef;" horiz-adv-x="600" 
d="M216 1364q0 -51 -33 -87t-82 -36t-82 36t-33 87t33 87t82 36t82 -36t33 -87zM566 1364q0 -51 -33 -87t-82 -36t-82 36t-33 87t33 87t82 36t82 -36t33 -87zM551 0h-477v66q23 2 47.5 4t47.5 10q50 16 50 88v609q0 122 -176 134v65l348 22l14 -14v-804q0 -71 56 -92
q45 -19 90 -22v-66z" />
    <glyph glyph-name="eth" unicode="&#xf0;" horiz-adv-x="1089" 
d="M735 797.5q-70 108.5 -200 108.5t-202 -129q-56 -102 -56 -304t70 -315t201 -113t198 145q59 124 59 311q0 188 -70 296.5zM1014 611q0 -294 -128 -468t-354 -174q-188 0 -325 139t-137 369t127 369t327 139q94 0 165.5 -42.5t105.5 -96.5l8 2q-26 220 -174 435
l-231 -138l-50 78l228 131q-55 71 -166 146l50 56q46 -23 110 -67t103 -81l203 123l51 -78l-190 -110q137 -146 207 -323t70 -409z" />
    <glyph glyph-name="ntilde" unicode="&#xf1;" horiz-adv-x="1210" 
d="M1161 0h-483v66q22 2 50 4t51 10q50 16 50 88v507q1 105 -49 162t-112 57q-103 0 -184 -57q-48 -34 -81 -92v-567q0 -100 152 -112v-66h-483v66l48 4t47 10q50 16 50 88v609q0 71 -55 109q-32 20 -101 25v65l328 22l14 -14v-139h5q81 81 123 109q91 59 221 59
q130 -1 198 -89t68 -235v-513q0 -68 47 -87t96 -23v-66zM424 1327q-34 0 -50 -8q-16 -9 -32 -27t-32 -48t-30 -53l-58 25q26 83 71 138q87 105 172 105q84 0 177 -52q38 -21 64 -36t82 -15t80 30q25 30 57 104l61 -23q-23 -88 -94 -166q-71 -77 -159 -77t-176 51
q-35 20 -67 36t-66 16z" />
    <glyph glyph-name="ograve" unicode="&#xf2;" horiz-adv-x="1104" 
d="M826 501q0 295 -144 399q-52 38 -128 38q-146 0 -219 -142q-58 -111 -58 -290q1 -318 151 -424q52 -36 127 -36q125 0 198 121t73 334zM901 122q-132 -152 -343 -152t-350 143q-138 143 -138 375t134 379t348 147q212 0 346 -140t135 -369q0 -231 -132 -383zM375 1454
q0 36 23 60q22 24 60 24t66 -18t79 -101t183 -277l-38 -32q-103 82 -184 144q-82 62 -120 93q-38 32 -54 52t-15 55z" />
    <glyph glyph-name="oacute" unicode="&#xf3;" horiz-adv-x="1104" 
d="M826 501q0 295 -144 399q-52 38 -128 38q-146 0 -219 -142q-58 -111 -58 -290q1 -318 151 -424q52 -36 127 -36q125 0 198 121t73 334zM901 122q-132 -152 -343 -152t-350 143q-138 143 -138 375t134 379t348 147q212 0 346 -140t135 -369q0 -231 -132 -383zM743 1456
q1 -34 -17 -58t-60 -58t-122 -95q-80 -62 -174 -135l-38 32q130 192 182 276q51 84 80 102t66 18t60 -24t23 -58z" />
    <glyph glyph-name="ocircumflex" unicode="&#xf4;" horiz-adv-x="1104" 
d="M826 501q0 295 -144 399q-52 38 -128 38q-146 0 -219 -142q-58 -111 -58 -290q1 -318 151 -424q52 -36 127 -36q125 0 198 121t73 334zM901 122q-132 -152 -343 -152t-350 143q-138 143 -138 375t134 379t348 147q212 0 346 -140t135 -369q0 -231 -132 -383zM560 1542
q41 0 56 -10t29 -31l239 -351l-48 -32l-279 273l-275 -273l-48 32l237 347q17 25 33 35t56 10z" />
    <glyph glyph-name="otilde" unicode="&#xf5;" horiz-adv-x="1104" 
d="M826 501q0 295 -144 399q-52 38 -128 38q-146 0 -219 -142q-58 -111 -58 -290q1 -318 151 -424q52 -36 127 -36q125 0 198 121t73 334zM901 122q-132 -152 -343 -152t-350 143q-138 143 -138 375t134 379t348 147q212 0 346 -140t135 -369q0 -231 -132 -383zM380 1327
q-34 0 -50 -8q-16 -9 -32 -27t-33 -48q-16 -30 -30 -53l-58 25q26 83 71 138q87 105 172 105q84 0 177 -52q38 -21 64 -36t82 -15t80 30q25 30 57 104l61 -23q-23 -88 -94 -166q-71 -77 -159 -77t-176 51q-34 20 -66 36t-66 16z" />
    <glyph glyph-name="odieresis" unicode="&#xf6;" horiz-adv-x="1104" 
d="M826 501q0 295 -144 399q-52 38 -128 38q-146 0 -219 -142q-58 -111 -58 -290q1 -318 151 -424q52 -36 127 -36q125 0 198 121t73 334zM901 122q-132 -152 -343 -152t-350 143q-138 143 -138 375t134 379t348 147q212 0 346 -140t135 -369q0 -231 -132 -383zM462 1364
q0 -51 -34 -87t-84 -36t-84 36t-34 87t34 87t84 36t84 -36t34 -87zM892 1364q0 -51 -34 -87t-84 -36t-84 36t-34 87t34 87t84 36t84 -36t34 -87z" />
    <glyph glyph-name="divide" unicode="&#xf7;" horiz-adv-x="1317" 
d="M788 153q0 -53 -38 -90t-91 -37t-91 37t-38 90t38 91t91 38t91 -38t38 -91zM1173 497h-1029v125h1029v-125zM788 966q0 -53 -38 -91t-91 -38t-91 38t-38 91t38 90t91 37t91 -37t38 -90z" />
    <glyph glyph-name="oslash" unicode="&#xf8;" horiz-adv-x="1104" 
d="M340 179q73 -133 212 -133t208 131q70 131 70 300t-34 271zM763 815q-70 123 -213 123t-218 -142q-59 -112 -59 -275t34 -273zM901 122q-132 -152 -359 -152q-159 0 -287 105q-97 -117 -126 -156l-58 43l133 163q-134 149 -134 372t134.5 370t352.5 147q167 0 289 -97
l111 141l58 -44l-118 -145q136 -147 136 -371t-132 -376z" />
    <glyph glyph-name="ugrave" unicode="&#xf9;" horiz-adv-x="1178" 
d="M793 135h-6q-72 -75 -120 -103q-48 -29 -90 -43t-119 -14q-132 -1 -200 85t-68 249v472q0 66 -53 103q-30 20 -102 25v65l329 24l15 -14v-685q0 -107 48 -161t109 -54q136 0 224 102q20 24 31 43v559q0 64 -53 102q-21 14 -133 19v65l358 24l15 -14v-783q0 -63 53 -99
q27 -17 98 -19v-65l-321 -22l-15 14v125zM358 1454q0 36 23 60t61 24t65 -18q28 -18 79 -101t183 -277l-38 -32q-103 82 -184 144t-119 93q-38 32 -54 52t-16 55z" />
    <glyph glyph-name="uacute" unicode="&#xfa;" horiz-adv-x="1178" 
d="M793 135h-6q-72 -75 -120 -103q-48 -29 -90 -43t-119 -14q-132 -1 -200 85t-68 249v472q0 66 -53 103q-30 20 -102 25v65l329 24l15 -14v-685q0 -107 48 -161t109 -54q136 0 224 102q20 24 31 43v559q0 64 -53 102q-21 14 -133 19v65l358 24l15 -14v-783q0 -63 53 -99
q27 -17 98 -19v-65l-321 -22l-15 14v125zM808 1456q0 -34 -18 -58t-59 -58q-43 -34 -123 -95q-80 -62 -173 -135l-38 32q130 192 182 276q51 84 80 102t66 18t60 -24t23 -58z" />
    <glyph glyph-name="ucircumflex" unicode="&#xfb;" horiz-adv-x="1178" 
d="M793 135h-6q-72 -75 -120 -103q-48 -29 -90 -43t-119 -14q-132 -1 -200 85t-68 249v472q0 66 -53 103q-30 20 -102 25v65l329 24l15 -14v-685q0 -107 48 -161t109 -54q136 0 224 102q20 24 31 43v559q0 64 -53 102q-21 14 -133 19v65l358 24l15 -14v-783q0 -63 53 -99
q27 -17 98 -19v-65l-321 -22l-15 14v125zM574 1542q41 0 56 -10t29 -31l239 -351l-48 -32l-279 273l-275 -273l-48 32l237 347q17 25 33 35t56 10z" />
    <glyph glyph-name="udieresis" unicode="&#xfc;" horiz-adv-x="1178" 
d="M793 135h-6q-72 -75 -120 -103q-48 -29 -90 -43t-119 -14q-132 -1 -200 85t-68 249v472q0 66 -53 103q-30 20 -102 25v65l329 24l15 -14v-685q0 -107 48 -161t109 -54q136 0 224 102q20 24 31 43v559q0 64 -53 102q-21 14 -133 19v65l358 24l15 -14v-783q0 -63 53 -99
q27 -17 98 -19v-65l-321 -22l-15 14v125zM476 1364q0 -51 -34 -87t-84 -36t-84 36t-34 87t34 87t84 36t84 -36t34 -87zM906 1364q0 -51 -34 -87t-84 -36t-84 36t-34 87t34 87t84 36t84 -36t34 -87z" />
    <glyph glyph-name="yacute" unicode="&#xfd;" horiz-adv-x="1008" 
d="M-3 -321q-1 49 27 81t64 31q78 0 133 -84q17 -26 27 -43q50 27 120 141t100 200q-159 398 -333 811q-19 46 -64 72t-90 32v66h450v-70q-30 0 -72 -12t-42 -27q1 -21 105 -271t147 -362q45 108 93 222t82 202t47 120q13 34 13 59t-46 47t-86 28v64h366v-62q-30 -4 -79 -34
t-73 -84q-120 -276 -212 -503t-148 -351q-105 -233 -201 -325q-78 -71 -158 -71q-81 0 -125 37t-45 86zM759 1456q1 -34 -17 -58t-60 -58t-122 -95q-80 -62 -174 -135l-38 32q130 192 182 276q51 84 80 102t66 18t60 -24t23 -58z" />
    <glyph glyph-name="thorn" unicode="&#xfe;" horiz-adv-x="1145" 
d="M576 902q-123 0 -216 -110v-583q20 -60 63 -95q43 -36 79 -51.5t90 -15.5q120 0 195 117q76 117 76 323q0 278 -105 346.5t-182 68.5zM360 41v-296q0 -73 59 -96t140 -26v-67h-551v67q85 5 113 15q53 18 53 94v1584q-8 86 -56 119q-27 18 -137 26v64l365 23l14 -15v-656
l6 -4q52 60 129 100t161 40q170 0 293 -145t123 -375q0 -229 -140 -374t-325 -145q-150 0 -239 67h-8z" />
    <glyph glyph-name="ydieresis" unicode="&#xff;" horiz-adv-x="1008" 
d="M-3 -321q-1 49 27 81t64 31q78 0 133 -84q17 -26 27 -43q50 27 120 141t100 200q-159 398 -333 811q-19 46 -64 72t-90 32v66h450v-70q-30 0 -72 -12t-42 -27q1 -21 105 -271t147 -362q45 108 93 222t82 202t47 120q13 34 13 59t-46 47t-86 28v64h366v-62q-30 -4 -79 -34
t-73 -84q-120 -276 -212 -503t-148 -351q-105 -233 -201 -325q-78 -71 -158 -71q-81 0 -125 37t-45 86zM446 1364q0 -51 -34 -87t-84 -36t-84 36t-34 87t34 87t84 36t84 -36t34 -87zM876 1364q0 -51 -34 -87t-84 -36t-84 36t-34 87t34 87t84 36t84 -36t34 -87z" />
    <glyph glyph-name="Amacron" unicode="&#x100;" horiz-adv-x="1374" 
d="M849 580l-215 550l-211 -550h426zM288 159q0 -40 63 -62t142 -26v-71h-534v71q129 9 191 93q22 30 43 82q107 267 236 600t230 593h80l473 -1224q27 -69 82 -105q56 -36 127 -39v-71h-591v71q181 12 181 57q0 25 -8 45l-118 318h-497q-100 -250 -100 -332zM1043 1645
h-686v128h686v-128z" />
    <glyph glyph-name="amacron" unicode="&#x101;" horiz-adv-x="1032" 
d="M281 236q-1 -74 43 -112q44 -39 113 -39q123 0 214 116l6 345q-184 -54 -268 -109q-108 -74 -108 -201zM331 -25q-107 0 -179 68q-72 69 -72 179t64 182q44 52 116 80t210 74t185 72v99q1 121 -85 185q-36 28 -94 27q-56 1 -96 -15t-55 -33q-1 -20 9 -59t10 -73t-32 -63
t-84 -29q-52 -1 -76 35t-24 81q0 88 112 158q112 71 218 71t168 -12t113 -48q104 -76 104 -265l-6 -495q0 -70 55 -101q18 -11 114 -11v-64q-105 -38 -163 -38q-157 0 -184 143h-6q-65 -72 -139 -110t-183 -38zM846 1291h-686v128h686v-128z" />
    <glyph glyph-name="Abreve" unicode="&#x102;" horiz-adv-x="1374" 
d="M849 580l-215 550l-211 -550h426zM288 159q0 -40 63 -62t142 -26v-71h-534v71q129 9 191 93q22 30 43 82q107 267 236 600t230 593h80l473 -1224q27 -69 82 -105q56 -36 127 -39v-71h-591v71q181 12 181 57q0 25 -8 45l-118 318h-497q-100 -250 -100 -332zM698 1678
q114 0 174 48t89 141l55 -16q-54 -321 -316 -321q-269 0 -320 321l55 16q29 -93 89 -141t174 -48z" />
    <glyph glyph-name="abreve" unicode="&#x103;" horiz-adv-x="1032" 
d="M281 236q-1 -74 43 -112q44 -39 113 -39q123 0 214 116l6 345q-184 -54 -268 -109q-108 -74 -108 -201zM331 -25q-107 0 -179 68q-72 69 -72 179t64 182q44 52 116 80t210 74t185 72v99q1 121 -85 185q-36 28 -94 27q-56 1 -96 -15t-55 -33q-1 -20 9 -59t10 -73t-32 -63
t-84 -29q-52 -1 -76 35t-24 81q0 88 112 158q112 71 218 71t168 -12t113 -48q104 -76 104 -265l-6 -495q0 -70 55 -101q18 -11 114 -11v-64q-105 -38 -163 -38q-157 0 -184 143h-6q-65 -72 -139 -110t-183 -38zM493 1127q-261 0 -312 368l55 12q33 -109 72 -152
q40 -43 80 -61t103 -17q117 0 172 59t89 171l55 -12q-27 -189 -105 -279t-209 -89z" />
    <glyph glyph-name="Aogonek" unicode="&#x104;" horiz-adv-x="1374" 
d="M849 580l-215 550l-211 -550h426zM940 -250q0 129 174 250h-284v71q181 12 181 57q0 25 -8 45l-118 318h-497q-100 -250 -100 -332q0 -40 63 -62t142 -26v-71h-534v71q129 10 171 66.5t63 108.5q107 267 236 600t230 593h80l473 -1224q27 -69 82 -105q56 -36 127 -39v-71
h-230q-93 -89 -93 -217q0 -158 224 -155v-72h-115q-128 0 -197.5 52.5t-69.5 141.5z" />
    <glyph glyph-name="aogonek" unicode="&#x105;" horiz-adv-x="1032" 
d="M281 236q0 -74 43.5 -112.5t112.5 -38.5q123 0 214 116l6 345q-184 -54 -268 -109q-108 -74 -108 -201zM706 -217q0 -158 224 -155v-72h-115q-128 0 -197.5 52.5t-69.5 141.5q0 132 184 257q-58 37 -73 116h-6q-65 -72 -139.5 -110t-182.5 -38t-179.5 68.5t-71.5 178.5
t64 182q44 52 116 80t209.5 74t185.5 72v99q0 120 -61.5 166t-117.5 46t-95.5 -15.5t-55.5 -32.5q0 -20 9.5 -59t9.5 -73t-31.5 -63t-84.5 -29t-76.5 35.5t-23.5 80.5q0 88 112 158q112 71 218 71q105 0 167.5 -11t113.5 -49q104 -76 104 -265l-6 -495q0 -70 55 -101
q18 -11 114 -11v-64q-105 -38 -150 -38t-69 6q-81 -87 -81 -203z" />
    <glyph glyph-name="Cacute" unicode="&#x106;" horiz-adv-x="1315" 
d="M754 1450q190 0 352 -99l41 68h80l9 -506h-82q-68 315 -237 413q-66 38 -157 39q-90 0 -174 -43q-84 -44 -144 -126q-126 -174 -125 -465q0 -291 135 -471t345 -180q156 0 267 93q102 90 150 222l75 -36q-86 -211 -228 -301t-338 -91q-264 0 -455 200q-190 200 -190 531
q0 332 196 545q91 99 215 153t265 54zM883 1868q34 0 61 -23t27 -61q0 -62 -92 -109q-45 -23 -137 -67t-209 -101l-31 39q176 168 264 261q57 61 117 61z" />
    <glyph glyph-name="cacute" unicode="&#x107;" horiz-adv-x="930" 
d="M278 525q0 -205 82 -323t217 -118q97 0 163 47t121 141l64 -42q-66 -118 -174 -187t-223 -69q-214 0 -335 142t-121 365t127 375q131 158 362 158q125 0 216 -70t91 -189q0 -51 -24 -89t-81 -38t-89 30t-33 71q0 41 12 89t14 69q-30 52 -132 52t-180 -104
q-77 -104 -77 -310zM721 1456q1 -34 -17 -58t-60 -58t-122 -95q-80 -62 -174 -135l-38 32q130 192 182 276q51 84 80 102t66 18t60 -24t23 -58z" />
    <glyph glyph-name="Ccircumflex" unicode="&#x108;" horiz-adv-x="1315" 
d="M754 1450q190 0 352 -99l41 68h80l9 -506h-82q-68 315 -237 413q-66 38 -157 39q-90 0 -174 -43q-84 -44 -144 -126q-126 -174 -125 -465q0 -291 135 -471t345 -180q156 0 267 93q102 90 150 222l75 -36q-86 -211 -228 -301t-338 -91q-264 0 -455 200q-190 200 -190 531
q0 332 196 545q91 99 215 153t265 54zM740 1868q40 0 56 -11t30 -30l236 -288l-48 -32l-279 212l-275 -212l-48 32l234 284q18 21 36 33t58 12z" />
    <glyph glyph-name="ccircumflex" unicode="&#x109;" horiz-adv-x="930" 
d="M278 525q0 -205 82 -323t217 -118q97 0 163 47t121 141l64 -42q-66 -118 -174 -187t-223 -69q-214 0 -335 142t-121 365t127 375q131 158 362 158q125 0 216 -70t91 -189q0 -51 -24 -89t-81 -38t-89 30t-33 71q0 41 12 89t14 69q-30 52 -132 52t-180 -104
q-77 -104 -77 -310zM523 1542q41 0 56 -10t29 -31l239 -351l-48 -32l-279 273l-275 -273l-48 32l237 347q16 25 32 35t57 10z" />
    <glyph glyph-name="Cdotaccent" unicode="&#x10a;" horiz-adv-x="1315" 
d="M754 1450q190 0 352 -99l41 68h80l9 -506h-82q-68 315 -237 413q-66 38 -157 39q-90 0 -174 -43q-84 -44 -144 -126q-126 -174 -125 -465q0 -291 135 -471t345 -180q156 0 267 93q102 90 150 222l75 -36q-86 -211 -228 -301t-338 -91q-264 0 -455 200q-190 200 -190 531
q0 332 196 545q91 99 215 153t265 54zM877 1735q1 -53 -37 -95t-91 -42t-91 39t-37 93q-1 54 37 94t92 40t90 -38t37 -91z" />
    <glyph glyph-name="cdotaccent" unicode="&#x10b;" horiz-adv-x="930" 
d="M278 525q0 -205 82 -323t217 -118q97 0 163 47t121 141l64 -42q-66 -118 -174 -187t-223 -69q-214 0 -335 142t-121 365t127 375q131 158 362 158q125 0 216 -70t91 -189q0 -51 -24 -89t-81 -38t-89 30t-33 71q0 41 12 89t14 69q-30 52 -132 52t-180 -104
q-77 -104 -77 -310zM646 1384q0 -54 -38 -96t-90 -41q-52 0 -90 39t-38 93t38 94t91 40q55 1 91 -37t36 -92z" />
    <glyph glyph-name="Ccaron" unicode="&#x10c;" horiz-adv-x="1315" 
d="M754 1450q190 0 352 -99l41 68h80l9 -506h-82q-68 315 -237 413q-66 38 -157 39q-90 0 -174 -43q-84 -44 -144 -126q-126 -174 -125 -465q0 -291 135 -471t345 -180q156 0 267 93q102 90 150 222l75 -36q-86 -211 -228 -301t-338 -91q-264 0 -455 200q-190 200 -190 531
q0 332 196 545q91 99 215 153t265 54zM752 1507q-44 0 -60 11t-31 30l-236 288l48 32l279 -214l275 214l48 -32l-234 -284q-21 -26 -33 -36t-56 -9z" />
    <glyph glyph-name="ccaron" unicode="&#x10d;" horiz-adv-x="930" 
d="M278 525q0 -205 82 -323t217 -118q97 0 163 47t121 141l64 -42q-66 -118 -174 -187t-223 -69q-214 0 -335 142t-121 365t127 375q131 158 362 158q125 0 216 -70t91 -189q0 -51 -24 -89t-81 -38t-89 30t-33 71q0 41 12 89t14 69q-30 52 -132 52t-180 -104
q-77 -104 -77 -310zM523 1118q-45 0 -59 11t-30 34l-237 347l48 32l275 -273l279 273l48 -32l-239 -351q-17 -21 -29 -31t-56 -10z" />
    <glyph glyph-name="Dcaron" unicode="&#x10e;" horiz-adv-x="1534" 
d="M697 1338q-96 0 -196 -4v-1091q0 -91 53 -126q54 -35 172 -35q242 0 364 166t122 452q0 287 -149 462q-69 82 -169 129t-197 47zM1457 708q1 -348 -245 -539q-218 -169 -530 -169h-588v71q98 -1 133 15q61 28 61 103v1024q0 77 -54 103t-132 32v71h620q128 1 252 -39
t216 -107q125 -89 196 -233t71 -332zM713 1507q-45 0 -61 11t-30 30l-236 288l48 32l279 -214l275 214l48 -32l-234 -284q-20 -26 -32 -36t-57 -9z" />
    <glyph glyph-name="dcaron" unicode="&#x10f;" horiz-adv-x="1362" 
d="M561 937q-119 0 -200 -120q-80 -121 -80 -313t70 -301q78 -124 211 -124t229 112v577q-19 63 -60 100q-77 69 -170 69zM791 1294q0 91 -49 125t-182 44v62l403 23l15 -15v-1330q0 -66 53 -101q25 -16 121 -19v-65l-344 -22l-15 14v92l-8 2q-53 -58 -129 -95t-158 -37
t-162 38q-78 38 -136 106q-128 149 -128 372q0 224 136 375q136 150 357 150q116 0 226 -62v343zM1225 1544q159 0 159 -204q0 -162 -185 -288q-48 -32 -77 -48l-34 59q103 61 133 94q30 35 46 67t20 85h-48q-63 0 -98 32t-35 81q0 50 32 86t87 36z" />
    <glyph glyph-name="Dcroat" unicode="&#x110;" horiz-adv-x="1534" 
d="M697 1338q-96 0 -196 -4v-535h301v-98h-301v-458q0 -91 53 -126q54 -35 172 -35q242 0 364 166t122 452q0 287 -149 462q-69 82 -169 129t-197 47zM1457 708q1 -348 -245 -539q-218 -169 -530 -169h-588v71q98 -1 133 15q61 28 61 103v512h-186v98h186v414q0 77 -54 103
t-132 32v71h620q128 1 252 -39t216 -107q125 -89 196 -233t71 -332z" />
    <glyph glyph-name="dcroat" unicode="&#x111;" horiz-adv-x="1176" 
d="M561 937q-119 0 -200 -120q-80 -121 -80 -313t70 -301q78 -124 211 -124t229 112v577q-19 63 -60 100q-77 69 -170 69zM791 1170h-361v85h362v39q0 90 -49 125t-183 44v62l403 23l15 -15v-278h217v-85h-217v-967q0 -66 53 -101q25 -16 121 -19v-65l-344 -22l-15 14v92
l-8 2q-52 -58 -128.5 -95t-158.5 -37t-161 38t-137 106q-128 149 -128 372q0 224 136 375q136 150 357 150q116 0 226 -62v219z" />
    <glyph glyph-name="Emacron" unicode="&#x112;" horiz-adv-x="1338" 
d="M86 0v71q114 8 146 22q56 26 56 100v1020q0 74 -58 101t-144 34v71h1098v-342h-75q-21 75 -87 161t-127 94t-171 8h-223v-564h160q77 0 113 14q100 41 120 218h75v-555h-75q-10 118 -59 180t-174 62h-160v-426q0 -125 44 -157q41 -30 174 -30h112q183 0 228 48t95 144
q50 98 65 144h72l-27 -418h-1178zM1062 1657h-686v128h686v-128z" />
    <glyph glyph-name="emacron" unicode="&#x113;" horiz-adv-x="990" 
d="M727 608q0 331 -206 331q-105 1 -175 -87t-75 -244h456zM551 -26q-238 0 -359 149q-120 149 -120 366q0 216 123 371q123 154 329 154q205 0 303 -119q97 -119 97 -305v-66h-653q0 -310 179 -406q63 -34 151 -34q89 0 153 42t124 149l70 -43q-62 -118 -166 -188t-231 -70
zM862 1291h-686v128h686v-128z" />
    <glyph glyph-name="Ebreve" unicode="&#x114;" horiz-adv-x="1338" 
d="M86 0v71q114 8 146 22q56 26 56 100v1020q0 74 -58 101t-144 34v71h1098v-342h-75q-21 75 -87 161t-127 94t-171 8h-223v-564h160q77 0 113 14q100 41 120 218h75v-555h-75q-10 118 -59 180t-174 62h-160v-426q0 -125 44 -157q41 -30 174 -30h112q183 0 228 48t95 144
q50 98 65 144h72l-27 -418h-1178zM719 1678q114 0 174 48t89 141l55 -16q-55 -321 -317 -321q-269 0 -319 321l55 16q29 -93 89 -141t174 -48z" />
    <glyph glyph-name="ebreve" unicode="&#x115;" horiz-adv-x="990" 
d="M727 608q0 331 -206 331q-105 1 -175 -87t-75 -244h456zM551 -26q-238 0 -359 149q-120 149 -120 366q0 216 123 371q123 154 329 154q205 0 303 -119q97 -119 97 -305v-66h-653q0 -310 179 -406q63 -34 151 -34q89 0 153 42t124 149l70 -43q-62 -118 -166 -188t-231 -70
zM518 1127q-261 0 -312 368l55 12q33 -109 72 -152t79 -61t104 -17q117 0 172 59t89 171l55 -12q-28 -189 -106 -279t-208 -89z" />
    <glyph glyph-name="Edotaccent" unicode="&#x116;" horiz-adv-x="1338" 
d="M86 0v71q114 8 146 22q56 26 56 100v1020q0 74 -58 101t-144 34v71h1098v-342h-75q-21 75 -87 161t-127 94t-171 8h-223v-564h160q77 0 113 14q100 41 120 218h75v-555h-75q-10 118 -59 180t-174 62h-160v-426q0 -125 44 -157q41 -30 174 -30h112q183 0 228 48t95 144
q50 98 65 144h72l-27 -418h-1178zM803 1735q1 -53 -37 -95t-91 -42t-91 39t-37 93q-1 54 37 94t92 40t90 -38t37 -91z" />
    <glyph glyph-name="edotaccent" unicode="&#x117;" horiz-adv-x="990" 
d="M727 608q0 331 -206 331q-105 1 -175 -87t-75 -244h456zM551 -26q-238 0 -359 149q-120 149 -120 366q0 216 123 371q123 154 329 154q205 0 303 -119q97 -119 97 -305v-66h-653q0 -310 179 -406q63 -34 151 -34q89 0 153 42t124 149l70 -43q-62 -118 -166 -188t-231 -70
zM647 1384q1 -54 -37 -96t-91 -41q-53 0 -91 39t-37 93q-1 54 37 94t92 40q54 1 90 -37t37 -92z" />
    <glyph glyph-name="Eogonek" unicode="&#x118;" horiz-adv-x="1338" 
d="M820 -250q0 129 174 250h-908v71q114 8 146 22q56 26 56 100v1020q0 74 -58 101t-144 34v71h1098v-342h-75q-20 76 -86.5 161.5t-127.5 93.5t-171 8h-223v-564h160q77 0 144.5 27.5t88.5 204.5h75v-555h-75q-10 118 -59 180t-174 62h-160v-426q0 -125 42.5 -156
t175.5 -31h147q148 0 193 48t95.5 145t64.5 143h72l-27 -418h-193q-93 -89 -93 -217q0 -158 224 -155v-72h-115q-128 0 -197.5 52.5t-69.5 141.5z" />
    <glyph glyph-name="eogonek" unicode="&#x119;" horiz-adv-x="990" 
d="M727 608q0 331 -206 331q-105 0 -174.5 -87.5t-75.5 -243.5h456zM543 -25q-231 0 -351 149t-120 365t123 371q123 154 329 154q205 0 303 -119q97 -119 97 -305v-66h-653q0 -311 121 -375.5t209 -64.5t152.5 41.5t124.5 149.5l70 -43q-74 -141 -198 -207
q-123 -102 -123 -242q0 -158 224 -155v-72h-115q-128 0 -197.5 52.5t-69.5 141.5q0 115 146 230q-28 -5 -72 -5z" />
    <glyph glyph-name="Ecaron" unicode="&#x11a;" horiz-adv-x="1338" 
d="M86 0v71q114 8 146 22q56 26 56 100v1020q0 74 -58 101t-144 34v71h1098v-342h-75q-21 75 -87 161t-127 94t-171 8h-223v-564h160q77 0 113 14q100 41 120 218h75v-555h-75q-10 118 -59 180t-174 62h-160v-426q0 -125 44 -157q41 -30 174 -30h112q183 0 228 48t95 144
q50 98 65 144h72l-27 -418h-1178zM695 1507q-45 0 -61 11t-30 30l-236 288l48 32l279 -214l275 214l48 -32l-234 -284q-20 -26 -32 -36t-57 -9z" />
    <glyph glyph-name="ecaron" unicode="&#x11b;" horiz-adv-x="990" 
d="M727 608q0 331 -206 331q-105 1 -175 -87t-75 -244h456zM551 -26q-238 0 -359 149q-120 149 -120 366q0 216 123 371q123 154 329 154q205 0 303 -119q97 -119 97 -305v-66h-653q0 -310 179 -406q63 -34 151 -34q89 0 153 42t124 149l70 -43q-62 -118 -166 -188t-231 -70
zM523 1118q-45 0 -59 11t-30 34l-237 347l48 32l275 -273l279 273l48 -32l-239 -351q-17 -21 -29 -31t-56 -10z" />
    <glyph glyph-name="Gcircumflex" unicode="&#x11c;" horiz-adv-x="1485" 
d="M791 1450q202 0 366 -99l41 68h80l9 -496h-82q-51 200 -132 304q-107 138 -288 138q-212 0 -338 -173t-126 -470t127 -475q133 -191 366 -191q88 0 160 27t103 57q9 58 9 195v78q0 97 -56 122q-56 24 -181 32v73h622v-73q-97 -12 -128 -28q-57 -28 -57 -107v-110
q0 -164 5 -231q-275 -124 -524 -124q-136 0 -262 51q-127 52 -221 146t-150 230t-56 301q0 331 205 544q95 99 227 155t281 56zM780 1868q40 0 56 -11t31 -30l236 -288l-48 -32l-279 212l-275 -212l-48 32l234 284q17 21 35 33t58 12z" />
    <glyph glyph-name="gcircumflex" unicode="&#x11d;" horiz-adv-x="1043" 
d="M218 -183q0 -123 161 -169q59 -16 144 -16q147 0 231 56t85 172q0 115 -105 141q-98 14 -317 14q-107 -21 -153 -71t-46 -127zM647 692q1 112 -47 182t-137 69q-89 0 -132 -75q-37 -61 -37 -174q0 -112 48 -182t130 -70t128 70q46 68 47 180zM837 674q1 -121 -105 -211
t-246 -90h-121q-23 -8 -48 -29q-25 -22 -25 -58q0 -66 72 -82q37 -10 114 -12q78 -2 154 -7t115 -7q91 -3 173 -80q83 -77 83 -215q0 -137 -125 -228q-141 -99 -390 -99q-446 0 -446 257q0 102 80 161t204 64v14q-78 23 -110 49q-65 51 -65 125q0 110 151 174v15
q-202 95 -202 279q0 140 104 230t268 90q75 0 180 -32h344v-96h-232v-6q73 -85 73 -206zM486 1542q41 0 56 -10t29 -31l239 -351l-48 -32l-279 273l-275 -273l-48 32l237 347q17 25 33 35t56 10z" />
    <glyph glyph-name="Gbreve" unicode="&#x11e;" horiz-adv-x="1485" 
d="M791 1450q202 0 366 -99l41 68h80l9 -496h-82q-51 200 -132 304q-107 138 -288 138q-212 0 -338 -173t-126 -470t127 -475q133 -191 366 -191q88 0 160 27t103 57q9 58 9 195v78q0 97 -56 122q-56 24 -181 32v73h622v-73q-97 -12 -128 -28q-57 -28 -57 -107v-110
q0 -164 5 -231q-275 -124 -524 -124q-136 0 -262 51q-127 52 -221 146t-150 230t-56 301q0 331 205 544q95 99 227 155t281 56zM782 1678q114 0 174 48t89 141l55 -16q-54 -321 -316 -321q-269 0 -320 321l55 16q29 -93 89 -141t174 -48z" />
    <glyph glyph-name="gbreve" unicode="&#x11f;" horiz-adv-x="1043" 
d="M218 -183q0 -123 161 -169q59 -16 144 -16q147 0 231 56t85 172q0 115 -105 141q-98 14 -317 14q-107 -21 -153 -71t-46 -127zM647 692q1 112 -47 182t-137 69q-89 0 -132 -75q-37 -61 -37 -174q0 -112 48 -182t130 -70t128 70q46 68 47 180zM837 674q1 -121 -105 -211
t-246 -90h-121q-23 -8 -48 -29q-25 -22 -25 -58q0 -66 72 -82q37 -10 114 -12q78 -2 154 -7t115 -7q91 -3 173 -80q83 -77 83 -215q0 -137 -125 -228q-141 -99 -390 -99q-446 0 -446 257q0 102 80 161t204 64v14q-78 23 -110 49q-65 51 -65 125q0 110 151 174v15
q-202 95 -202 279q0 140 104 230t268 90q75 0 180 -32h344v-96h-232v-6q73 -85 73 -206zM492 1127q-261 0 -312 368l55 12q33 -109 72 -152t79 -61t104 -17q117 0 172 59t89 171l55 -12q-28 -189 -106 -279t-208 -89z" />
    <glyph glyph-name="Gdotaccent" unicode="&#x120;" horiz-adv-x="1485" 
d="M791 1450q202 0 366 -99l41 68h80l9 -496h-82q-51 200 -132 304q-107 138 -288 138q-212 0 -338 -173t-126 -470t127 -475q133 -191 366 -191q88 0 160 27t103 57q9 58 9 195v78q0 97 -56 122q-56 24 -181 32v73h622v-73q-97 -12 -128 -28q-57 -28 -57 -107v-110
q0 -164 5 -231q-275 -124 -524 -124q-136 0 -262 51q-127 52 -221 146t-150 230t-56 301q0 331 205 544q95 99 227 155t281 56zM907 1735q1 -53 -37 -95t-91 -42t-91 39t-37 93q-1 54 37 94t92 40t90 -38t37 -91z" />
    <glyph glyph-name="gdotaccent" unicode="&#x121;" horiz-adv-x="1043" 
d="M218 -183q0 -123 161 -169q59 -16 144 -16q147 0 231 56t85 172q0 115 -105 141q-98 14 -317 14q-107 -21 -153 -71t-46 -127zM647 692q1 112 -47 182t-137 69q-89 0 -132 -75q-37 -61 -37 -174q0 -112 48 -182t130 -70t128 70q46 68 47 180zM837 674q1 -121 -105 -211
t-246 -90h-121q-23 -8 -48 -29q-25 -22 -25 -58q0 -66 72 -82q37 -10 114 -12q78 -2 154 -7t115 -7q91 -3 173 -80q83 -77 83 -215q0 -137 -125 -228q-141 -99 -390 -99q-446 0 -446 257q0 102 80 161t204 64v14q-78 23 -110 49q-65 51 -65 125q0 110 151 174v15
q-202 95 -202 279q0 140 104 230t268 90q75 0 180 -32h344v-96h-232v-6q73 -85 73 -206zM618 1384q0 -54 -38 -96t-90 -41q-52 0 -90 39t-38 93t38 94t91 40q55 1 91 -37t36 -92z" />
    <glyph glyph-name="Gcommaaccent" unicode="&#x122;" horiz-adv-x="1485" 
d="M791 1450q202 0 366 -99l41 68h80l9 -496h-82q-51 200 -132 304q-107 138 -288 138q-212 0 -338 -173t-126 -470t127 -475q133 -191 366 -191q88 0 160 27t103 57q9 58 9 195v78q0 97 -56 122q-56 24 -181 32v73h622v-73q-97 -12 -128 -28q-57 -28 -57 -107v-110
q0 -164 5 -231q-275 -124 -524 -124q-136 0 -262 51q-127 52 -221 146t-150 230t-56 301q0 331 205 544q95 99 227 155t281 56zM781 -259q-120 0 -120 95q1 34 31 66t92 32t102 -46t40 -119q0 -107 -72 -160t-193 -53v57q97 6 135 37t40 91h-55z" />
    <glyph glyph-name="gcommaaccent" unicode="&#x123;" horiz-adv-x="1043" 
d="M493 1114q-159 0 -159 188q0 98 95 191q57 53 166 104l34 -59q-97 -50 -126 -75q-56 -49 -69 -131h45q63 0 98 -29.5t35 -73.5t-32 -79.5t-87 -35.5zM218 -183q0 -123 110 -154t195 -31q147 0 231.5 56.5t84.5 171.5t-105 141q-98 14 -317 14q-108 -21 -153.5 -70.5
t-45.5 -127.5zM647 692q0 112 -47.5 181.5t-136.5 69.5t-132 -75q-37 -61 -37 -174q0 -112 48 -182t130 -70t128.5 69t46.5 181zM837 674q0 -121 -105.5 -211t-245.5 -90h-121q-23 -8 -48 -29.5t-25 -57.5q0 -66 72 -82q37 -10 114 -12t153.5 -7t115.5 -7q91 -3 173 -80
q83 -77 83 -214.5t-125 -228.5q-141 -99 -390 -99q-446 0 -446 257q0 102 80 161t204 64v14q-78 23 -110 49q-65 51 -65 125q0 110 151 174v15q-202 95 -202 279q0 140 104.5 230t267.5 90q75 0 180 -32h344v-96h-232v-6q73 -85 73 -206z" />
    <glyph glyph-name="Hcircumflex" unicode="&#x124;" horiz-adv-x="1669" 
d="M1567 0h-589v71q114 9 138 20q52 22 52 98v505h-667v-494q0 -71 52 -98t134 -31v-71h-589v71q114 9 138 20q52 22 52 98v1024q0 73 -60 101q-60 29 -130 34v71h589v-71q-151 -5 -175 -64q-12 -28 -11 -61v-440h667v430q0 73 -60 101q-60 29 -130 34v71h589v-71
q-151 -5 -175 -64q-12 -28 -11 -61v-1023q0 -71 52 -98t134 -31v-71zM838 1868q40 0 56 -11t30 -30l236 -288l-48 -32l-279 212l-275 -212l-48 32l234 284q18 21 36 33t58 12z" />
    <glyph glyph-name="hcircumflex" unicode="&#x125;" horiz-adv-x="1192" 
d="M608 1868q40 0 55.5 -11t30.5 -30l236 -288l-48 -32l-279 212l-275 -212l-48 32l234 284q18 22 36 33.5t58 11.5zM650 894q-178 0 -265 -149v-567q0 -66 55 -90q39 -18 97 -22v-66h-484v66q70 6 94 14q52 16 52 88v1019q0 34 -15.5 68t-41.5 52t-136 25v64l365 23l14 -15
v-559h4q79 79 124 107q96 61 220 61t195 -83.5t71 -240.5v-513q0 -68 49 -87q49 -20 95 -23v-66h-484v66q23 2 51 4t51 10q50 16 50 88v507q0 105 -49.5 162t-111.5 57z" />
    <glyph glyph-name="Hbar" unicode="&#x126;" horiz-adv-x="1669" 
d="M1168 783v228h-667v-228h667zM1567 0h-589v71q114 9 138 20q52 22 52 98v505h-667v-494q0 -71 52 -98t134 -31v-71h-589v71q114 9 138 20q52 22 52 98v822h-186v89h186v113q0 73 -60 101q-60 29 -130 34v71h589v-71q-150 -5 -168 -48.5t-18 -76.5v-123h667v113
q0 73 -60 101q-60 29 -130 34v71h589v-71q-150 -5 -168 -48.5t-18 -76.5v-123h186v-89h-186v-811q0 -71 52 -98t134 -31v-71z" />
    <glyph glyph-name="hbar" unicode="&#x127;" horiz-adv-x="1192" 
d="M650 894q-178 0 -265 -149v-567q0 -66 55 -90q39 -18 97 -22v-66h-484v66q70 6 94 14q52 16 52 88v1002h-228v85h228v61q0 34 -15.5 68t-40.5 52t-137 25v64l365 23l14 -15v-278h351v-85h-351v-325h4q79 79 124 107q96 61 220 61t195 -83.5t71 -240.5v-513q0 -68 49 -87
q49 -20 95 -23v-66h-484v66q23 2 51 4t51 10q50 16 50 88v507q0 105 -49.5 162t-111.5 57z" />
    <glyph glyph-name="Itilde" unicode="&#x128;" horiz-adv-x="798" 
d="M237 1695q-39 0 -55 -8.5t-32 -26.5t-32 -47.5t-30 -53.5l-58 25q26 83 71 138q87 105 173 105t166 -52q28 -18 57 -34.5t82 -16.5t77 30q25 30 57 104l61 -23q-23 -88 -94 -166q-71 -77 -157 -77q-87 0 -168 52q-79 52 -118 51zM718 0h-639v71q128 9 155 20q58 22 58 96
v1028q0 35 -11 58.5t-69 46.5t-133 28v71h639v-71q-172 -6 -192.5 -48t-20.5 -75v-1027q0 -72 64 -99q67 -26 149 -28v-71z" />
    <glyph glyph-name="itilde" unicode="&#x129;" horiz-adv-x="600" 
d="M543 1310q-70 -86 -148 -86t-150 52q-71 52 -106 51q-35 0 -49 -8t-29 -27t-26 -42.5t-29 -58.5l-53 25q47 154 114 198.5t125 44.5t129 -52q25 -18 50.5 -34.5t72.5 -16.5t68 29q22 29 52 105l56 -23q-23 -94 -77 -157zM551 0h-477v66q23 2 47.5 4t47.5 10q50 16 50 88
v609q0 122 -176 134v65l348 22l14 -14v-804q0 -71 56 -92q45 -19 90 -22v-66z" />
    <glyph glyph-name="Imacron" unicode="&#x12a;" horiz-adv-x="798" 
d="M721 1657h-644v128h644v-128zM718 0h-639v71q128 9 155 20q58 22 58 96v1028q0 35 -11 58.5t-69 46.5t-133 28v71h639v-71q-172 -6 -192.5 -48t-20.5 -75v-1027q0 -72 64 -99q67 -26 149 -28v-71z" />
    <glyph glyph-name="imacron" unicode="&#x12b;" horiz-adv-x="600" 
d="M560 1291h-586v128h586v-128zM551 0h-477v66q23 2 47.5 4t47.5 10q50 16 50 88v609q0 122 -176 134v65l348 22l14 -14v-804q0 -71 56 -92q45 -19 90 -22v-66z" />
    <glyph glyph-name="Ibreve" unicode="&#x12c;" horiz-adv-x="798" 
d="M718 0h-639v71q128 9 155 20q58 22 58 96v1028q0 35 -11 59t-69 46q-58 23 -133 28v71h639v-71q-172 -6 -200 -63q-13 -27 -13 -60v-1027q0 -72 64 -99q67 -26 149 -28v-71zM398 1678q114 0 174 48t89 141l55 -16q-54 -321 -316 -321q-269 0 -320 321l55 16
q29 -93 89 -141t174 -48z" />
    <glyph glyph-name="ibreve" unicode="&#x12d;" horiz-adv-x="600" 
d="M221 1127q-180 0 -214 368l50 12q31 -114 60 -154q56 -76 162 -76t149 57t73 173l50 -12q-20 -183 -85 -275.5t-245 -92.5zM551 0h-477v66q23 2 47.5 4t47.5 10q50 16 50 88v609q0 122 -176 134v65l348 22l14 -14v-804q0 -71 56 -92q45 -19 90 -22v-66z" />
    <glyph glyph-name="Iogonek" unicode="&#x12e;" horiz-adv-x="798" 
d="M224 -250q0 129 174 250h-319v71q128 9 155 20q58 22 58 96v1028q0 35 -11 58.5t-69 46.5t-133 28v71h639v-71q-172 -6 -192.5 -48t-20.5 -75v-1027q0 -72 64 -99q67 -26 149 -28v-71h-243q-93 -89 -93 -217q0 -158 224 -155v-72h-115q-128 0 -197.5 52.5t-69.5 141.5z
" />
    <glyph glyph-name="iogonek" unicode="&#x12f;" horiz-adv-x="600" 
d="M425 1384q0 -54 -37.5 -96.5t-90.5 -42.5t-90.5 40.5t-37.5 94.5t37.5 94.5t91.5 40.5t90.5 -38.5t36.5 -92.5zM134 -250q0 129 174 250h-234v66q23 2 47.5 4t47.5 10q50 16 50 88v609q0 122 -176 134v65l348 22l14 -14v-804q0 -71 56 -92q45 -19 90 -22v-66h-166
q-93 -89 -93 -217q0 -158 224 -155v-72h-115q-128 0 -197.5 52.5t-69.5 141.5z" />
    <glyph glyph-name="Idotaccent" unicode="&#x130;" horiz-adv-x="798" 
d="M718 0h-639v71q128 9 155 20q58 22 58 96v1028q0 35 -11 59t-69 46q-58 23 -133 28v71h639v-71q-172 -6 -200 -63q-13 -27 -13 -60v-1027q0 -72 64 -99q67 -26 149 -28v-71zM528 1735q0 -53 -38 -95t-90 -42t-90 39t-38 93t38 94t91 40q55 0 91 -38t36 -91z" />
    <glyph glyph-name="dotlessi" unicode="&#x131;" horiz-adv-x="600" 
d="M551 0h-477v66q23 2 47.5 4t47.5 10q50 16 50 88v609q0 122 -176 134v65l348 22l14 -14v-804q0 -71 56 -92q45 -19 90 -22v-66z" />
    <glyph glyph-name="IJ" unicode="&#x132;" horiz-adv-x="1818" 
d="M718 0h-639v71q128 9 155 20q58 22 58 96v1028q0 35 -11 59t-69 46q-58 23 -133 28v71h639v-71q-172 -6 -200 -63q-13 -27 -13 -60v-1027q0 -72 64 -99q67 -26 149 -28v-71zM1351 462v751q1 35 -11 59t-58 46q-46 23 -144 30v71h626v-71q-161 -6 -186 -64
q-12 -28 -12 -61v-841q0 -153 -115 -285q-115 -131 -316 -131q-163 0 -265 92t-101 246q0 68 35 120q34 52 98 53t100 -33t37 -89q0 -55 -46 -127t-57 -104q53 -83 188 -83t186 123q41 97 41 298z" />
    <glyph glyph-name="ij" unicode="&#x133;" horiz-adv-x="1172" 
d="M425 1384q1 -54 -37 -96t-91 -43q-53 1 -91 41t-37 94q-1 54 37 94q38 41 92 41q54 -1 90 -39t37 -92zM551 0h-477v66l48 4t47 10q50 16 50 88v609q0 122 -176 134v65l348 22l14 -14v-804q0 -71 56 -92q45 -19 90 -22v-66zM1020 1385q0 -55 -38 -97t-90 -42t-90 40
t-38 94t38 95t91 41q55 0 91 -38t36 -93zM1005 60q0 -227 -117 -366q-117 -138 -286 -138q-89 0 -134 36t-45 80q0 46 24 78t75 33q51 0 92 -47q20 -22 64 -96q76 0 108 92t33 295v742q0 69 -56 109q-33 23 -168 36v62l396 22l14 -14v-924z" />
    <glyph glyph-name="Jcircumflex" unicode="&#x134;" horiz-adv-x="1060" 
d="M593 462v751q1 35 -11 59t-58 46q-46 23 -144 30v71h626v-71q-161 -6 -186 -64q-12 -28 -12 -61v-841q0 -153 -115 -285q-115 -131 -316 -131q-163 0 -265 92t-101 246q0 68 35 120q34 52 98 53t100 -33t37 -89q0 -55 -46 -127t-57 -104q53 -83 188 -83t186 123
q41 97 41 298zM684 1868q40 0 56 -11t30 -30l236 -288l-48 -32l-279 212l-275 -212l-48 32l234 284q18 21 36 33t58 12z" />
    <glyph glyph-name="jcircumflex" unicode="&#x135;" horiz-adv-x="598" 
d="M270 1542q41 0 56.5 -10.5t27.5 -30.5l219 -351l-48 -32l-259 273l-255 -273l-48 32l217 347q15 25 32 35t58 10zM431 60q0 -227 -117 -366q-117 -138 -286 -138q-89 0 -134 35t-45 81t24 78.5t75 32.5t92 -47q20 -22 64 -96q76 0 108.5 92t32.5 295v742q0 69 -56 109
q-33 23 -168 36v62l396 22l14 -14v-924z" />
    <glyph glyph-name="Kcommaaccent" unicode="&#x136;" horiz-adv-x="1422" 
d="M1008 1297q0 41 -147 51v71h532v-71q-3 0 -13 -1t-24 -2t-27 -4q-15 -3 -43 -9q-81 -17 -127 -67q-103 -117 -215 -242t-222 -228q170 -193 428 -517q78 -98 121 -130t83 -53q40 -20 121 -24v-71h-398q-220 340 -550 694h-26v-494q0 -73 58 -101q15 -7 59 -17t73 -11v-71
h-589v71q110 10 135 20q51 23 51 98v1024q0 73 -60 102t-126 33v71h589v-71q-153 -5 -178 -64q-12 -28 -12 -61v-490h20q206 174 310 294q105 121 141 175t36 95zM806 -259q-120 0 -120 95q0 34 30 66t92 32t102 -46t41 -119q-1 -107 -73 -160t-192 -53v57q96 6 134 37
t41 91h-55z" />
    <glyph glyph-name="kcommaaccent" unicode="&#x137;" horiz-adv-x="1097" 
d="M733 864q0 42 -127 58v64h434v-62q-150 -45 -247 -130q-24 -20 -68 -65t-123 -118q82 -101 184 -242t148 -202t81 -79t102 -22v-66h-298q-78 113 -167 242t-185 251l-82 -77v-234q0 -73 55 -94q44 -18 97 -22v-66h-484v66q70 6 94 14q52 16 52 88v1146q0 81 -56 119
q-26 20 -137 28v64l365 23l14 -15v-1043q79 78 169 168q180 178 179 206zM619 -259q-120 0 -120 95q1 34 31 66t92 32t102 -46t40 -119q0 -107 -72 -160t-193 -53v57q97 6 135 37t40 91h-55z" />
    <glyph glyph-name="kgreenlandic" unicode="&#x138;" horiz-adv-x="1115" 
d="M751 864q0 42 -127 58v64h434v-62q-150 -45 -247 -130q-24 -20 -68 -65t-123 -118q82 -101 184 -242t148 -202t81 -79t102 -22v-66h-298q-78 113 -167 242t-185 251l-82 -77v-234q0 -73 55 -94q44 -18 97 -22v-66h-484v66q70 6 94 14q52 16 52 88v609q0 71 -55 109
q-32 20 -101 25v65l328 22l14 -15v-493q78 78 213 211.5t135 162.5z" />
    <glyph glyph-name="Lacute" unicode="&#x139;" horiz-adv-x="1236" 
d="M98 0v71q108 9 136 21q54 24 54 101v1016q0 75 -57 102q-61 32 -133 37v71h599v-71q-70 -2 -120 -20q-51 -18 -63 -47t-13 -62v-953q1 -66 7 -102t30 -56q38 -30 174 -30q237 0 280 50q44 50 98 142q54 94 76 152h71l-30 -422h-1109zM795 1868q34 0 61 -23t27 -61
q0 -62 -92 -109q-45 -23 -137 -67t-209 -101l-31 39q176 168 264 261q57 61 117 61z" />
    <glyph glyph-name="lacute" unicode="&#x13a;" horiz-adv-x="586" 
d="M567 1784q0 -62 -92 -109q-44 -22 -136.5 -66.5t-209.5 -101.5l-31 39q175 167 234 230q60 63 86.5 77.5t60.5 14.5t61 -23t27 -61zM534 0h-481v66q73 6 96 14q52 16 52 88v1013q0 77 -56 117q-37 27 -143 34v64l371 23l14 -15v-1224q0 -69 55 -92q40 -18 92 -22v-66z
" />
    <glyph glyph-name="Lcommaaccent" unicode="&#x13b;" horiz-adv-x="1236" 
d="M98 0v71q108 9 136 21q54 24 54 101v1016q0 75 -57 102q-61 32 -133 37v71h599v-71q-70 -2 -120 -20q-51 -18 -63 -47t-13 -62v-953q1 -66 7 -102t30 -56q38 -30 174 -30q237 0 280 50q44 50 98 142q54 94 76 152h71l-30 -422h-1109zM702 -259q-120 0 -120 95q0 34 30 66
t92 32t102 -46t41 -119q-1 -107 -73 -160t-192 -53v57q96 6 134 37t41 91h-55z" />
    <glyph glyph-name="lcommaaccent" unicode="&#x13c;" horiz-adv-x="586" 
d="M534 0h-481v66q73 6 96 14q52 16 52 88v1142q0 77 -56 117q-18 12 -66 22t-77 12v64l371 23l14 -15v-1353q0 -69 55 -92q40 -18 92 -22v-66zM305 -259q-120 0 -120 95q1 34 31 66t92 32t102 -46t40 -119q0 -107 -72 -160t-193 -53v57q97 6 135 37t40 91h-55z" />
    <glyph glyph-name="Lcaron" unicode="&#x13d;" horiz-adv-x="1236" 
d="M98 0v71q108 9 136 21q54 24 54 101v1016q0 75 -57 102q-61 32 -133 37v71h599v-71q-70 -2 -120 -20q-51 -18 -63 -47t-13 -62v-953q1 -66 7 -102t30 -56q38 -30 174 -30q237 0 280 50q44 50 98 142q54 94 76 152h71l-30 -422h-1109zM982 1433q159 0 159 -204
q0 -163 -185 -289q-48 -32 -77 -47l-34 59q103 61 133 94q30 34 46 66t20 86h-48q-63 0 -98 32t-35 81t32 85t87 37z" />
    <glyph glyph-name="lcaron" unicode="&#x13e;" horiz-adv-x="771" 
d="M534 0h-481v66q73 6 96 14q52 16 52 88v1142q0 77 -56 117q-18 12 -66 22t-77 12v64l371 23l14 -15v-1353q0 -69 55 -92q40 -18 92 -22v-66zM634 1544q159 0 159 -204q0 -162 -185 -288q-48 -32 -77 -48l-34 59q103 61 133 94q30 35 46 67t20 85h-48q-63 0 -98 32t-35 81
q0 50 32 86t87 36z" />
    <glyph glyph-name="Ldot" unicode="&#x13f;" horiz-adv-x="1236" 
d="M1151 724q0 -56 -40.5 -95.5t-96.5 -39.5t-96.5 39.5t-40.5 95.5t40.5 96.5t96.5 40.5t96.5 -40.5t40.5 -96.5zM98 0v71q108 9 136 21q54 24 54 101v1016q0 75 -57 102q-61 32 -133 37v71h599v-71q-70 -2 -120 -20q-51 -18 -63.5 -47t-12.5 -62v-953q0 -66 6.5 -102.5
t30.5 -55.5q38 -30 174 -30q237 0 280 50q44 50 98.5 143t75.5 151h71l-30 -422h-1109z" />
    <glyph glyph-name="ldot" unicode="&#x140;" horiz-adv-x="861" 
d="M859 672q0 -55 -40 -94t-95 -39t-95 39t-40 94t40 95t95 40t95 -40t40 -95zM534 0h-481v66q73 6 96 14q52 16 52 88v1142q0 77 -56 117q-18 12 -66 22t-77 12v64l371 23l14 -15v-1353q0 -69 55 -92q40 -18 92 -22v-66z" />
    <glyph glyph-name="Lslash" unicode="&#x141;" horiz-adv-x="1236" 
d="M98 0v71q108 9 136 21q54 24 54 101v432l-163 -68l-35 87l198 81v484q0 75 -57 102q-61 32 -133 37v71h599v-71q-70 -2 -120 -20q-51 -18 -63.5 -47t-12.5 -62v-413l271 113l35 -87l-306 -125v-441q0 -66 6.5 -102.5t30.5 -55.5q38 -30 174 -30q237 0 280 50
q44 50 98.5 143t75.5 151h71l-30 -422h-1109z" />
    <glyph glyph-name="lslash" unicode="&#x142;" horiz-adv-x="586" 
d="M387 180q0 -69 55 -92q40 -18 92 -22v-66h-481v66q73 6 96 14q52 16 52 88v449l-138 -59l-34 81l172 71v600q0 77 -56 117q-18 12 -66 22t-77 12v64l371 23l14 -15v-753l138 59l34 -81l-172 -71v-507z" />
    <glyph glyph-name="Nacute" unicode="&#x143;" horiz-adv-x="1571" 
d="M1324 1025v-1039h-87l-860 1161v-732q0 -228 63 -283q23 -22 95 -41t95 -20v-71h-582v71q27 1 91 19t80 32q35 28 48 86t13 196v699q0 109 -64 167q-32 28 -92 52q-62 24 -100 26v71h405l798 -1082v675q0 234 -62 279q-27 19 -91 37t-97 20v71h577v-71q-28 -1 -86 -16
q-58 -16 -88 -36q-56 -38 -56 -271zM1005 1868q34 0 61 -23t27 -61q0 -62 -92 -109q-45 -23 -137 -67t-209 -101l-31 39q176 168 264 261q57 61 117 61z" />
    <glyph glyph-name="nacute" unicode="&#x144;" horiz-adv-x="1210" 
d="M1161 0h-483v66q22 2 50 4t51 10q50 16 50 88v507q1 105 -49 162t-112 57q-103 0 -184 -57q-48 -34 -81 -92v-567q0 -100 152 -112v-66h-483v66l48 4t47 10q50 16 50 88v609q0 71 -55 109q-32 20 -101 25v65l328 22l14 -14v-139h5q81 81 123 109q91 59 221 59
q130 -1 198 -89t68 -235v-513q0 -68 47 -87t96 -23v-66zM839 1456q1 -34 -17 -58t-60 -58t-122 -95q-80 -62 -174 -135l-38 32q130 192 182 276q51 84 80 102t66 18t60 -24t23 -58z" />
    <glyph glyph-name="Ncommaaccent" unicode="&#x145;" horiz-adv-x="1571" 
d="M1324 1025v-1039h-87l-860 1161v-732q0 -228 63 -283q23 -22 95 -41t95 -20v-71h-582v71q27 1 91 19t80 32q35 28 48 86t13 196v699q0 109 -64 167q-32 28 -92 52q-62 24 -100 26v71h405l798 -1082v675q0 234 -62 279q-27 19 -91 37t-97 20v71h577v-71q-28 -1 -86 -16
q-58 -16 -88 -36q-56 -38 -56 -271zM786 -259q-120 0 -120 95q0 34 30 66t92 32t102 -46t41 -119q-1 -107 -73 -160t-192 -53v57q96 6 134 37t41 91h-55z" />
    <glyph glyph-name="ncommaaccent" unicode="&#x146;" horiz-adv-x="1210" 
d="M1161 0h-483v66q22 2 50 4t51 10q50 16 50 88v507q1 105 -49 162t-112 57q-103 0 -184 -57q-48 -34 -81 -92v-567q0 -100 152 -112v-66h-483v66l48 4t47 10q50 16 50 88v609q0 71 -55 109q-32 20 -101 25v65l328 22l14 -14v-139h5q81 81 123 109q91 59 221 59
q130 -1 198 -89t68 -235v-513q0 -68 47 -87t96 -23v-66zM630 -259q-120 0 -120 95q0 34 30 66t92 32t102 -46t41 -119q-1 -107 -73 -160t-192 -53v57q96 6 134 37t41 91h-55z" />
    <glyph glyph-name="Ncaron" unicode="&#x147;" horiz-adv-x="1571" 
d="M1324 1025v-1039h-87l-860 1161v-732q0 -228 63 -283q23 -22 95 -41t95 -20v-71h-582v71q27 1 91 19t80 32q35 28 48 86t13 196v699q0 109 -64 167q-32 28 -92 52q-62 24 -100 26v71h405l798 -1082v675q0 234 -62 279q-27 19 -91 37t-97 20v71h577v-71q-28 -1 -86 -16
q-58 -16 -88 -36q-56 -38 -56 -271zM783 1507q-45 0 -61 11t-30 30l-236 288l48 32l279 -214l275 214l48 -32l-234 -284q-20 -26 -32 -36t-57 -9z" />
    <glyph glyph-name="ncaron" unicode="&#x148;" horiz-adv-x="1210" 
d="M1161 0h-483v66q22 2 50 4t51 10q50 16 50 88v507q1 105 -49 162t-112 57q-103 0 -184 -57q-48 -34 -81 -92v-567q0 -100 152 -112v-66h-483v66l48 4t47 10q50 16 50 88v609q0 71 -55 109q-32 20 -101 25v65l328 22l14 -14v-139h5q81 81 123 109q91 59 221 59
q130 -1 198 -89t68 -235v-513q0 -68 47 -87t96 -23v-66zM610 1118q-44 0 -58 11t-31 34l-237 347l48 32l275 -273l279 273l48 -32l-239 -351q-17 -21 -29 -31t-56 -10z" />
    <glyph glyph-name="napostrophe" unicode="&#x149;" horiz-adv-x="1320" 
d="M1272 0h-483v66q23 2 51 4t50 10q50 16 50 88v507q0 105 -50 162t-111 57q-103 0 -184 -57q-48 -34 -81 -92v-567q0 -100 152 -112v-66h-483v66q23 2 47 4t48 10q50 16 50 88v609q0 71 -55 109q-32 20 -101 25v65l328 22l14 -14v-139h5q81 81 123 109q91 59 221 59
q129 -1 197 -89t69 -235v-513q0 -68 47 -87t96 -23v-66zM117 1529q159 0 159 -204q0 -163 -185 -289q-48 -32 -77 -47l-34 59q103 61 133 94q30 34 46 66t20 86h-48q-63 0 -98 32t-35 81t32 85t87 37z" />
    <glyph glyph-name="Eng" unicode="&#x14a;" horiz-adv-x="1571" 
d="M377 415q0 -228 63 -283q23 -22 95 -41t95 -20v-71h-582v71q27 2 91 19.5t80 31.5q35 28 48 85.5t13 196.5v699q0 109 -64 167q-32 29 -93 52.5t-99 25.5v71h405l798 -1082v675q0 234 -62 279q-28 19 -91.5 37t-96.5 20v71h577v-71q-28 -1 -86 -16.5t-88 -35.5
q-56 -37 -56 -271v-969q0 -242 -105 -371t-302 -129q-94 0 -147 39t-53 91t29.5 87t84.5 35t93 -48q15 -19 34 -48.5t39 -52.5q102 4 164.5 89.5t62.5 256.5l-847 1142v-732z" />
    <glyph glyph-name="eng" unicode="&#x14b;" horiz-adv-x="1185" 
d="M668 894q-103 0 -184 -57q-48 -34 -81 -92v-567q0 -100 152 -112v-66h-483v66q23 2 47.5 4t47.5 10q50 16 50 88v609q0 71 -55 109q-32 20 -101 25v65l328 22l14 -14v-139h5q81 81 123 109q91 59 221 59q129 0 197.5 -88.5t68.5 -235.5l3 -314q-1 -173 -3 -303
q-5 -245 -121 -380q-117 -136 -285 -136q-89 0 -134 36t-45 82t25 77.5t75 31.5t82 -37q31 -37 73 -106q75 0 108 92.5t34 292.5l3 342q0 83 -3 308q-2 106 -51 162.5t-111 56.5z" />
    <glyph glyph-name="Omacron" unicode="&#x14c;" horiz-adv-x="1524" 
d="M1095 245q107 174 107 469t-114 472q-114 178 -333 178q-218 0 -334 -202q-99 -174 -99 -460t111 -467q111 -180 329 -180q107 0 193 50t140 140zM1244 1251q200 -209 200 -544t-204 -541q-194 -200 -478 -200q-148 0 -274 56t-215 153q-89 99 -141 237t-52 304
q0 324 203 535q193 202 481 202q138 0 264 -53q125 -53 216 -149zM1106 1657h-686v128h686v-128z" />
    <glyph glyph-name="omacron" unicode="&#x14d;" horiz-adv-x="1104" 
d="M826 501q0 295 -144 399q-52 38 -128 38q-146 0 -219 -142q-58 -111 -58 -290q1 -318 151 -424q52 -36 127 -36q125 0 198 121t73 334zM901 122q-132 -152 -343 -152t-350 143q-138 143 -138 375t134 379t348 147q212 0 346 -140t135 -369q0 -231 -132 -383zM896 1291
h-686v128h686v-128z" />
    <glyph glyph-name="Obreve" unicode="&#x14e;" horiz-adv-x="1524" 
d="M1095 245q107 174 107 469t-114 472q-114 178 -333 178q-218 0 -334 -202q-99 -174 -99 -460t111 -467q111 -180 329 -180q107 0 193 50t140 140zM1244 1251q200 -209 200 -544t-204 -541q-194 -200 -478 -200q-148 0 -274 56t-215 153q-89 99 -141 237t-52 304
q0 324 203 535q193 202 481 202q138 0 264 -53q125 -53 216 -149zM762 1678q114 0 174 48t89 141l55 -16q-54 -321 -316 -321q-269 0 -320 321l55 16q29 -93 89 -141t174 -48z" />
    <glyph glyph-name="obreve" unicode="&#x14f;" horiz-adv-x="1104" 
d="M826 501q0 295 -144 399q-52 38 -128 38q-146 0 -219 -142q-58 -111 -58 -290q1 -318 151 -424q52 -36 127 -36q125 0 198 121t73 334zM901 122q-132 -152 -343 -152t-350 143q-138 143 -138 375t134 379t348 147q212 0 346 -140t135 -369q0 -231 -132 -383zM551 1127
q-261 0 -312 368l55 12q33 -109 72 -152q40 -43 80 -61t103 -17q117 0 172 59t89 171l55 -12q-27 -189 -105 -279t-209 -89z" />
    <glyph glyph-name="Ohungarumlaut" unicode="&#x150;" horiz-adv-x="1524" 
d="M1095 245q107 174 107 469t-114 472q-114 178 -333 178q-218 0 -334 -202q-99 -174 -99 -460t111 -467q111 -180 329 -180q107 0 193 50t140 140zM1244 1251q200 -209 200 -544t-204 -541q-194 -200 -478 -200q-148 0 -274 56t-215 153q-89 99 -141 237t-52 304
q0 324 203 535q193 202 481 202q138 0 264 -53q125 -53 216 -149zM1227 1867q34 0 57 -26q23 -25 23 -61q1 -59 -73 -98q-74 -38 -120 -60t-195 -115l-29 36q168 188 224 256q57 68 113 68zM838 1867q34 0 57 -26q23 -25 23 -61q0 -59 -74 -98q-74 -38 -116 -60
q-44 -22 -193 -115l-29 36q109 122 219 255q57 69 113 69z" />
    <glyph glyph-name="ohungarumlaut" unicode="&#x151;" horiz-adv-x="1104" 
d="M826 501q0 295 -144 399q-52 38 -128 38q-146 0 -219 -142q-58 -111 -58 -290q1 -318 151 -424q52 -36 127 -36q125 0 198 121t73 334zM901 122q-132 -152 -343 -152t-350 143q-138 143 -138 375t134 379t348 147q212 0 346 -140t135 -369q0 -231 -132 -383zM656 1456
q0 -32 -12 -55t-46 -53t-98 -88t-168 -150l-37 28q101 171 148 265q47 95 71 115t60 20t58 -25q24 -25 24 -57zM1028 1456q0 -34 -16 -58t-91 -89q-76 -66 -235 -199l-35 28q110 177 161 268q50 92 74 112t60 20t58 -24q24 -24 24 -58z" />
    <glyph glyph-name="OE" unicode="&#x152;" horiz-adv-x="2044" 
d="M1216 269q0 -127 44 -157q43 -30 174 -30h142q143 0 188 48t95.5 145t64.5 143h72l-27 -418h-1154q-213 0 -474 144.5t-261 574.5q0 338 243 531q108 86 247 127.5t280 41.5h1039v-342h-75q-19 75 -86 161t-128 94t-171 8h-213v-564h150q72 0 108 12t62 46q50 63 63 174
h75v-555h-75q-4 48 -21.5 101.5t-41.5 83.5q-44 56 -170 57h-150v-426zM816 1336q-84 0 -177 -34.5t-165 -109.5q-152 -160 -152 -459q0 -300 149.5 -475.5t392.5 -175.5q37 0 139 5v1244q-103 5 -187 5z" />
    <glyph glyph-name="oe" unicode="&#x153;" horiz-adv-x="1672" 
d="M788 490q0 449 -249 449q-140 0 -209 -143q-54 -112 -54 -291q0 -320 96 -390t167 -70q119 0 184 109.5t65 335.5zM1410 608q0 146 -28 208t-67 92.5t-103 30.5q-102 0 -166 -96.5t-64 -234.5h428zM1252 -26q-118 0 -213 51.5t-153 143.5q-134 -199 -356 -199
q-190 0 -325 142t-135 372t127 380t352 150q114 0 205 -57.5t140 -134.5q53 84 139.5 138t234 54t243.5 -116q95 -116 95 -302v-72h-624q6 -440 312 -440q104 0 164 51.5t103 140.5l70 -43q-58 -123 -159.5 -191t-219.5 -68z" />
    <glyph glyph-name="Racute" unicode="&#x154;" horiz-adv-x="1437" 
d="M954 1046q0 140 -74 216t-209 76h-170v-609h131q138 1 230 89t92 228zM501 643v-450q0 -79 51 -99t146 -23v-71h-600v71q108 9 136 21q54 24 54 101v1026q0 82 -56 103t-134 26v71h655q190 0 319 -83t129 -255q0 -225 -207 -329q-63 -32 -139 -53q105 -139 175 -234
t142 -193t108 -126t77 -50q42 -21 123 -25v-71h-382q-222 348 -452 643h-145zM905 1868q34 0 61 -23t27 -61q0 -62 -92 -109q-45 -23 -137 -67t-209 -101l-31 39q176 168 264 261q57 61 117 61z" />
    <glyph glyph-name="racute" unicode="&#x155;" horiz-adv-x="839" 
d="M610 812q0 26 10 86q-47 0 -110 -38t-107 -108v-574q0 -69 56 -90q39 -16 133 -22v-66h-520v66l48 4t47 10q50 16 50 88v609q0 71 -55 109q-32 20 -101 25v65l328 22l14 -14v-139h5q62 81 138 123t139 42t103 -41t39 -101q0 -60 -25 -100t-79 -39q-53 0 -83 29
q-30 28 -30 54zM696 1456q0 -34 -18 -58t-59 -58q-43 -34 -123 -95q-80 -62 -173 -135l-38 32q130 192 182 276q51 84 80 102t66 18t60 -24t23 -58z" />
    <glyph glyph-name="Rcommaaccent" unicode="&#x156;" horiz-adv-x="1437" 
d="M954 1046q0 140 -74 216t-209 76h-170v-609h131q138 1 230 89t92 228zM501 643v-450q0 -79 51 -99t146 -23v-71h-600v71q108 9 136 21q54 24 54 101v1026q0 82 -56 103t-134 26v71h655q190 0 319 -83t129 -255q0 -225 -207 -329q-63 -32 -139 -53q105 -139 175 -234
t142 -193t108 -126t77 -50q42 -21 123 -25v-71h-382q-222 348 -452 643h-145zM791 -259q-120 0 -120 95q1 34 31 66t92 32t102 -46t40 -119q0 -107 -72 -160t-193 -53v57q97 6 135 37t40 91h-55z" />
    <glyph glyph-name="rcommaaccent" unicode="&#x157;" horiz-adv-x="839" 
d="M610 812q0 26 10 86q-47 0 -110 -38t-107 -108v-574q0 -69 56 -90q39 -16 133 -22v-66h-520v66l48 4t47 10q50 16 50 88v609q0 71 -55 109q-32 20 -101 25v65l328 22l14 -14v-139h5q62 81 138 123t139 42t103 -41t39 -101q0 -60 -25 -100t-79 -39q-53 0 -83 29
q-30 28 -30 54zM382 -259q-120 0 -120 95q0 34 30 66t92 32t102 -46t41 -119q-1 -107 -73 -160t-192 -53v57q96 6 134 37t41 91h-55z" />
    <glyph glyph-name="Rcaron" unicode="&#x158;" horiz-adv-x="1437" 
d="M954 1046q0 140 -74 216t-209 76h-170v-609h131q138 1 230 89t92 228zM501 643v-450q0 -79 51 -99t146 -23v-71h-600v71q108 9 136 21q54 24 54 101v1026q0 82 -56 103t-134 26v71h655q190 0 319 -83t129 -255q0 -225 -207 -329q-63 -32 -139 -53q105 -139 175 -234
t142 -193t108 -126t77 -50q42 -21 123 -25v-71h-382q-222 348 -452 643h-145zM661 1507q-45 0 -61 11t-30 30l-236 288l48 32l279 -214l275 214l48 -32l-234 -284q-20 -26 -32 -36t-57 -9z" />
    <glyph glyph-name="rcaron" unicode="&#x159;" horiz-adv-x="839" 
d="M610 812q0 26 10 86q-47 0 -110 -38t-107 -108v-574q0 -69 56 -90q39 -16 133 -22v-66h-520v66l48 4t47 10q50 16 50 88v609q0 71 -55 109q-32 20 -101 25v65l328 22l14 -14v-139h5q62 81 138 123t139 42t103 -41t39 -101q0 -60 -25 -100t-79 -39q-53 0 -83 29
q-30 28 -30 54zM424 1118q-44 0 -58 11t-31 34l-237 347l48 32l275 -273l279 273l48 -32l-239 -351q-17 -21 -29 -31t-56 -10z" />
    <glyph glyph-name="Sacute" unicode="&#x15a;" horiz-adv-x="1149" 
d="M548 1364q-92 0 -160 -61q-67 -61 -67 -151q0 -170 168 -250q73 -34 143 -60q258 -93 337 -179q57 -61 79 -121t21 -139q0 -188 -139 -310t-345 -122q-95 -1 -190 29t-164 72l-43 -73h-80l-14 486h81q119 -427 430 -427q199 0 251 146q16 44 16 116t-48 146t-128 105
t-164 63t-145 60q-121 54 -187 142t-66 238q0 151 125 264t293 113t328 -100l41 68h80l8 -471h-81q-53 197 -109 272q-55 76 -117 110t-154 34zM761 1868q34 0 61 -23t27 -61q0 -62 -92 -109q-45 -23 -137 -67t-209 -101l-31 39q176 168 264 261q57 61 117 61z" />
    <glyph glyph-name="sacute" unicode="&#x15b;" horiz-adv-x="885" 
d="M417 1014q138 0 230 -51l23 52h72l15 -317h-69q-20 106 -90 172t-161 67q-91 0 -138 -41q-47 -40 -47 -92q0 -90 54 -127q54 -36 200 -84q147 -48 225 -116q77 -68 77 -199q0 -130 -102 -217t-266 -87q-86 0 -158 31t-104 57l-20 -65h-75l-10 343h69q20 -98 105 -193
q85 -96 194 -96q214 0 214 168q0 79 -59 121t-193 83q-135 41 -191 86q-113 90 -113 213q0 124 90 208t228 84zM693 1456q1 -34 -17 -58t-60 -58t-122 -95q-80 -62 -174 -135l-38 32q130 192 182 276q51 84 80 102t66 18t60 -24t23 -58z" />
    <glyph glyph-name="Scircumflex" unicode="&#x15c;" horiz-adv-x="1149" 
d="M548 1364q-92 0 -160 -61q-67 -61 -67 -151q0 -170 168 -250q73 -34 143 -60q258 -93 337 -179q57 -61 79 -121t21 -139q0 -188 -139 -310t-345 -122q-95 -1 -190 29t-164 72l-43 -73h-80l-14 486h81q119 -427 430 -427q199 0 251 146q16 44 16 116t-48 146t-128 105
t-164 63t-145 60q-121 54 -187 142t-66 238q0 151 125 264t293 113t328 -100l41 68h80l8 -471h-81q-53 197 -109 272q-55 76 -117 110t-154 34zM594 1868q40 0 56 -11t30 -30l236 -288l-48 -32l-279 212l-275 -212l-48 32l234 284q18 21 36 33t58 12z" />
    <glyph glyph-name="scircumflex" unicode="&#x15d;" horiz-adv-x="885" 
d="M417 1014q138 0 230 -51l23 52h72l15 -317h-69q-20 106 -90 172t-161 67q-91 0 -138 -41q-47 -40 -47 -92q0 -90 54 -127q54 -36 200 -84q147 -48 225 -116q77 -68 77 -199q0 -130 -102 -217t-266 -87q-86 0 -158 31t-104 57l-20 -65h-75l-10 343h69q20 -98 105 -193
q85 -96 194 -96q214 0 214 168q0 79 -59 121t-193 83q-135 41 -191 86q-113 90 -113 213q0 124 90 208t228 84zM455 1542q41 0 56 -10t29 -31l239 -351l-48 -32l-279 273l-275 -273l-48 32l237 347q16 25 32 35t57 10z" />
    <glyph glyph-name="Scedilla" unicode="&#x15e;" horiz-adv-x="1149" 
d="M548 1364q-92 0 -159.5 -61t-67.5 -151q0 -170 168 -250q73 -35 237.5 -94.5t242.5 -144.5q57 -62 78.5 -121.5t21.5 -138.5q0 -185 -135 -308t-345 -123v-71q152 0 191 -52.5t39 -103.5t-32 -91t-106 -69t-261 -29v72q127 0 169 10q86 19 86 80q0 49 -55 62t-110 13v183
q-146 17 -279 96l-43 -73h-80l-14 486h81q119 -427 430 -427q200 0 233.5 95t33.5 167t-48 145.5t-128 105.5t-164 63.5t-145 59.5q-120 54 -186.5 141.5t-66.5 238.5t125 264t293 113t328 -100l41 68h80l8 -471h-81q-53 197 -109 272q-55 75 -117 109.5t-154 34.5z" />
    <glyph glyph-name="scedilla" unicode="&#x15f;" horiz-adv-x="885" 
d="M417 1014q138 0 230 -51l23 52h72l15 -317h-69q-21 106 -90.5 172.5t-160.5 66.5t-138 -40.5t-47 -92.5q0 -90 54 -127q54 -36 200 -84q147 -48 225 -116q77 -68 77 -199q0 -130 -103 -216.5t-266 -86.5v-74q152 0 191 -52.5t39 -103.5t-32 -91t-106 -69t-261 -29v72
q127 0 169 10q86 19 86 80q0 49 -55 62t-110 13v189q-114 24 -182 80l-20 -65h-75l-10 343h69q20 -98 105 -193q85 -96 194 -96q214 0 214 168q0 79 -59 121t-193 83q-135 41 -191 86q-113 90 -113 213q0 124 90 208t228 84z" />
    <glyph glyph-name="Scaron" unicode="&#x160;" horiz-adv-x="1149" 
d="M548 1364q-92 0 -160 -61q-67 -61 -67 -151q0 -170 168 -250q73 -34 143 -60q258 -93 337 -179q57 -61 79 -121t21 -139q0 -188 -139 -310t-345 -122q-95 -1 -190 29t-164 72l-43 -73h-80l-14 486h81q119 -427 430 -427q199 0 251 146q16 44 16 116t-48 146t-128 105
t-164 63t-145 60q-121 54 -187 142t-66 238q0 151 125 264t293 113t328 -100l41 68h80l8 -471h-81q-53 197 -109 272q-55 76 -117 110t-154 34zM585 1507q-45 0 -61 11t-30 30l-236 288l48 32l279 -214l275 214l48 -32l-234 -284q-20 -26 -32 -36t-57 -9z" />
    <glyph glyph-name="scaron" unicode="&#x161;" horiz-adv-x="885" 
d="M417 1014q138 0 230 -51l23 52h72l15 -317h-69q-20 106 -90 172t-161 67q-91 0 -138 -41q-47 -40 -47 -92q0 -90 54 -127q54 -36 200 -84q147 -48 225 -116q77 -68 77 -199q0 -130 -102 -217t-266 -87q-86 0 -158 31t-104 57l-20 -65h-75l-10 343h69q20 -98 105 -193
q85 -96 194 -96q214 0 214 168q0 79 -59 121t-193 83q-135 41 -191 86q-113 90 -113 213q0 124 90 208t228 84zM451 1118q-45 0 -59 11t-30 34l-237 347l48 32l275 -273l279 273l48 -32l-239 -351q-17 -21 -29 -31t-56 -10z" />
    <glyph glyph-name="Tcommaaccent" unicode="&#x162;" horiz-adv-x="1267" 
d="M1251 1034h-69q-20 81 -68 153q-90 137 -151 145q-62 9 -165 9h-58v-1135q0 -76 63 -103q17 -7 75 -19t90 -13v-71h-670v71q132 9 165 23q64 26 64 103v1144h-58q-98 0 -148 -6q-49 -5 -85 -41t-82 -104t-69 -156h-70v385h1236v-385zM652 -259q-120 0 -120 95q0 34 30 66
t92 32t102 -46t41 -119q-1 -107 -73 -160t-192 -53v57q96 6 134 37t41 91h-55z" />
    <glyph glyph-name="tcommaaccent" unicode="&#x163;" horiz-adv-x="707" 
d="M560 100q75 0 121 16v-73q-65 -27 -123 -45t-162 -19q-205 0 -205 239v668h-178v96h182v307h182v-307h283v-96h-281v-551q0 -129 21 -167t53 -53t107 -15zM432 -259q-120 0 -120 95q0 34 30 66t92 32t102 -46t41 -119q-1 -107 -73 -160t-192 -53v57q96 6 134 37t41 91
h-55z" />
    <glyph glyph-name="Tcaron" unicode="&#x164;" horiz-adv-x="1267" 
d="M1251 1034h-69q-20 81 -68 153q-90 137 -151 145q-62 9 -165 9h-58v-1135q0 -76 63 -103q17 -7 75 -19t90 -13v-71h-670v71q132 9 165 23q64 26 64 103v1144h-58q-98 0 -148 -6q-49 -5 -85 -41t-82 -104t-69 -156h-70v385h1236v-385zM636 1507q-44 0 -60 11t-31 30
l-236 288l48 32l279 -214l275 214l48 -32l-234 -284q-21 -26 -33 -36t-56 -9z" />
    <glyph glyph-name="tcaron" unicode="&#x165;" horiz-adv-x="707" 
d="M794 1385q0 -162 -111.5 -230t-150.5 -84l-34 59q106 57 130 80q56 52 66 128h-45q-61 0 -97 28.5t-36 73.5t32 81.5t98 36.5t107 -49t41 -124zM560 100q75 0 121 16v-73q-65 -27 -123 -45.5t-162 -18.5q-205 0 -205 239v668h-178v96h182v307h182v-307h283v-96h-281v-551
q0 -129 21 -167t53 -53t107 -15z" />
    <glyph glyph-name="Tbar" unicode="&#x166;" horiz-adv-x="1267" 
d="M1251 1034h-69q-20 81 -68 153q-90 137 -151 145q-62 9 -165 9h-58v-557h311v-91h-311v-487q0 -76 63 -103q18 -7 75.5 -19t89.5 -13v-71h-670v71q132 9 165 23q64 26 64 103v496h-311v91h311v557h-58q-98 0 -148 -6t-85.5 -41.5t-81 -104t-69.5 -155.5h-70v385h1236
v-385z" />
    <glyph glyph-name="tbar" unicode="&#x167;" horiz-adv-x="707" 
d="M560 100q75 0 121 16v-73q-65 -27 -123 -45.5t-162 -18.5q-205 0 -205 239v265h-170v85h170v318h-178v96h182v307h182v-307h283v-96h-281v-318h233v-85h-233v-148q0 -129 21 -167t53 -53t107 -15z" />
    <glyph glyph-name="Utilde" unicode="&#x168;" horiz-adv-x="1549" 
d="M1303 1032v-617q0 -223 -178 -348q-148 -101 -334 -101q-248 0 -390 119q-141 119 -141 289v839q0 69 -53 99t-133 36v71h591v-71q-155 -6 -179 -64q-12 -28 -11 -61v-784q0 -146 62 -236q89 -125 292 -125q204 0 300 127q75 99 75 232v582q0 229 -63 274q-35 25 -95 39
t-93 16v71h580v-71q-28 -1 -82 -12q-54 -12 -88 -34q-60 -40 -60 -270zM636 1695q-34 0 -50 -8q-16 -9 -32 -27t-32 -48t-30 -53l-58 25q26 83 71 138q87 105 172 105q84 0 177 -52q38 -21 64 -36t82 -15t80 30q25 30 57 104l61 -23q-23 -88 -94 -166q-71 -77 -159 -77
t-176 51q-35 20 -67 36t-66 16z" />
    <glyph glyph-name="utilde" unicode="&#x169;" horiz-adv-x="1178" 
d="M793 135h-6q-72 -75 -120 -103q-48 -29 -90 -43t-119 -14q-132 -1 -200 85t-68 249v472q0 66 -53 103q-30 20 -102 25v65l329 24l15 -14v-685q0 -107 48 -161t109 -54q136 0 224 102q20 24 31 43v559q0 64 -53 102q-21 14 -133 19v65l358 24l15 -14v-783q0 -63 53 -99
q27 -17 98 -19v-65l-321 -22l-15 14v125zM396 1327q-34 0 -50 -8q-16 -9 -32 -27t-33 -48q-16 -30 -30 -53l-58 25q26 83 71 138q87 105 172 105q84 0 177 -52q38 -21 64 -36t82 -15t80 30q25 30 57 104l61 -23q-23 -88 -94 -166q-71 -77 -159 -77t-176 51q-34 20 -66 36
t-66 16z" />
    <glyph glyph-name="Umacron" unicode="&#x16a;" horiz-adv-x="1549" 
d="M1303 1032v-617q0 -223 -178 -348q-148 -101 -334 -101q-248 0 -390 119q-141 119 -141 289v839q0 69 -53 99t-133 36v71h591v-71q-155 -6 -179 -64q-12 -28 -11 -61v-784q0 -146 62 -236q89 -125 292 -125q204 0 300 127q75 99 75 232v582q0 229 -63 274q-35 25 -95 39
t-93 16v71h580v-71q-28 -1 -82 -12q-54 -12 -88 -34q-60 -40 -60 -270zM1154 1657h-686v128h686v-128z" />
    <glyph glyph-name="umacron" unicode="&#x16b;" horiz-adv-x="1178" 
d="M793 135h-6q-72 -75 -120 -103q-48 -29 -90 -43t-119 -14q-132 -1 -200 85t-68 249v472q0 66 -53 103q-30 20 -102 25v65l329 24l15 -14v-685q0 -107 48 -161t109 -54q136 0 224 102q20 24 31 43v559q0 64 -53 102q-21 14 -133 19v65l358 24l15 -14v-783q0 -63 53 -99
q27 -17 98 -19v-65l-321 -22l-15 14v125zM912 1291h-686v128h686v-128z" />
    <glyph glyph-name="Ubreve" unicode="&#x16c;" horiz-adv-x="1549" 
d="M1303 1032v-617q0 -223 -178 -348q-148 -101 -334 -101q-248 0 -390 119q-141 119 -141 289v839q0 69 -53 99t-133 36v71h591v-71q-155 -6 -179 -64q-12 -28 -11 -61v-784q0 -146 62 -236q89 -125 292 -125q204 0 300 127q75 99 75 232v582q0 229 -63 274q-35 25 -95 39
t-93 16v71h580v-71q-28 -1 -82 -12q-54 -12 -88 -34q-60 -40 -60 -270zM818 1678q114 0 174 48t89 141l55 -16q-54 -321 -316 -321q-269 0 -320 321l55 16q29 -93 89 -141t174 -48z" />
    <glyph glyph-name="ubreve" unicode="&#x16d;" horiz-adv-x="1178" 
d="M793 135h-6q-72 -75 -120 -103q-48 -29 -90 -43t-119 -14q-132 -1 -200 85t-68 249v472q0 66 -53 103q-30 20 -102 25v65l329 24l15 -14v-685q0 -107 48 -161t109 -54q136 0 224 102q20 24 31 43v559q0 64 -53 102q-21 14 -133 19v65l358 24l15 -14v-783q0 -63 53 -99
q27 -17 98 -19v-65l-321 -22l-15 14v125zM548 1127q-261 0 -312 368l55 12q33 -109 72 -152t79 -61t104 -17q117 0 172 59t89 171l55 -12q-28 -189 -106 -279t-208 -89z" />
    <glyph glyph-name="Uring" unicode="&#x16e;" horiz-adv-x="1549" 
d="M1303 1032v-617q0 -223 -178 -348q-148 -101 -334 -101q-248 0 -390 119q-141 119 -141 289v839q0 69 -53 99t-133 36v71h591v-71q-155 -6 -179 -64q-12 -28 -11 -61v-784q0 -146 62 -236q89 -125 292 -125q204 0 300 127q75 99 75 232v582q0 229 -63 274q-35 25 -95 39
t-93 16v71h580v-71q-28 -1 -82 -12q-54 -12 -88 -34q-60 -40 -60 -270zM940 1640q0 70 -34 115t-97 45q-65 0 -99 -43t-34 -113t34 -116q34 -45 98 -45t98 44q34 43 34 113zM1066 1644q0 -100 -71 -162t-187 -63q-116 0 -188 61q-70 60 -70 160t75 162t185 62t183 -60
t73 -160z" />
    <glyph glyph-name="uring" unicode="&#x16f;" horiz-adv-x="1178" 
d="M793 135h-6q-72 -75 -120 -103q-48 -29 -90 -43t-119 -14q-132 -1 -200 85t-68 249v472q0 66 -53 103q-30 20 -102 25v65l329 24l15 -14v-685q0 -107 48 -161t109 -54q136 0 224 102q20 24 31 43v559q0 64 -53 102q-21 14 -133 19v65l358 24l15 -14v-783q0 -63 53 -99
q27 -17 98 -19v-65l-321 -22l-15 14v125zM698 1336q0 70 -34 114q-34 45 -97 45q-65 0 -99 -43q-34 -44 -34 -114t34 -115t98 -45t98 44t34 114zM824 1338q0 -100 -71 -162t-187 -62t-188 61q-70 61 -70 161t75 161q75 62 185 62q110 -1 183 -61t73 -160z" />
    <glyph glyph-name="Uhungarumlaut" unicode="&#x170;" horiz-adv-x="1549" 
d="M1303 1032v-617q0 -223 -178 -348q-148 -101 -334 -101q-248 0 -390 119q-141 119 -141 289v839q0 69 -53 99t-133 36v71h591v-71q-155 -6 -179 -64q-12 -28 -11 -61v-784q0 -146 62 -236q89 -125 292 -125q204 0 300 127q75 99 75 232v582q0 229 -63 274q-35 25 -95 39
t-93 16v71h580v-71q-28 -1 -82 -12q-54 -12 -88 -34q-60 -40 -60 -270zM1209 1867q34 0 57 -26q23 -25 23 -61q1 -59 -73 -98q-74 -38 -120 -60t-195 -115l-29 36q168 188 224 256q57 68 113 68zM820 1867q34 0 57 -26q23 -25 23 -61q0 -59 -74 -98q-74 -38 -116 -60
q-44 -22 -193 -115l-29 36q109 122 219 255q57 69 113 69z" />
    <glyph glyph-name="uhungarumlaut" unicode="&#x171;" horiz-adv-x="1178" 
d="M793 135h-6q-72 -75 -120 -103q-48 -29 -90 -43t-119 -14q-132 -1 -200 85t-68 249v472q0 66 -53 103q-30 20 -102 25v65l329 24l15 -14v-685q0 -107 48 -161t109 -54q136 0 224 102q20 24 31 43v559q0 64 -53 102q-21 14 -133 19v65l358 24l15 -14v-783q0 -63 53 -99
q27 -17 98 -19v-65l-321 -22l-15 14v125zM654 1456q0 -32 -12 -55t-46 -53t-98 -88t-168 -150l-37 28q101 171 148 265q47 95 71 115t60 20t58 -25q24 -25 24 -57zM1026 1456q0 -34 -16 -58t-91 -89q-76 -66 -235 -199l-35 28q110 177 161 268q50 92 74 112t60 20t58 -24
q24 -24 24 -58z" />
    <glyph glyph-name="Uogonek" unicode="&#x172;" horiz-adv-x="1549" 
d="M761 -33q-98 0 -198 33t-201.5 119.5t-101.5 254.5v839q0 69 -53 99t-133 36v71h591v-71q-154 -6 -172 -49t-18 -76v-784q0 -146 62 -236q89 -125 292 -125q204 0 300 127q75 99 75 232v582q0 229 -63 274q-35 25 -95.5 39t-92.5 16v71h580v-71q-28 -1 -82 -12.5
t-88 -33.5q-60 -40 -60 -270v-617q0 -223 -178 -348q-36 -24 -58 -35q-131 -108 -131 -224q0 -62 21 -122.5t203 -57.5v-72h-115q-128 0 -197.5 52.5t-69.5 141.5q0 115 149 232q-68 -15 -166 -15z" />
    <glyph glyph-name="uogonek" unicode="&#x173;" horiz-adv-x="1178" 
d="M696 -250q0 131 175 250l-63 -4l-15 14v125h-6q-72 -75 -120 -103q-48 -29 -90 -43t-119 -14q-131 0 -199.5 85.5t-68.5 248.5v472q0 66 -53 103q-30 20 -102 25v65l329 24l15 -14v-685q0 -107 48 -161t109 -54q135 0 189.5 62.5t65.5 82.5v559q0 64 -53 102
q-21 14 -133 19v65l358 24l15 -14v-783q0 -63 53 -99q27 -17 98 -19v-65l-174 -12q-101 -94 -101 -223q0 -158 224 -155v-72h-115q-128 0 -197.5 52.5t-69.5 141.5z" />
    <glyph glyph-name="Wcircumflex" unicode="&#x174;" horiz-adv-x="1998" 
d="M1710 1260q0 73 -197 88v71h515v-71q-59 -2 -106 -32q-48 -30 -70 -58t-37 -79q-71 -231 -165 -539t-203 -658h-92l-358 1092l-373 -1092h-88q-137 486 -347 1231q-36 123 -193 135v71h579v-71q-183 -10 -183 -52q0 -34 74 -290t189 -660l354 1053h98l357 -1076
q218 749 240 879q6 34 6 58zM1062 1868q40 0 56 -11t30 -30l236 -288l-48 -32l-279 212l-275 -212l-48 32l234 284q18 21 36 33t58 12z" />
    <glyph glyph-name="wcircumflex" unicode="&#x175;" horiz-adv-x="1510" 
d="M-5 986h440v-70q-33 -1 -71 -11t-39 -33q1 -9 63 -209t126 -407l252 710h96l257 -700q43 134 85 260t62 193t26 89t7 42q1 35 -47 53q-48 19 -86 19v64h375v-64q-43 -4 -91 -35t-70 -93q-230 -676 -264 -801h-86l-265 726l-267 -726h-82q-74 223 -146 441t-127 380
q-16 47 -61 74t-87 32v66zM817 1542q41 0 56 -10t29 -31l239 -351l-48 -32l-279 273l-275 -273l-48 32l237 347q16 25 32 35t57 10z" />
    <glyph glyph-name="Ycircumflex" unicode="&#x176;" horiz-adv-x="1260" 
d="M1009 1273q0 59 -125 69q-34 2 -63 6v71h493v-71q-17 -2 -54 -14q-36 -12 -64 -30t-42 -31q-72 -67 -363 -578q-37 -64 -49 -103t-12 -113v-271q0 -76 64 -105q21 -7 75 -19t87 -13v-71h-664v71q131 9 165 23q60 25 60 104v345q0 55 -326 635q-56 96 -117 137
q-44 28 -118 33v71h605v-71q-186 -4 -186 -48q0 -18 36 -85t71 -135t205 -371q322 519 322 564zM680 1868q40 0 56 -11t30 -30l236 -288l-48 -32l-279 212l-275 -212l-48 32l234 284q18 21 36 33t58 12z" />
    <glyph glyph-name="ycircumflex" unicode="&#x177;" horiz-adv-x="1008" 
d="M-3 -321q-1 49 27 81t64 31q78 0 133 -84q17 -26 27 -43q50 27 120 141t100 200q-159 398 -333 811q-19 46 -64 72t-90 32v66h450v-70q-30 0 -72 -12t-42 -27q1 -21 105 -271t147 -362q45 108 93 222t82 202t47 120q13 34 13 59t-46 47t-86 28v64h366v-62q-30 -4 -79 -34
t-73 -84q-120 -276 -212 -503t-148 -351q-105 -233 -201 -325q-78 -71 -158 -71q-81 0 -125 37t-45 86zM530 1542q41 0 56 -10t29 -31l239 -351l-48 -32l-279 273l-275 -273l-48 32l237 347q17 25 33 35t56 10z" />
    <glyph glyph-name="Ydieresis" unicode="&#x178;" horiz-adv-x="1260" 
d="M1009 1273q0 59 -125 69q-34 2 -63 6v71h493v-71q-17 -2 -54 -14q-36 -12 -64 -30t-42 -31q-72 -67 -363 -578q-37 -64 -49 -103t-12 -113v-271q0 -76 64 -105q21 -7 75 -19t87 -13v-71h-664v71q131 9 165 23q60 25 60 104v345q0 55 -326 635q-56 96 -117 137
q-44 28 -118 33v71h605v-71q-186 -4 -186 -48q0 -18 36 -85t71 -135t205 -371q322 519 322 564zM562 1730q0 -51 -34 -87t-84 -36t-84 36t-34 87t34 87t84 36t84 -36t34 -87zM1012 1730q0 -51 -34 -87t-84 -36t-84 36t-34 87t34 87t84 36t84 -36t34 -87z" />
    <glyph glyph-name="Zacute" unicode="&#x179;" horiz-adv-x="1232" 
d="M27 0v35l893 1305h-327q-113 0 -172 -12q-61 -12 -143 -107q-82 -96 -124 -203h-70l43 401h1063v-35l-893 -1305h337q85 0 181 12t125 41q65 62 121 152t83 159h70l-47 -443h-1140zM851 1868q34 0 61 -23t27 -61q0 -62 -92 -109q-45 -23 -137 -67t-209 -101l-31 39
q176 168 264 261q57 61 117 61z" />
    <glyph glyph-name="zacute" unicode="&#x17a;" horiz-adv-x="909" 
d="M280 81q72 -2 168 -2q97 0 199 6q64 3 92 84q27 72 54 179h60v-348h-798v53l558 852h-138q-169 0 -219 -20q-64 -26 -102 -202h-61v303h754v-41zM730 1456q0 -34 -18 -58t-59 -58q-43 -34 -123 -95q-80 -62 -173 -135l-38 32q130 192 182 276q51 84 80 102t66 18t60 -24
t23 -58z" />
    <glyph glyph-name="Zdotaccent" unicode="&#x17b;" horiz-adv-x="1232" 
d="M27 0v35l893 1305h-327q-113 0 -172 -12q-61 -12 -143 -107q-82 -96 -124 -203h-70l43 401h1063v-35l-893 -1305h337q85 0 181 12t125 41q65 62 121 152t83 159h70l-47 -443h-1140zM765 1735q1 -53 -37 -95t-91 -42t-91 39t-37 93q-1 54 37 94t92 40t90 -38t37 -91z" />
    <glyph glyph-name="zdotaccent" unicode="&#x17c;" horiz-adv-x="909" 
d="M280 81q72 -2 168 -2q97 0 199 6q64 3 92 84q27 72 54 179h60v-348h-798v53l558 852h-138q-169 0 -219 -20q-64 -26 -102 -202h-61v303h754v-41zM594 1384q0 -54 -38 -96t-90 -41q-52 0 -90 39t-38 93t38 94t91 40q55 1 91 -37t36 -92z" />
    <glyph glyph-name="Zcaron" unicode="&#x17d;" horiz-adv-x="1232" 
d="M27 0v35l893 1305h-327q-113 0 -172 -12q-61 -12 -143 -107q-82 -96 -124 -203h-70l43 401h1063v-35l-893 -1305h337q85 0 181 12t125 41q65 62 121 152t83 159h70l-47 -443h-1140zM630 1507q-44 0 -60 11t-31 30l-236 288l48 32l279 -214l275 214l48 -32l-234 -284
q-21 -26 -33 -36t-56 -9z" />
    <glyph glyph-name="zcaron" unicode="&#x17e;" horiz-adv-x="909" 
d="M280 81q72 -2 168 -2q97 0 199 6q64 3 92 84q27 72 54 179h60v-348h-798v53l558 852h-138q-169 0 -219 -20q-64 -26 -102 -202h-61v303h754v-41zM458 1118q-44 0 -58 11t-31 34l-237 347l48 32l275 -273l279 273l48 -32l-239 -351q-17 -21 -29 -31t-56 -10z" />
    <glyph glyph-name="longs" unicode="&#x17f;" horiz-adv-x="613" 
d="M384 1073v-895q0 -69 56 -90q41 -15 125 -22v-66h-512v66q23 2 47.5 4t47.5 10q50 16 50 88v883q0 219 117.5 358.5t290.5 139.5q89 0 134 -34.5t45 -82.5t-24 -79t-64 -31t-63.5 13t-43.5 35t-37 50t-29 45q-140 -6 -140 -392z" />
    <glyph glyph-name="florin" unicode="&#x192;" horiz-adv-x="1063" 
d="M1054 1170q0 -111 -72.5 -111t-114 41t-83.5 134q-83 -13 -134 -104.5t-74 -290.5l-14 -121h257v-96h-266q-25 -262 -50 -422q-47 -303 -187 -447q-122 -122 -290 -122q-96 0 -149 40.5t-53 92.5t25 82t72 30t88.5 -39t84.5 -134q81 11 129.5 109t77.5 296t61 514h-204
v96h213q35 309 169 449q134 139 312 139q94 0 148 -41t54 -95z" />
    <glyph glyph-name="Aringacute" unicode="&#x1fa;" horiz-adv-x="1374" 
d="M829 1430q0 62 -33.5 105.5t-97.5 43.5t-98.5 -41.5t-34.5 -105.5t34 -108t98 -44t98 44t34 106zM834 580l-197 467l-198 -467h395zM1011 128q0 25 -8 45l-132 318h-470q-29 -70 -53 -124t-42 -112t-18 -97t63 -61t142 -26v-71h-534v71q127 10 171 67t66 108
q95 224 211 496.5t203 482.5q-69 17 -120 68t-51 123q0 132 112 193q99 78 189 155q90 78 116 91t60 13t60.5 -23.5t26.5 -62.5q0 -70 -103 -107q-30 -10 -56.5 -20.5t-60.5 -22.5q77 -20 124.5 -74.5t47.5 -132.5t-50 -130t-119 -68l425 -1012q59 -138 210 -144v-71h-591
v71q181 12 181 57z" />
    <glyph glyph-name="aringacute" unicode="&#x1fb;" horiz-adv-x="1032" 
d="M767 1758q0 -64 -92 -108q-44 -22 -136.5 -66.5t-209.5 -101.5l-31 39q175 167 234 230t86 77.5t61 14.5t61 -23.5t27 -61.5zM625 1210q0 70 -33.5 115t-97.5 45t-98.5 -43t-34.5 -113t34 -115.5t98 -45.5t98 43.5t34 113.5zM281 236q0 -74 43.5 -112.5t112.5 -38.5
q123 0 214 116l6 345q-184 -54 -268 -109q-108 -74 -108 -201zM389 1004q-154 48 -154 218q0 88 75 150t185 62t183 -60t73 -146t-41.5 -143t-109.5 -79q79 -8 134 -49q109 -80 109 -268l-6 -495q0 -70 55 -101q18 -11 114 -11v-64q-105 -38 -163 -38q-157 0 -184 143h-6
q-65 -72 -139.5 -110t-182.5 -38t-179.5 68.5t-71.5 178.5t64 182q44 52 116 80t209.5 74t185.5 72v99q0 120 -61.5 166t-117.5 46t-95.5 -15.5t-55.5 -32.5q0 -20 9.5 -59t9.5 -73t-31.5 -63t-84.5 -29t-76.5 35.5t-23.5 80.5q0 88 117 162q61 37 144 57z" />
    <glyph glyph-name="AEacute" unicode="&#x1fc;" horiz-adv-x="1988" 
d="M948 690v641h-77l-354 -641h431zM596 1419h1238v-342h-75q-19 75 -86 161t-128 94t-171 8h-213v-564h150q77 0 113 14q100 40 120 218h75v-555h-75q-10 119 -64 187q-25 32 -64 43q-39 12 -105 12h-150v-426q0 -125 44 -157q43 -30 174 -30h111q176 0 220 48t94 144
q50 98 65 144h72l-27 -418h-1168v71q118 10 147 23q55 25 55 99v409h-480q-84 -138 -138 -247q-54 -110 -63 -136t-9 -49q0 -89 168 -99v-71h-523v71q123 9 193 91q71 82 670 1164q-44 16 -170 22v71zM1427 1868q34 0 61 -23t27 -61q0 -62 -92 -109q-45 -23 -137 -67
t-209 -101l-31 39q176 168 264 261q57 61 117 61z" />
    <glyph glyph-name="aeacute" unicode="&#x1fd;" horiz-adv-x="1509" 
d="M425 86q131 0 219 108v343q-262 -52 -335 -178q-28 -48 -28 -121q-1 -72 39 -112t105 -40zM1246 631q0 308 -195 308q-101 -1 -163 -91t-63 -217h421zM783 893q116 121 295 121t277 -122q88 -107 88 -285v-58h-618q0 -465 306 -465q104 0 164 52t103 140l70 -43
q-58 -123 -160 -191t-226 -68q-125 0 -213 46t-157 142h-6q-78 -100 -164 -144t-201 -44t-187 66t-73 180q-1 167 127 244q36 22 125 58q88 36 164 57q76 22 145 43v107q0 121 -82 185q-34 28 -88 27q-54 1 -94 -15t-55 -33q-1 -20 9 -59t10 -73t-32 -63t-84 -29
q-52 -1 -76 35t-24 82q0 86 115 160q104 68 254 68q204 0 288 -121zM1080 1456q0 -34 -18 -58t-59 -58q-43 -34 -123 -95q-80 -62 -173 -135l-38 32q130 192 182 276q51 84 80 102t66 18t60 -24t23 -58z" />
    <glyph glyph-name="Oslashacute" unicode="&#x1fe;" horiz-adv-x="1524" 
d="M426 243q116 -189 336 -189t331 184q112 184 112 447q0 262 -65 417zM1098 1176q-118 189 -339 189t-340 -203q-100 -172 -100 -432t66 -415zM272 180q-192 211 -192 535t203 536q94 99 219 151t260 52q247 0 433 -161l151 183l65 -52l-158 -188q191 -213 191 -528
q0 -172 -56 -310t-148 -234q-194 -200 -478 -199q-249 0 -433 160l-174 -210l-64 50zM917 1868q34 0 61 -23t27 -61q0 -62 -92 -109q-45 -23 -137 -67t-209 -101l-31 39q176 168 264 261q57 61 117 61z" />
    <glyph glyph-name="oslashacute" unicode="&#x1ff;" horiz-adv-x="1104" 
d="M340 179q73 -133 212 -133t208 131q70 131 70 300t-34 271zM763 815q-70 123 -213 123t-218 -142q-59 -112 -59 -275t34 -273zM901 122q-132 -152 -359 -152q-159 0 -287 105q-97 -117 -126 -156l-58 43l133 163q-134 149 -134 372t134 370t353 147q167 0 289 -97
l111 141l58 -44l-118 -145q136 -147 136 -371t-132 -376zM743 1456q1 -34 -17 -58t-60 -58t-122 -95q-80 -62 -174 -135l-38 32q130 192 182 276q51 84 80 102t66 18t60 -24t23 -58z" />
    <glyph glyph-name="circumflex" unicode="&#x2c6;" 
d="M513 1542q41 0 56 -10.5t29 -30.5l239 -351l-48 -32l-279 273l-275 -273l-48 32l237 347q17 25 32.5 35t56.5 10z" />
    <glyph glyph-name="caron" unicode="&#x2c7;" 
d="M513 1118q-44 0 -58.5 11t-30.5 34l-237 347l48 32l275 -273l279 273l48 -32l-239 -351q-17 -22 -29 -31.5t-56 -9.5z" />
    <glyph glyph-name="macron" unicode="&#x2c9;" 
d="M855 1291h-686v128h686v-128z" />
    <glyph glyph-name="breve" unicode="&#x2d8;" 
d="M511 1127q-261 0 -312 368l55 12q33 -109 72 -152q40 -43 79.5 -60.5t103.5 -17.5q117 0 172 59t89 171l55 -12q-28 -189 -105.5 -278.5t-208.5 -89.5z" />
    <glyph glyph-name="dotaccent" unicode="&#x2d9;" 
d="M640 1384q0 -54 -37.5 -95.5t-90.5 -41.5t-90.5 39t-37.5 93t37.5 94t91.5 40t90.5 -37.5t36.5 -91.5z" />
    <glyph glyph-name="ring" unicode="&#x2da;" 
d="M644 1336q0 70 -33.5 114.5t-97.5 44.5t-98.5 -43.5t-34.5 -113.5t34 -115t98 -45t98 44t34 114zM770 1338q0 -100 -71 -162t-187 -62t-187 61t-71 161t75 161.5t185 61.5t183 -60.5t73 -160.5z" />
    <glyph glyph-name="ogonek" unicode="&#x2db;" 
d="M464 -217q0 -158 224 -155v-72h-115q-128 0 -197.5 52.5t-69.5 141.5q0 152 236 289h61q-139 -109 -139 -256z" />
    <glyph glyph-name="tilde" unicode="&#x2dc;" 
d="M332 1327q-34 0 -50 -8.5t-32 -26.5t-32 -47.5t-30 -53.5l-58 25q26 83 71 138q87 105 172 105q84 0 177 -52q38 -21 64 -36t82 -15t80 30q25 30 57 104l61 -23q-23 -88 -94 -166q-71 -77 -159 -77t-176 51q-35 20 -67 36t-66 16z" />
    <glyph glyph-name="hungarumlaut" unicode="&#x2dd;" 
d="M554 1456q0 -32 -12 -55t-46 -53t-97.5 -88.5t-168.5 -149.5l-37 28q101 171 148 265t71 114.5t60 20.5t59 -25t23 -57zM926 1456q0 -34 -15.5 -57.5t-91.5 -89.5t-235 -199l-35 28q110 177 161 268q50 91 74 111.5t60 20.5t59 -24t23 -58z" />
    <glyph glyph-name="tonos" unicode="&#x384;" 
d="M370 1558h283v-20q-69 -187 -112 -399h-59q-42 206 -112 399v20z" />
    <glyph glyph-name="dieresistonos" unicode="&#x385;" 
d="M353 1354q0 -51 -33.5 -87t-82.5 -36t-82.5 36t-33.5 87t33.5 87t82.5 36t82.5 -36t33.5 -87zM903 1354q0 -51 -33.5 -87t-82.5 -36t-82.5 36t-33.5 87t33.5 87t82.5 36t82.5 -36t33.5 -87zM380 1628h263v-20q-49 -136 -102 -399h-59q-55 271 -102 399v20z" />
    <glyph glyph-name="Alphatonos" unicode="&#x386;" horiz-adv-x="1384" 
d="M859 580l-215 550l-211 -550h426zM298 159q0 -40 63 -62t142 -26v-71h-534v71q129 9 191 93q22 30 43 82q107 267 236 600t230 593h80l473 -1224q27 -69 82 -105q56 -36 127 -39v-71h-591v71q181 12 181 57q0 25 -8 45l-118 318h-497q-100 -250 -100 -332zM30 1489h283
v-20q-69 -187 -112 -399h-59q-42 206 -112 399v20z" />
    <glyph glyph-name="anoteleia" unicode="&#x387;" horiz-adv-x="640" 
d="M457 853q0 -56 -40.5 -96t-96.5 -40t-96.5 40t-40.5 96t40 96.5t97 40.5t97 -40.5t40 -96.5z" />
    <glyph glyph-name="Epsilontonos" unicode="&#x388;" horiz-adv-x="1635" 
d="M383 0v71q114 8 146 22q56 26 56 100v1020q0 74 -58 101t-144 34v71h1098v-342h-75q-20 75 -86 161t-128 94q-61 8 -171 8h-223v-564h160q76 0 112 14q100 41 121 218h75v-555h-75q-10 118 -59 180t-174 62h-160v-426q0 -125 44 -157q41 -30 174 -30h112q183 0 228 48
q46 48 96 144q50 98 64 144h72l-27 -418h-1178zM0 1489h283v-20q-69 -187 -112 -399h-59q-42 206 -112 399v20z" />
    <glyph glyph-name="Etatonos" unicode="&#x389;" horiz-adv-x="1966" 
d="M1864 0h-589v71q114 9 138 20q52 22 52 98v505h-667v-494q0 -71 52 -98t134 -31v-71h-589v71q114 9 138 20q52 22 52 98v1024q0 73 -60 101q-60 29 -130 34v71h589v-71q-150 -5 -174 -64q-12 -28 -12 -61v-440h667v430q0 73 -60 101q-60 29 -130 34v71h589v-71
q-150 -5 -174 -64q-12 -28 -12 -61v-1023q0 -71 52 -98t134 -31v-71zM0 1489h283v-20q-69 -187 -112 -399h-59q-42 206 -112 399v20z" />
    <glyph glyph-name="Iotatonos" unicode="&#x38a;" horiz-adv-x="1091" 
d="M1011 0h-639v71q128 9 155 20q58 22 58 96v1028q0 35 -11 59t-69 46q-58 23 -133 28v71h639v-71q-172 -6 -200 -63q-13 -27 -13 -60v-1027q0 -72 64 -99q67 -26 149 -28v-71zM0 1489h283v-20q-69 -187 -112 -399h-59q-42 206 -112 399v20z" />
    <glyph glyph-name="Omicrontonos" unicode="&#x38c;" horiz-adv-x="1744" 
d="M1315 245q107 174 107 469t-114 472q-114 178 -333 178q-218 0 -334 -202q-99 -174 -99 -460t111 -467q111 -180 329 -180q107 0 193 50t140 140zM1464 1251q200 -209 200 -544t-204 -541q-194 -200 -478 -200q-148 0 -274 56t-215 153q-89 99 -141 237t-52 304
q0 324 203 535q193 202 481 202q138 0 264 -53q125 -53 216 -149zM0 1489h283v-20q-69 -187 -112 -399h-59q-42 206 -112 399v20z" />
    <glyph glyph-name="Upsilontonos" unicode="&#x38e;" horiz-adv-x="1640" 
d="M1389 1273q0 59 -125 69q-34 2 -63 6v71h493v-71q-17 -2 -54 -14q-36 -12 -64 -30t-42 -31q-72 -67 -363 -578q-37 -64 -49 -103t-12 -113v-271q0 -76 64 -105q21 -7 75 -19t87 -13v-71h-664v71q131 9 165 23q60 25 60 104v345q0 55 -326 635q-56 96 -117 137
q-44 28 -118 33v71h605v-71q-186 -4 -186 -48q0 -18 36 -85t71 -135t205 -371q322 519 322 564zM0 1489h283v-20q-69 -187 -112 -399h-59q-42 206 -112 399v20z" />
    <glyph glyph-name="Omegatonos" unicode="&#x38f;" horiz-adv-x="1795" 
d="M1107 0v68q61 87 121 175t98 172q82 173 82 349q0 251 -76 399q-106 201 -334 201q-227 0 -330 -202q-77 -148 -77 -364t85 -390q49 -105 216 -340v-68h-593l-69 388h69q42 -103 65 -137q48 -75 114 -75h230v33q-190 214 -247 305q-111 181 -111 394q0 212 182 377
q84 76 206 122t264 46q144 -1 264 -47t205 -124q178 -162 178 -374t-101 -379q-71 -114 -257 -320v-33h227q90 0 150 142q14 33 29 70h69l-69 -388h-590zM0 1489h283v-20q-69 -187 -112 -399h-59q-42 206 -112 399v20z" />
    <glyph glyph-name="iotadieresistonos" unicode="&#x390;" horiz-adv-x="605" 
d="M122 1354q0 -51 -33.5 -87t-82.5 -36t-82.5 36t-33.5 87t33.5 87t82.5 36t82.5 -36t33.5 -87zM652 1354q0 -51 -33.5 -87t-82.5 -36t-82.5 36t-33.5 87t33.5 87t82.5 36t82.5 -36t33.5 -87zM139 1628h263v-20q-49 -136 -102 -399h-59q-55 271 -102 399v20zM390 209
q0 -64 38.5 -97.5t104.5 -33.5q17 0 65 3v-64q-256 -87 -325.5 -6.5t-69.5 184.5l2 584q0 66 -52 103q-37 23 -121 29v65l344 22l14 -14v-775z" />
    <glyph glyph-name="Alpha" unicode="&#x391;" horiz-adv-x="1374" 
d="M849 580l-215 550l-211 -550h426zM288 159q0 -40 63 -62t142 -26v-71h-534v71q129 9 191 93q22 30 43 82q107 267 236 600t230 593h80l473 -1224q27 -69 82 -105q56 -36 127 -39v-71h-591v71q181 12 181 57q0 25 -8 45l-118 318h-497q-100 -250 -100 -332z" />
    <glyph glyph-name="Beta" unicode="&#x392;" horiz-adv-x="1339" 
d="M501 206q0 -127 193 -127q149 0 228 87t79 256q-1 126 -85 207t-241 81q-86 0 -174 -4v-500zM663 1340q-30 0 -162 -4v-545h127q163 0 232 80t69 208q0 261 -266 261zM1104 661q144 -98 144 -279q0 -182 -155 -288q-137 -94 -326 -94h-672v71q101 8 134 23q59 26 59 99
v1020q0 75 -56 102t-130 33v71h655q165 0 278 -68q135 -80 135 -241q0 -206 -208 -302q-60 -28 -129 -42v-9q162 -19 271 -96z" />
    <glyph glyph-name="Gamma" unicode="&#x393;" horiz-adv-x="1195" 
d="M1179 1022h-75q-24 94 -67 165q-43 70 -76.5 103.5t-86.5 41.5t-169 8h-204v-1138q0 -69 64 -101q20 -9 72.5 -19t85.5 -11v-71h-637v71q124 8 150 20q52 23 52 98v1024q0 74 -58 101t-144 34v71h1093v-397z" />
    <glyph glyph-name="Delta" unicode="&#x394;" horiz-adv-x="1353" 
d="M1052 172l-424 992l-451 -992h875zM1334 0h-1315v50l640 1389h78l597 -1389v-50z" />
    <glyph glyph-name="Epsilon" unicode="&#x395;" horiz-adv-x="1338" 
d="M86 0v71q114 8 146 22q56 26 56 100v1020q0 74 -58 101t-144 34v71h1098v-342h-75q-21 75 -87 161t-127 94t-171 8h-223v-564h160q77 0 113 14q100 41 120 218h75v-555h-75q-10 118 -59 180t-174 62h-160v-426q0 -125 44 -157q41 -30 174 -30h112q183 0 228 48t95 144
q50 98 65 144h72l-27 -418h-1178z" />
    <glyph glyph-name="Zeta" unicode="&#x396;" horiz-adv-x="1232" 
d="M27 0v35l893 1305h-327q-113 0 -172 -12q-61 -12 -143 -107q-82 -96 -124 -203h-70l43 401h1063v-35l-893 -1305h337q85 0 181 12t125 41q65 62 121 152t83 159h70l-47 -443h-1140z" />
    <glyph glyph-name="Eta" unicode="&#x397;" horiz-adv-x="1669" 
d="M1567 0h-589v71q114 9 138 20q52 22 52 98v505h-667v-494q0 -71 52 -98t134 -31v-71h-589v71q114 9 138 20q52 22 52 98v1024q0 73 -60 101q-60 29 -130 34v71h589v-71q-151 -5 -175 -64q-12 -28 -11 -61v-440h667v430q0 73 -60 101q-60 29 -130 34v71h589v-71
q-151 -5 -175 -64q-12 -28 -11 -61v-1023q0 -71 52 -98t134 -31v-71z" />
    <glyph glyph-name="Theta" unicode="&#x398;" horiz-adv-x="1524" 
d="M1046 481h-66q-16 84 -34 111q-18 28 -60 34.5t-135 6.5t-124 -7.5t-49 -33.5t-34 -111h-66v455h66q13 -77 41 -119q11 -18 45 -24.5t128 -6.5t132 6.5t57 36.5t33 107h66v-455zM1097 244q108 176 108 472t-116 472t-334 176q-219 0 -335 -202q-101 -173 -101 -460
t113 -467t330 -180q111 0 196.5 51t138.5 138zM1244 1251q200 -209 200 -544t-204 -541q-194 -200 -478 -200q-148 0 -273.5 55.5t-215.5 153.5t-141.5 236.5t-51.5 304.5q0 324 203 535q193 202 481 202q138 0 263.5 -53t216.5 -149z" />
    <glyph glyph-name="Iota" unicode="&#x399;" horiz-adv-x="798" 
d="M718 0h-639v71q128 9 155 20q58 22 58 96v1028q0 35 -11 59t-69 46q-58 23 -133 28v71h639v-71q-172 -6 -200 -63q-13 -27 -13 -60v-1027q0 -72 64 -99q67 -26 149 -28v-71z" />
    <glyph glyph-name="Kappa" unicode="&#x39a;" horiz-adv-x="1422" 
d="M1008 1297q0 41 -147 51v71h532v-71q-3 0 -13 -1t-24 -2t-27 -4q-15 -3 -43 -9q-81 -17 -127 -67q-103 -117 -215 -242t-222 -228q170 -193 428 -517q78 -98 121 -130t83 -53q40 -20 121 -24v-71h-398q-220 340 -550 694h-26v-494q0 -73 58 -101q15 -7 59 -17t73 -11v-71
h-589v71q110 10 135 20q51 23 51 98v1024q0 73 -60 102t-126 33v71h589v-71q-153 -5 -178 -64q-12 -28 -12 -61v-490h20q206 174 310 294q105 121 141 175t36 95z" />
    <glyph glyph-name="Lambda" unicode="&#x39b;" horiz-adv-x="1380" 
d="M288 159q0 -73 205 -88v-71h-534v71q129 10 171 66.5t63 108.5q119 296 242 611.5t227 581.5h80l476 -1224q28 -70 83 -105q55 -36 126 -39v-71h-591v71q180 14 180 57q0 25 -8 45l-372 956q-86 -223 -193 -499t-131 -352t-24 -119z" />
    <glyph glyph-name="Mu" unicode="&#x39c;" horiz-adv-x="1899" 
d="M1806 0h-627v71q124 4 158 23q63 36 63 106v1032h-15l-484 -1209h-50l-461 1234h-13v-847q0 -224 63 -279q22 -21 91 -40t90 -20v-71h-573v71q126 11 166 44q40 32 53 90t13 194v726q0 169 -134 208q-45 13 -89 15v71h484l406 -1064l347 890q44 112 47 174h463v-71
q-156 -6 -181 -64q-12 -28 -12 -61v-1023q0 -70 58 -101q18 -11 64 -19t73 -9v-71z" />
    <glyph glyph-name="Nu" unicode="&#x39d;" horiz-adv-x="1571" 
d="M1324 1025v-1039h-87l-860 1161v-732q0 -228 63 -283q23 -22 95 -41t95 -20v-71h-582v71q27 1 91 19t80 32q35 28 48 86t13 196v699q0 109 -64 167q-32 28 -92 52q-62 24 -100 26v71h405l798 -1082v675q0 234 -62 279q-27 19 -91 37t-97 20v71h577v-71q-28 -1 -86 -16
q-58 -16 -88 -36q-56 -38 -56 -271z" />
    <glyph glyph-name="Xi" unicode="&#x39e;" horiz-adv-x="1420" 
d="M399 179l307 -5q85 0 315 5q121 3 162 114t51 140h70l-47 -433h-1094l-47 433h70q41 -116 68 -158q60 -96 145 -96zM1027 470h-70q-17 85 -36 116q-20 32 -69.5 38t-143.5 6t-141.5 -6.5t-66.5 -38.5t-37 -115h-70v479h70q15 -80 42 -124q13 -23 62 -29.5t141 -6.5
q188 -1 207 35q27 49 42 125h70v-479zM706 1248l-297 -5q-114 0 -148 -112.5t-45 -141.5h-70l27 430h1074l27 -430h-70q-11 31 -26.5 81t-35.5 86t-49 61t-103 27t-146 3t-138 1z" />
    <glyph glyph-name="Omicron" unicode="&#x39f;" horiz-adv-x="1524" 
d="M1095 245q107 174 107 469t-114 472q-114 178 -333 178q-218 0 -334 -202q-99 -174 -99 -460t111 -467q111 -180 329 -180q107 0 193 50t140 140zM1244 1251q200 -209 200 -544t-204 -541q-194 -200 -478 -200q-148 0 -274 56t-215 153q-89 99 -141 237t-52 304
q0 324 203 535q193 202 481 202q138 0 264 -53q125 -53 216 -149z" />
    <glyph glyph-name="Pi" unicode="&#x3a0;" horiz-adv-x="1655" 
d="M1553 0h-589v71q114 9 138 20q52 22 52 98v1140h-653v-1129q0 -71 52 -98t134 -31v-71h-589v71q114 9 138 20q52 22 52 98v1024q0 73 -60 101q-60 29 -130 34v71h1455v-71q-150 -5 -168 -48.5t-18 -76.5v-1023q0 -71 52 -98t134 -31v-71z" />
    <glyph glyph-name="Rho" unicode="&#x3a1;" horiz-adv-x="1249" 
d="M936 1027q0 215 -152 284q-57 26 -142 26h-141v-627h102q197 0 277 117q56 79 56 200zM1184 1069q0 -219 -164 -338q-147 -108 -360 -108h-159v-430q0 -79 59 -102q44 -17 147 -20v-71h-609v71q108 9 136 21q54 24 54 101v1024q0 35 -10 63q-20 56 -187 68v71h648
q197 1 321 -95t124 -255z" />
    <glyph glyph-name="Sigma" unicode="&#x3a3;" horiz-adv-x="1236" 
d="M24 0v35l571 636l-555 713v35h1070v-377h-71q-22 100 -84.5 189t-126.5 99t-179 10h-309l445 -572v-16l-520 -576h653q111 0 155 113.5t58 153.5h70l-47 -443h-1130z" />
    <glyph glyph-name="Tau" unicode="&#x3a4;" horiz-adv-x="1267" 
d="M1251 1034h-69q-20 81 -68 153q-90 137 -151 145q-62 9 -165 9h-58v-1135q0 -76 63 -103q17 -7 75 -19t90 -13v-71h-670v71q132 9 165 23q64 26 64 103v1144h-58q-98 0 -148 -6q-49 -5 -85 -41t-82 -104t-69 -156h-70v385h1236v-385z" />
    <glyph glyph-name="Upsilon" unicode="&#x3a5;" horiz-adv-x="1260" 
d="M1009 1273q0 59 -125 69q-34 2 -63 6v71h493v-71q-17 -2 -54 -14q-36 -12 -64 -30t-42 -31q-72 -67 -363 -578q-37 -64 -49 -103t-12 -113v-271q0 -76 64 -105q21 -7 75 -19t87 -13v-71h-664v71q131 9 165 23q60 25 60 104v345q0 55 -326 635q-56 96 -117 137
q-44 28 -118 33v71h605v-71q-186 -4 -186 -48q0 -18 36 -85t71 -135t205 -371q322 519 322 564z" />
    <glyph glyph-name="Phi" unicode="&#x3a6;" horiz-adv-x="1570" 
d="M888 219v-45q0 -72 50 -92t154 -22v-70h-601v70q111 9 137 21q54 24 54 93v45q-274 0 -444 136q-171 136 -171 384q0 204 150 338t455 134h10v27q0 69 -58 94t-135 31v70h592v-70q-154 -5 -173.5 -43t-19.5 -72v-37h10q303 0 454 -134t151 -338q0 -126 -48.5 -225
t-130.5 -163q-168 -132 -436 -132zM1266 722q0 56 -17 136t-54 138q-86 137 -264 136h-42v-832q216 0 313 162q64 109 64 260zM681 300v832h-42q-175 0 -265 -138q-70 -111 -70 -279q0 -52 9 -114.5t57 -143.5q92 -157 311 -157z" />
    <glyph glyph-name="Chi" unicode="&#x3a7;" horiz-adv-x="1455" 
d="M1045 1282q1 32 -37 47t-127 19v71h529v-71q-144 -6 -210 -80q-86 -98 -379 -498q81 -114 179 -259t178 -261t146 -157q31 -18 133 -22v-71h-664v71q183 4 183 57q0 35 -61 133q-145 232 -225 350q-88 -115 -200 -279t-112 -195t30 -47t135 -19v-71h-530v71q96 7 153 37
t124 122t167 224t177 239q-58 85 -148 215t-162 237q-72 106 -98 132q-24 26 -65 45t-134 26v71h657v-71q-58 -2 -120 -14t-63 -39q-1 -35 59 -129q140 -223 208 -320q277 375 277 436z" />
    <glyph glyph-name="Psi" unicode="&#x3a8;" horiz-adv-x="1791" 
d="M789 448q-572 18 -572 482v283q0 69 -52 99q-52 29 -133 36v71h399v-507q0 -161 71 -256q88 -115 287 -124v681q0 73 -60 102t-125 33v71h579v-71q-63 -2 -111 -19t-59 -44t-11 -62v-691q288 18 323 162t35 218v507h399v-71q-157 -14 -171 -54.5t-14 -70.5v-293
q0 -464 -572 -482v-240q0 -76 64 -105q17 -8 74 -19.5t83 -12.5v-71h-654v71q126 9 160 23q60 25 60 104v250z" />
    <glyph glyph-name="Omega" unicode="&#x3a9;" horiz-adv-x="1595" 
d="M907 0v68q61 87 120 175t99 172q82 173 82 349q0 251 -76 399q-106 201 -333.5 201t-330.5 -202q-77 -148 -77 -364t85 -390q49 -105 216 -340v-68h-593l-69 388h69q42 -103 65 -137q48 -75 114 -75h230v33q-190 214 -247 305q-111 181 -111 394q0 212 182 377
q84 76 205.5 122t264.5 46t263.5 -46.5t205.5 -124.5q178 -162 178 -374t-101 -379q-71 -114 -257 -320v-33h227q90 0 127 87.5t52 124.5h69l-69 -388h-590z" />
    <glyph glyph-name="Iotadieresis" unicode="&#x3aa;" horiz-adv-x="798" 
d="M718 0h-639v71q128 9 155 20q58 22 58 96v1028q0 35 -11 59t-69 46q-58 23 -133 28v71h639v-71q-172 -6 -200 -63q-13 -27 -13 -60v-1027q0 -72 64 -99q67 -26 149 -28v-71zM302 1730q0 -51 -34 -87t-84 -36t-84 36t-34 87t34 87t84 36t84 -36t34 -87zM732 1730
q0 -51 -34 -87t-84 -36t-84 36t-34 87t34 87t84 36t84 -36t34 -87z" />
    <glyph glyph-name="Upsilondieresis" unicode="&#x3ab;" horiz-adv-x="1260" 
d="M1009 1273q0 59 -125 69q-34 2 -63 6v71h493v-71q-17 -2 -54 -14q-36 -12 -64 -30t-42 -31q-72 -67 -363 -578q-37 -64 -49 -103t-12 -113v-271q0 -76 64 -105q21 -7 75 -19t87 -13v-71h-664v71q131 9 165 23q60 25 60 104v345q0 55 -326 635q-56 96 -117 137
q-44 28 -118 33v71h605v-71q-186 -4 -186 -48q0 -18 36 -85t71 -135t205 -371q322 519 322 564zM562 1730q0 -51 -34 -87t-84 -36t-84 36t-34 87t34 87t84 36t84 -36t34 -87zM1012 1730q0 -51 -34 -87t-84 -36t-84 36t-34 87t34 87t84 36t84 -36t34 -87z" />
    <glyph glyph-name="alphatonos" unicode="&#x3ac;" horiz-adv-x="1224" 
d="M281 482q-1 -272 151 -370q54 -34 128 -34q248 0 268 445q-40 413 -274 413q-118 0 -196 -121t-77 -333zM494 -29q-173 0 -297 146q-125 146 -125 370q0 225 137 379q133 147 339 147q106 1 188 -57q83 -58 122 -161l25 191h186q-13 -132 -85 -520q4 -148 34 -246
t78 -126q18 -11 133 -11v-64q-240 -85 -322 9q-43 48 -60 173q-139 -230 -353 -230zM426 1558h283v-20q-69 -187 -112 -399h-59q-42 206 -112 399v20z" />
    <glyph glyph-name="epsilontonos" unicode="&#x3ad;" horiz-adv-x="959" 
d="M367 527q-249 43 -249 235q0 89 86 161q104 90 293 90q189 -1 284 -63t95 -168q0 -48 -22 -86t-79 -37t-89 29t-31 64q0 36 7 71q7 34 13 71q-20 17 -66 30t-94 13q-91 -1 -143 -53t-52 -140t48 -136q48 -47 165 -47h83v-93h-108q-178 0 -210 -122q-9 -34 -9 -70
q0 -100 69 -151q70 -51 180 -51t189 52t143 169l70 -43q-136 -281 -451 -281q-158 0 -281 75q-124 75 -124 206t95 204q74 54 188 61v10zM366 1558h283v-20q-69 -187 -112 -399h-59q-42 206 -112 399v20z" />
    <glyph glyph-name="etatonos" unicode="&#x3ae;" horiz-adv-x="1169" 
d="M652 894q-174 0 -265 -149v-745h-186v777q0 72 -55 109q-30 20 -101 25v65l328 22l14 -14v-139h5q71 74 118 105q97 63 224 63q128 -1 198 -89t71 -235v-1133h-187v1119q0 107 -52 163t-112 56zM441 1558h283v-20q-69 -187 -112 -399h-59q-42 206 -112 399v20z" />
    <glyph glyph-name="iotatonos" unicode="&#x3af;" horiz-adv-x="605" 
d="M390 209q0 -63 38 -97t105 -34q17 0 65 3v-64q-256 -87 -346 18q-48 56 -49 160l2 584q0 66 -52 103q-37 23 -121 29v65l344 22l14 -14v-775zM144 1558h283v-20q-69 -187 -112 -399h-59q-42 206 -112 399v20z" />
    <glyph glyph-name="upsilondieresistonos" unicode="&#x3b0;" horiz-adv-x="1108" 
d="M227 999q85 0 127 -54t41 -176l-3 -417q-3 -164 76 -228q47 -39 143 -39q134 1 219 121t85 306q0 154 -90 228q-102 83 -102 161q-1 45 31 74t85 29t91 -36q92 -88 92 -355q0 -266 -119 -444q-129 -197 -344 -197q-154 0 -250 79q-53 43 -81 103t-28 157l3 467
q1 52 -21 80t-78 29l-97 -8v64q135 56 220 56zM395 1354q1 -51 -33 -87t-83 -36t-83 36t-33 87q-1 51 33 87t83 36t83 -36t33 -87zM945 1354q1 -51 -33 -87t-83 -36t-83 36t-33 87q-1 51 33 87t83 36t83 -36t33 -87zM422 1628h263v-20q-49 -136 -102 -399h-59
q-55 271 -102 399v20z" />
    <glyph glyph-name="alpha" unicode="&#x3b1;" horiz-adv-x="1224" 
d="M281 482q0 -272 102.5 -338t176.5 -66q248 0 268 445q-40 413 -274 413q-118 0 -195.5 -121t-77.5 -333zM494 -29q-173 0 -297.5 146t-124.5 370q0 225 137 379q133 147 339 147q106 0 188.5 -57.5t121.5 -160.5l25 191h186q-13 -132 -85 -520q3 -147 33.5 -245.5
t78.5 -126.5q18 -11 133 -11v-64q-240 -85 -302.5 -14t-79.5 196q-139 -230 -353 -230z" />
    <glyph glyph-name="beta" unicode="&#x3b2;" horiz-adv-x="1158" 
d="M513 841v95h68q106 0 181 70t75 202t-60 199t-157 67q-119 0 -190 -96t-71 -319v-850q21 -64 85 -112t147 -48q128 0 204.5 114.5t76.5 300.5t-51 272q-64 105 -214 105h-94zM608 -24q-147 0 -241 67h-8v-487h-187v1448q0 150 22 238t92 162q137 146 343 146
q167 0 279 -82q111 -82 111 -237t-103 -242q-83 -73 -191 -86l4 -9q46 -3 109.5 -27.5t120.5 -76.5q122 -110 122 -316t-133.5 -352t-339.5 -146z" />
    <glyph glyph-name="gamma" unicode="&#x3b3;" horiz-adv-x="1052" 
d="M538 -444q-104 0 -104 137t49 322q-77 230 -150 398.5t-176 402.5q-23 51 -64 71.5t-106 23.5v65l297 22l14 -14q27 -70 151.5 -347t142.5 -454q33 87 79.5 179t82.5 176t36 139t-15 118t-15 105t33 77.5t85 35.5t83.5 -30t31.5 -90t-30.5 -132t-80.5 -171t-130.5 -245
t-134.5 -292q10 -89 20 -161t10 -132q0 -124 -28.5 -164t-80.5 -40z" />
    <glyph glyph-name="delta" unicode="&#x3b4;" horiz-adv-x="1104" 
d="M825 474q0 350 -254 429q-129 0 -211 -114.5t-82 -305.5t71 -314t203 -123t202 124q71 124 71 304zM360 1288q0 -78 67.5 -134t210.5 -133t214 -135t111 -120q70 -109 70 -284q0 -220 -135 -366t-348 -146t-346.5 144t-133.5 353t118 336q118 128 310 159v6
q-176 64 -256 134t-80 175t105 189t297 84t295 -61t103 -161q0 -126 -102 -126q-60 0 -90 28t-30 67t9.5 76.5t13.5 60.5q-52 41 -162 41t-175.5 -54.5t-65.5 -132.5z" />
    <glyph glyph-name="epsilon" unicode="&#x3b5;" horiz-adv-x="959" 
d="M367 527q-249 43 -249 235q0 89 86 161q104 90 293 90t284 -62.5t95 -168.5q0 -48 -22 -85.5t-79 -37.5t-88.5 28.5t-31.5 64.5t7 70.5t13 71.5q-20 17 -66 30t-94 13q-91 0 -143 -52.5t-52 -140.5t48.5 -135.5t164.5 -47.5h83v-93h-108q-178 0 -198.5 -78.5
t-20.5 -113.5q0 -100 69.5 -151t179.5 -51t189 52t143 169l70 -43q-136 -281 -451 -281q-158 0 -281 75q-124 75 -124 206t95 204q74 54 188 61v10z" />
    <glyph glyph-name="zeta" unicode="&#x3b6;" horiz-adv-x="827" 
d="M144 1439q0 102 71 102t103 -18t60 -41t51 -39.5t94 -16.5t372 19v-92q-615 -432 -615 -885q0 -226 105.5 -261t160.5 -37l79 -4q124 -3 187 -70.5t63 -184.5t-103 -218.5t-254 -101.5q-193 0 -193 100q0 40 24.5 64t71.5 24t91 -36q16 -12 38.5 -31t42.5 -29
q103 9 134.5 68.5t31.5 121.5q0 125 -178 133q-31 1 -47 2t-53 2q-173 5 -283.5 117t-110.5 288q0 332 237 561.5t381 350.5v11l-368 -4q-101 -1 -147 30t-46 75z" />
    <glyph glyph-name="eta" unicode="&#x3b7;" horiz-adv-x="1169" 
d="M652 894q-174 0 -265 -149v-745h-186v777q0 72 -55 109q-30 20 -101 25v65l328 22l14 -14v-139h5q71 74 118 105q97 63 224 63q128 0 198.5 -88.5t70.5 -235.5v-1133h-187v1119q0 106 -52 162.5t-112 56.5z" />
    <glyph glyph-name="theta" unicode="&#x3b8;" horiz-adv-x="1139" 
d="M294 708q0 -662 275 -662q194 0 235 234t41 428v35h-551v-35zM803.5 1241.5q-40.5 232.5 -234.5 232.5q-193 0 -233.5 -232t-41.5 -410h551q-1 177 -41.5 409.5zM948 1286q103 -216 103 -528t-104 -524q-130 -264 -378 -264q-131 0 -225 71t-150 189q-106 220 -106 530
q0 161 23 283.5t79 242.5t152 192t228 72t226 -72t152 -192z" />
    <glyph glyph-name="iota" unicode="&#x3b9;" horiz-adv-x="605" 
d="M390 209q0 -64 38.5 -97.5t104.5 -33.5q17 0 65 3v-64q-256 -87 -325.5 -6.5t-69.5 184.5l2 584q0 66 -52 103q-37 23 -121 29v65l344 22l14 -14v-775z" />
    <glyph glyph-name="kappa" unicode="&#x3ba;" horiz-adv-x="1098" 
d="M387 0h-186v777q0 71 -55 109q-32 20 -101 25v65l328 22l14 -14v-505q233 291 315 382q81 90 121.5 115t92.5 25t85.5 -33.5t33.5 -83.5t-31.5 -82.5t-82.5 -32.5t-144 42q-42 -29 -79 -75t-89 -103q176 -321 226 -398q95 -149 192 -149q47 0 91 8v-64q-124 -49 -209 -49
q-85 -1 -117 17q-60 33 -111 126q-51 92 -103.5 192.5t-92.5 172.5l-98 -109v-380z" />
    <glyph glyph-name="lambda" unicode="&#x3bb;" horiz-adv-x="999" 
d="M261.5 1324q-41.5 0 -58.5 1q-50 2 -77 36.5t-27 75.5t35 77t108 36q152 0 228 -221q46 -132 96 -268.5t103 -286.5t104.5 -295t90.5 -241t66.5 -126t95.5 -30h45v-64q-50 -15 -89.5 -26.5t-83.5 -11.5q-107 0 -149.5 135.5t-83 297.5t-98.5 356q-67 -132 -151.5 -314.5
t-124.5 -264.5t-76 -190h-228l489 988q-60 206 -141 333q-32 3 -73.5 3z" />
    <glyph glyph-name="mu" unicode="&#x3bc;" horiz-adv-x="1186" 
d="M282 60v-58q0 -72 25.5 -187t25.5 -161t-37 -72t-77 -26t-68 26t-28 76t26 193t26 285v850h190v-677q0 -96 51.5 -156.5t117.5 -60.5q150 0 201.5 62t59.5 77v755h190v-784q0 -80 56 -108q21 -11 122 -11v-64q-105 -38 -173 -38q-168 0 -193 154h-6q-85 -88 -122 -110
q-82 -46 -167 -46q-150 0 -214 81h-6z" />
    <glyph glyph-name="nu" unicode="&#x3bd;" horiz-adv-x="1027" 
d="M864 1013q108 0 108 -118q0 -60 -43 -142t-77 -149t-89.5 -171.5t-102.5 -194.5t-104 -247h-87q-84 216 -153.5 402t-164.5 423q-35 88 -166 95v65l307 22l14 -14q19 -96 54 -187q124 -327 216 -566q149 307 165.5 360t16.5 109t-9.5 101t-9.5 93t36.5 83.5t88.5 35.5z
" />
    <glyph glyph-name="xi" unicode="&#x3be;" horiz-adv-x="903" 
d="M405 1437q165 0 456 18v-113h-130q-255 0 -318.5 -104.5t-63.5 -186.5q0 -119 85.5 -181t226.5 -62h145v-105h-196q-334 0 -334 -284q0 -120 70 -186.5t195 -66.5h132q124 0 188 -68t64 -186t-105.5 -219.5t-251.5 -101.5q-193 0 -193 100q0 40 24.5 64t71.5 24t91 -36
q16 -12 38.5 -31t42.5 -29q103 9 134.5 68.5t31.5 111.5q0 143 -180 143h-156q-172 0 -282 105t-110 263t115 263t266 124v6q-152 25 -231 100t-79 180q0 210 292 296v17l-214 -7q-183 0 -183 102q0 96 90 96q46 0 78.5 -18.5t62.5 -40.5t54 -38.5t73 -16.5z" />
    <glyph glyph-name="omicron" unicode="&#x3bf;" horiz-adv-x="1104" 
d="M826 501q0 295 -144 399q-52 38 -128 38q-146 0 -219 -142q-58 -111 -58 -290q1 -318 151 -424q52 -36 127 -36q125 0 198 121t73 334zM901 122q-132 -152 -343 -152t-350 143q-138 143 -138 375t134 379t348 147q212 0 346 -140t135 -369q0 -231 -132 -383z" />
    <glyph glyph-name="pi" unicode="&#x3c0;" horiz-adv-x="1231" 
d="M405 728q0 81 -4 135h-62q-132 0 -153 -80t-25 -122h-63q-7 65 -7 109q0 83 59 149t168 66h857v-122h-225v-654q0 -60 37.5 -95.5t107.5 -35.5q23 0 68 3v-64q-112 -38 -209 -38t-144.5 58t-47.5 158v668h-263q3 -78 3 -173t-22 -242t-66 -252q-90 -218 -227 -218
q-60 0 -88 38.5t-28 77.5t26.5 73.5t66.5 34.5t134 -27q107 221 107 553z" />
    <glyph glyph-name="rho" unicode="&#x3c1;" horiz-adv-x="1142" 
d="M861 507q0 429 -257 429q-100 0 -154 -54t-74.5 -117.5t-22.5 -152.5t-3 -131t-1 -83l2 -189q19 -61 84.5 -111.5t153.5 -50.5q117 0 194.5 122t77.5 338zM351 41v-485h-187v991q0 113 25 188.5t89 144.5q122 133 332 133t334 -135t124 -373q0 -112 -38 -212t-140 -209.5
t-286 -109.5q-151 0 -245 67h-8z" />
    <glyph glyph-name="sigma1" unicode="&#x3c2;" horiz-adv-x="913" 
d="M256 540q0 -268 232 -332q56 -15 106.5 -21t103.5 -19q93 -23 138.5 -86t45.5 -153q0 -140 -107.5 -238t-262.5 -98q-110 0 -157.5 29t-47.5 75q0 85 96 85q46 0 80 -25t57.5 -44t44.5 -30q68 4 123 58t55 119q0 115 -120 143q-56 13 -114.5 18.5t-140.5 31.5
q-149 47 -234.5 165t-85.5 263q0 260 155 408q64 61 147 93t161 32q154 0 251.5 -64t97.5 -168q0 -48 -22 -85.5t-79 -37.5t-88.5 28.5t-31.5 64.5t7 70.5t13 71.5q-54 44 -151 44t-176 -86q-96 -103 -96 -312z" />
    <glyph glyph-name="sigma" unicode="&#x3c3;" horiz-adv-x="1173" 
d="M550 1014q102 0 207 -29h395v-122h-286v-5q167 -138 167 -362q0 -223 -133 -374q-133 -152 -343 -152t-349 143q-138 143 -138 375t132 380q62 68 154 107t194 39zM826 486q0 308 -96 374t-176 66q-147 0 -219 -138q-58 -108 -58 -286q0 -313 101.5 -384.5t173.5 -71.5
q138 0 206 130t68 310z" />
    <glyph glyph-name="tau" unicode="&#x3c4;" horiz-adv-x="923" 
d="M38 778q0 79 59 143t168 64h638v-122h-339v-530q0 -62 2 -104t16 -72t42 -44.5t99 -14.5t119 18v-73q-65 -27 -118.5 -45.5t-153.5 -18.5q-194 0 -194 239v645h-90q-90 0 -138 -64q-32 -47 -40 -138h-63q-7 81 -7 117z" />
    <glyph glyph-name="upsilon" unicode="&#x3c5;" horiz-adv-x="1108" 
d="M227 999q85 0 127 -54t41 -176l-3 -417q-3 -164 76 -228q47 -39 143 -39q134 0 219 120.5t85 306.5q0 154 -90 228q-102 83 -102 161q0 45 31.5 74t84.5 29t118 -62.5t65 -328.5t-119 -444q-129 -197 -344 -197q-154 0 -250 79q-53 44 -81 103.5t-28 156.5l3 467
q0 52 -21.5 80.5t-77.5 28.5l-97 -8v64q135 56 220 56z" />
    <glyph glyph-name="phi" unicode="&#x3c6;" horiz-adv-x="1425" 
d="M1146 522q0 198 -64.5 306t-162.5 108q-48 0 -81.5 -31.5t-33.5 -85.5v-771q170 12 256 144t86 330zM279 489q0 -196 91.5 -316.5t247.5 -124.5v725q0 120 95 186q76 54 176 54q192 0 317 -117q149 -135 149 -371q0 -131 -47.5 -235t-125.5 -172q-160 -141 -378 -147
v-415h-186v415q-251 11 -399.5 152t-148.5 353q0 429 423 531l15 -81q-229 -81 -229 -437z" />
    <glyph glyph-name="chi" unicode="&#x3c7;" horiz-adv-x="1037" 
d="M174 1000q82 0 121 -56t97.5 -209.5t124.5 -315.5q52 96 116.5 222t104.5 198t69 147h225l-419 -729q242 -510 303 -554.5t126 -44.5h56v-64q-122 -38 -175 -38t-82.5 15.5t-65.5 60.5t-105 223t-117 297q-256 -470 -308 -596h-225l438 760q-149 307 -242 457
q-44 73 -93.5 95.5t-127.5 22.5v64q132 45 179 45z" />
    <glyph glyph-name="psi" unicode="&#x3c8;" horiz-adv-x="1496" 
d="M223 999q83 0 127.5 -51t43.5 -179l-3 -402q-2 -170 124 -253q87 -56 185 -59v931h186v-931q191 15 299 155q107 140 107 306t-86 235q-38 31 -61.5 64t-23.5 83t32 78t83 28q96 0 139 -107q35 -84 35 -217q0 -446 -190.5 -569t-333.5 -139v-416h-186v416q-194 9 -319 79
q-182 106 -182 326l3 401q0 54 -20.5 81.5t-78.5 27.5l-97 -8v64q134 56 217 56z" />
    <glyph glyph-name="omega" unicode="&#x3c9;" horiz-adv-x="1464" 
d="M826 287q0 -235 150 -235q210 0 209 390q0 324 -96 394.5t-171 81.5l15 80q189 -15 314 -136q144 -140 144 -373t-107 -376t-279 -143q-171 0 -273 167q-104 -167 -274 -167q-169 0 -277 143t-108 373q0 231 144 375q123 119 314 137l15 -80q-267 -33 -267 -476
q0 -162 33 -243t70.5 -114t105.5 -33q150 0 150 235v369h188v-369z" />
    <glyph glyph-name="iotadieresis" unicode="&#x3ca;" horiz-adv-x="605" 
d="M390 209q0 -63 38 -97t105 -34q17 0 65 3v-64q-256 -87 -346 18q-48 56 -49 160l2 584q0 66 -52 103q-37 23 -121 29v65l344 22l14 -14v-775zM174 1364q0 -51 -34 -87t-84 -36t-84 36t-34 87t34 87t84 36t84 -36t34 -87zM604 1364q0 -51 -34 -87t-84 -36t-84 36t-34 87
t34 87t84 36t84 -36t34 -87z" />
    <glyph glyph-name="upsilondieresis" unicode="&#x3cb;" horiz-adv-x="1108" 
d="M227 999q85 0 127 -54t41 -176l-3 -417q-3 -164 76 -228q47 -39 143 -39q134 1 219 121t85 306q0 154 -90 228q-102 83 -102 161q-1 45 31 74t85 29t91 -36q92 -88 92 -355q0 -266 -119 -444q-129 -197 -344 -197q-154 0 -250 79q-53 43 -81 103t-28 157l3 467
q1 52 -21 80t-78 29l-97 -8v64q135 56 220 56zM463 1364q-1 -51 -35 -87t-83 -36t-83 36t-35 87q1 51 35 87t83 36t83 -36t35 -87zM893 1364q-1 -51 -35 -87t-83 -36t-83 36t-35 87q1 51 35 87t83 36t83 -36t35 -87z" />
    <glyph glyph-name="omicrontonos" unicode="&#x3cc;" horiz-adv-x="1104" 
d="M826 501q0 295 -144 399q-52 38 -128 38q-146 0 -219 -142q-58 -111 -58 -290q1 -318 151 -424q52 -36 127 -36q125 0 198 121t73 334zM901 122q-132 -152 -343 -152t-350 143q-138 143 -138 375t134 379t348 147q212 0 346 -140t135 -369q0 -231 -132 -383zM416 1558
h283v-20q-69 -187 -112 -399h-59q-42 206 -112 399v20z" />
    <glyph glyph-name="upsilontonos" unicode="&#x3cd;" horiz-adv-x="1108" 
d="M227 999q85 0 127 -54t41 -176l-3 -417q-3 -164 76 -228q47 -39 143 -39q134 1 219 121t85 306q0 154 -90 228q-102 83 -102 161q-1 45 31 74t85 29t91 -36q92 -88 92 -355q0 -266 -119 -444q-129 -197 -344 -197q-154 0 -250 79q-53 43 -81 103t-28 157l3 467
q1 52 -21 80t-78 29l-97 -8v64q135 56 220 56zM418 1558h283v-20q-69 -187 -112 -399h-59q-42 206 -112 399v20z" />
    <glyph glyph-name="omegatonos" unicode="&#x3ce;" horiz-adv-x="1464" 
d="M826 287q0 -235 150 -235q210 0 209 390q1 324 -143 430q-48 36 -124 46l15 80q189 -15 314 -136q144 -140 144 -373t-107 -376t-279 -143q-171 0 -273 167q-104 -167 -274 -167q-169 0 -277 143t-108 373q0 231 144 375q123 119 314 137l15 -80q-267 -33 -267 -476
q0 -162 33 -243t71 -114q37 -33 105 -33q150 0 150 235v369h188v-369zM590 1558h283v-20q-69 -187 -112 -399h-59q-42 206 -112 399v20z" />
    <glyph glyph-name="afii10023" unicode="&#x401;" horiz-adv-x="1338" 
d="M86 0v71q114 8 146 22q56 26 56 100v1020q0 74 -58 101t-144 34v71h1098v-342h-75q-21 75 -87 161t-127 94t-171 8h-223v-564h160q77 0 113 14q100 41 120 218h75v-555h-75q-10 118 -59 180t-174 62h-160v-426q0 -125 44 -157q41 -30 174 -30h112q183 0 228 48t95 144
q50 98 65 144h72l-27 -418h-1178zM581 1730q-1 -51 -35 -87t-83 -36t-83 36t-35 87q1 51 35 87t83 36t83 -36t35 -87zM1031 1730q-1 -51 -35 -87t-83 -36t-83 36t-35 87q1 51 35 87t83 36t83 -36t35 -87z" />
    <glyph glyph-name="afii10051" unicode="&#x402;" horiz-adv-x="1608" 
d="M1544 453q0 -78 -29.5 -166.5t-85.5 -156.5q-127 -155 -325 -156q-126 0 -184.5 41t-58.5 91t23.5 84.5t68.5 34.5q76 0 111 -49.5t70 -132.5q141 29 163 165.5t22 196.5q0 171 -80 262t-225 91q-89 0 -148 -18.5t-138 -51.5v-688h-427v71q115 9 149 22q65 26 65 104
v1144h-46q-98 0 -148 -6t-85.5 -41.5t-81 -104t-69.5 -155.5h-70v385h1224v-375h-69q-19 77 -67 148q-90 132 -152 140q-62 9 -165 9h-58v-573q209 118 395 118q185 0 303 -117.5t118 -315.5z" />
    <glyph glyph-name="afii10052" unicode="&#x403;" horiz-adv-x="1195" 
d="M1179 1022h-75q-24 94 -67 165q-43 70 -77 104q-34 33 -86 41q-53 8 -169 8h-204v-1138q0 -69 64 -101q21 -9 73 -19t85 -11v-71h-637v71q124 8 150 20q52 23 52 98v1024q0 74 -58 101t-144 34v71h1093v-397zM866 1868q34 0 61 -23t27 -61q0 -62 -92 -109
q-44 -23 -136 -67t-210 -101l-31 39q176 168 264 261q57 61 117 61z" />
    <glyph glyph-name="afii10053" unicode="&#x404;" horiz-adv-x="1345" 
d="M1154 913q-98 452 -392 452q-190 0 -317 -156q-134 -170 -138 -501q41 28 112.5 77t152.5 49t150 -30t101 -41.5t93 -11.5t131 60l43 -54q-150 -146 -283 -146q-73 0 -137 28q-65 28 -101.5 40.5t-100.5 12.5q-65 0 -158 -62q17 -258 143 -418q127 -160 325 -160
q154 0 220 42t78 53q-10 103 -10 154t31 90t91 39t88 -39t27 -97q0 -59 -38.5 -119.5t-112.5 -106.5q-161 -101 -395 -101q-303 0 -491 197t-188 531q0 333 198 548q91 99 215.5 153t263.5 54q191 0 352 -99l40 68h80l9 -506h-82z" />
    <glyph glyph-name="afii10054" unicode="&#x405;" horiz-adv-x="1149" 
d="M548 1364q-92 0 -160 -61q-67 -61 -67 -151q0 -170 168 -250q73 -34 143 -60q258 -93 337 -179q57 -61 79 -121t21 -139q0 -188 -139 -310t-345 -122q-95 -1 -190 29t-164 72l-43 -73h-80l-14 486h81q119 -427 430 -427q199 0 251 146q16 44 16 116t-48 146t-128 105
t-164 63t-145 60q-121 54 -187 142t-66 238q0 151 125 264t293 113t328 -100l41 68h80l8 -471h-81q-53 197 -109 272q-55 76 -117 110t-154 34z" />
    <glyph glyph-name="afii10055" unicode="&#x406;" horiz-adv-x="798" 
d="M718 0h-639v71q128 9 155 20q58 22 58 96v1028q0 35 -11 59t-69 46q-58 23 -133 28v71h639v-71q-172 -6 -200 -63q-13 -27 -13 -60v-1027q0 -72 64 -99q67 -26 149 -28v-71z" />
    <glyph glyph-name="afii10056" unicode="&#x407;" horiz-adv-x="798" 
d="M718 0h-639v71q128 9 155 20q58 22 58 96v1028q0 35 -11 59t-69 46q-58 23 -133 28v71h639v-71q-172 -6 -200 -63q-13 -27 -13 -60v-1027q0 -72 64 -99q67 -26 149 -28v-71zM302 1730q0 -51 -34 -87t-84 -36t-84 36t-34 87t34 87t84 36t84 -36t34 -87zM732 1730
q0 -51 -34 -87t-84 -36t-84 36t-34 87t34 87t84 36t84 -36t34 -87z" />
    <glyph glyph-name="afii10057" unicode="&#x408;" horiz-adv-x="1060" 
d="M593 462v751q1 35 -11 59t-58 46q-46 23 -144 30v71h626v-71q-161 -6 -186 -64q-12 -28 -12 -61v-841q0 -153 -115 -285q-115 -131 -316 -131q-163 0 -265 92t-101 246q0 68 35 120q34 52 98 53t100 -33t37 -89q0 -55 -46 -127t-57 -104q53 -83 188 -83t186 123
q41 97 41 298z" />
    <glyph glyph-name="afii10058" unicode="&#x409;" horiz-adv-x="2072" 
d="M1848 730q166 -101 166 -311t-157 -321q-136 -98 -330 -98h-669v71q114 9 138 20q52 22 52 98v1146h-382q0 -667 -169 -1036q-73 -161 -162 -240t-177 -79t-134 43t-46 95t31 92t77 40t73.5 -15t45.5 -35t31.5 -41.5t22.5 -34.5q97 79 178 320q106 311 106 657
q0 96 -13.5 143.5t-49.5 64.5t-90 26.5t-71 12.5v71h1140v-71q-159 -6 -178.5 -51t-19.5 -78v-403l98 2t129 1t181 -20.5t179 -68.5zM1432 732q-87 0 -171 -4v-520q0 -66 39 -97.5t154 -31.5q152 0 232 91.5t80 245.5t-91.5 235t-242.5 81z" />
    <glyph glyph-name="afii10059" unicode="&#x40a;" horiz-adv-x="2182" 
d="M1958 730q166 -101 166 -311t-157 -321q-136 -98 -330 -98h-672v71q101 8 134 23q59 26 59 99v517h-657v-510q0 -71 52 -98t134 -31v-71h-589v71q114 9 138 20q52 22 52 98v1024q0 73 -60 101q-60 29 -130 34v71h589v-71q-150 -5 -168 -48.5t-18 -76.5v-424h657v410
q0 75 -57 102q-61 32 -133 37v71h601v-71q-159 -6 -178.5 -51t-19.5 -78v-403l98 2t129 1t181 -20.5t179 -68.5zM1542 732q-87 0 -171 -4v-520q0 -66 39 -97.5t154 -31.5q152 0 232 91.5t80 245.5t-91.5 235t-242.5 81z" />
    <glyph glyph-name="afii10060" unicode="&#x40b;" horiz-adv-x="1720" 
d="M1689 0h-589v71q145 10 164.5 48t19.5 77v273q0 138 -28 186t-77 74t-147 26t-159.5 -17t-144.5 -58v-480q0 -71 38 -91t72 -26q33 -5 53.5 -8.5t32.5 -3.5v-71h-628v71q121 9 154 22q65 26 65 104v1144h-46q-98 0 -148 -6t-85.5 -41.5t-81 -104t-69.5 -155.5h-70v385
h1224v-375h-69q-19 77 -67 148q-90 132 -152 140q-62 9 -165 9h-58v-581q76 46 184 86t216 40t187 -31t119 -82q66 -82 65 -256v-311q0 -73 65 -103t125 -32v-71z" />
    <glyph glyph-name="afii10061" unicode="&#x40c;" horiz-adv-x="1423" 
d="M1445 0h-391q-182 513 -296 601q-68 53 -184 53h-73v-454q0 -73 58 -101q15 -7 59 -17t73 -11v-71h-589v71q110 10 135 20q51 23 51 98v1024q0 73 -60 102t-126 33v71h589v-71q-153 -5 -178 -64q-12 -28 -12 -61v-486h93q77 -1 129 53t78 118t55 150t59 157q31 71 79 121
q93 96 216 96q124 0 159 -80q10 -24 10 -48q0 -76 -56 -106q-17 -10 -49 -10q-60 0 -92 34t-67 103q-67 -46 -109 -175q-61 -189 -102 -269q-42 -79 -111 -141v-14q111 -31 185 -99t112 -152q38 -85 72 -155t60 -128q44 -96 115 -108q51 -8 108 -13v-71zM978 1868
q34 0 61 -23t27 -61q0 -62 -92 -109q-44 -23 -136 -67t-210 -101l-31 39q176 168 264 261q57 61 117 61z" />
    <glyph glyph-name="afii10062" unicode="&#x40e;" horiz-adv-x="1345" 
d="M879 1777q0 45 33.5 68t75.5 23t69 -32t27 -74q0 -155 -133 -199t-245 -44q-202 0 -294 73q-93 73 -93 162q0 50 27.5 82t69.5 32t75 -22t33 -68t-35 -128q66 -63 212 -63q145 0 213 63q-35 82 -35 127zM1061 1267q0 64 -197 81v71h530v-71q-69 -3 -118 -31t-69.5 -57.5
t-72.5 -133.5t-165 -359t-227 -487t-226 -266t-181 -34t-124 44t-55 98t30.5 91.5t86.5 37.5q73 0 110.5 -68t48.5 -85q75 21 125 81.5t98 145.5q-367 708 -424 810q-56 102 -100 153t-166 60v71h598v-71q-175 -8 -175 -50q0 -19 30 -75t115.5 -223t236.5 -451
q120 260 197 446q76 187 85 221.5t9 50.5z" />
    <glyph glyph-name="afii10145" unicode="&#x40f;" horiz-adv-x="1659" 
d="M1158 175v1038q0 75 -58 102q-58 28 -126 33v71h583v-71q-150 -5 -168 -48.5t-18 -76.5v-1023q0 -70 58 -101q17 -9 62 -18t70 -10v-71h-538q-95 -7 -121 -145t-36 -200h-77q-24 154 -44 212q-21 59 -47 94t-66 39h-534v71q114 9 138 20q52 22 52 98v1024q0 73 -60 101
q-60 29 -130 34v71h583v-71q-62 -2 -127 -24q-53 -19 -53 -101v-1027q0 -45 32.5 -78t98.5 -33l208 -4q55 0 120.5 1.5t113.5 2.5t66 22.5t18 67.5z" />
    <glyph glyph-name="afii10017" unicode="&#x410;" horiz-adv-x="1374" 
d="M849 580l-215 550l-211 -550h426zM288 159q0 -40 63 -62t142 -26v-71h-534v71q129 9 191 93q22 30 43 82q107 267 236 600t230 593h80l473 -1224q27 -69 82 -105q56 -36 127 -39v-71h-591v71q181 12 181 57q0 25 -8 45l-118 318h-497q-100 -250 -100 -332z" />
    <glyph glyph-name="afii10018" unicode="&#x411;" horiz-adv-x="1334" 
d="M1088 730q166 -101 166 -311t-157 -321q-136 -98 -330 -98h-672v71q101 8 134 23q59 26 59 99v1020q0 75 -56 102t-130 33v71h1066v-347h-75q-21 79 -87.5 165.5t-127.5 94.5t-170 8h-207v-524l98 2t129 1t181 -20.5t179 -68.5zM672 732q-87 0 -171 -4v-520
q0 -66 39 -97.5t154 -31.5q152 0 232 91.5t80 245.5t-91.5 235t-242.5 81z" />
    <glyph glyph-name="afii10019" unicode="&#x412;" horiz-adv-x="1339" 
d="M501 206q0 -127 193 -127q149 0 228 87t79 256q-1 126 -85 207t-241 81q-86 0 -174 -4v-500zM663 1340q-30 0 -162 -4v-545h127q163 0 232 80t69 208q0 261 -266 261zM1104 661q144 -98 144 -279q0 -182 -155 -288q-137 -94 -326 -94h-672v71q101 8 134 23q59 26 59 99
v1020q0 75 -56 102t-130 33v71h655q165 0 278 -68q135 -80 135 -241q0 -206 -208 -302q-60 -28 -129 -42v-9q162 -19 271 -96z" />
    <glyph glyph-name="afii10020" unicode="&#x413;" horiz-adv-x="1195" 
d="M1179 1022h-75q-24 94 -67 165q-43 70 -76.5 103.5t-86.5 41.5t-169 8h-204v-1138q0 -69 64 -101q20 -9 72.5 -19t85.5 -11v-71h-637v71q124 8 150 20q52 23 52 98v1024q0 74 -58 101t-144 34v71h1093v-397z" />
    <glyph glyph-name="afii10021" unicode="&#x414;" horiz-adv-x="1479" 
d="M-1 -331v418h138q121 182 220.5 496t99.5 559q0 141 -53 167q-53 25 -170 39v71h1143v-71q-150 -5 -168 -48.5t-18 -76.5v-1038q0 -56 28 -77.5t90 -21.5h84v-417h-75q-47 184 -109.5 256t-106.5 78h-802q-70 -9 -145 -138q-48 -82 -81 -196h-75zM885 87q93 0 93 90v1158
h-398q0 -357 -89.5 -690t-225.5 -558h620z" />
    <glyph glyph-name="afii10022" unicode="&#x415;" horiz-adv-x="1338" 
d="M86 0v71q114 8 146 22q56 26 56 100v1020q0 74 -58 101t-144 34v71h1098v-342h-75q-21 75 -87 161t-127 94t-171 8h-223v-564h160q77 0 113 14q100 41 120 218h75v-555h-75q-10 118 -59 180t-174 62h-160v-426q0 -125 44 -157q41 -30 174 -30h112q183 0 228 48t95 144
q50 98 65 144h72l-27 -418h-1178z" />
    <glyph glyph-name="afii10024" unicode="&#x416;" horiz-adv-x="2016" 
d="M44 1294q0 138 179 138q111 0 197 -86q54 -55 87 -132.5t59 -159.5t46 -143t62 -101q74 -72 148 -73h80v476q0 73 -60 102t-126 33v71h588v-71q-153 -5 -171.5 -48.5t-18.5 -76.5v-486h80q77 -1 129 53t79 122t51 146q63 205 145 289q82 85 206 85t146 -52t22 -76
q0 -76 -36.5 -96t-68.5 -20q-60 0 -92 34t-67 103q-69 -44 -116 -202.5t-87 -238.5q-41 -80 -112 -144v-14q204 -58 303 -274q28 -61 61.5 -131.5t56.5 -120.5q45 -98 109 -113q49 -10 117 -16v-71h-391q-180 509 -270.5 581.5t-203.5 72.5h-61v-454q0 -73 58 -101
q16 -7 59.5 -17t72.5 -11v-71h-588v71q110 10 135 20q51 23 51 98v465h-61q-115 0 -180.5 -50.5t-138.5 -212.5t-157 -391h-389v71q23 3 51 6t63 9q68 13 115 115q22 50 55 118.5t73 156.5q88 194 290 250v14q-104 94 -138 193t-57.5 177t-37.5 110q-32 72 -82 105
q-36 -73 -58 -95t-43 -32t-67 -10t-71 36t-25 70z" />
    <glyph glyph-name="afii10025" unicode="&#x417;" horiz-adv-x="1248" 
d="M860 1115q0 250 -258 250q-162 0 -263 -142q-68 -94 -120 -310h-82l8 506h80l42 -68q63 39 163 69t210 30q254 0 378 -126q84 -89 84 -203q0 -177 -122.5 -250.5t-219.5 -97.5v-13q150 -5 260 -79q140 -95 140 -280t-171 -309.5t-422 -124.5t-395 105q-130 98 -130 235
q0 56 30 99t91 43t92.5 -32t31.5 -78t-34 -165q26 -39 76 -66q170 -92 333.5 -43t207.5 147t44 172q0 149 -60 220q-78 91 -247 91h-144v107h106q155 0 223 79t68 234z" />
    <glyph glyph-name="afii10026" unicode="&#x418;" horiz-adv-x="1676" 
d="M1574 0h-587v71q116 10 140 20q52 22 52 98v885l-686 -856v-23q0 -66 52 -93t140 -31v-71h-587v71q114 9 138 20q52 22 52 98v1024q0 73 -60 101q-60 29 -130 34v71h587v-71q-152 -5 -170 -48.5t-18 -76.5v-863l686 855q0 71 -59 99t-137 34v71h587v-71
q-150 -5 -168 -48.5t-18 -76.5v-1023q0 -71 52 -98t134 -31v-71z" />
    <glyph glyph-name="afii10027" unicode="&#x419;" horiz-adv-x="1676" 
d="M1027 1777q0 45 33.5 68t75.5 23t69 -32t27 -74q0 -155 -133 -199t-245 -44q-202 0 -294 73q-93 73 -93 162q0 50 27.5 82t69.5 32t75 -22t33 -68t-35 -128q66 -63 212 -63q145 0 213 63q-35 82 -35 127zM1574 0h-587v71q116 10 140 20q52 22 52 98v885l-686 -856v-23
q0 -66 52 -93t140 -31v-71h-587v71q114 9 138 20q52 22 52 98v1024q0 73 -60 101q-60 29 -130 34v71h587v-71q-152 -5 -170 -48.5t-18 -76.5v-863l686 855q0 71 -59 99t-137 34v71h587v-71q-150 -5 -168 -48.5t-18 -76.5v-1023q0 -71 52 -98t134 -31v-71z" />
    <glyph glyph-name="afii10028" unicode="&#x41a;" horiz-adv-x="1423" 
d="M1445 0h-391q-181 513 -272.5 583.5t-207.5 70.5h-73v-454q0 -73 58 -101q16 -7 59.5 -17t72.5 -11v-71h-589v71q110 10 135 20q51 23 51 98v1024q0 73 -60 102t-126 33v71h589v-71q-153 -5 -171.5 -48.5t-18.5 -76.5v-486h93q77 -1 129 53t78 118t55 150t59.5 157
t78.5 121q93 96 216 96q124 0 146.5 -52t22.5 -76q0 -76 -36.5 -96t-68.5 -20q-60 0 -92 34t-67 103q-67 -46 -118 -205t-93 -239q-42 -79 -111 -141v-14q111 -31 184.5 -99t112.5 -152t72.5 -154.5t59.5 -128.5q44 -96 115 -108q51 -8 108 -13v-71z" />
    <glyph glyph-name="afii10029" unicode="&#x41b;" horiz-adv-x="1549" 
d="M319 1419h1128v-71q-150 -5 -168 -48.5t-18 -76.5v-1023q0 -71 52 -98t134 -31v-71h-589v71q114 9 138 20q52 22 52 98v1146h-382q0 -667 -169 -1036q-73 -161 -162 -240t-177 -79t-134 43t-46 93t29.5 92t76.5 42t75 -15t46 -35t31.5 -41.5t22.5 -34.5q97 79 178 320
q106 311 106 657q0 96 -13.5 143.5t-49.5 64.5t-90 26.5t-71 12.5v71z" />
    <glyph glyph-name="afii10030" unicode="&#x41c;" horiz-adv-x="1899" 
d="M1806 0h-627v71q124 4 158 23q63 36 63 106v1032h-15l-484 -1209h-50l-461 1234h-13v-847q0 -224 63 -279q22 -21 91 -40t90 -20v-71h-573v71q126 11 166 44q40 32 53 90t13 194v726q0 169 -134 208q-45 13 -89 15v71h484l406 -1064l347 890q44 112 47 174h463v-71
q-156 -6 -181 -64q-12 -28 -12 -61v-1023q0 -70 58 -101q18 -11 64 -19t73 -9v-71z" />
    <glyph glyph-name="afii10031" unicode="&#x41d;" horiz-adv-x="1669" 
d="M1567 0h-589v71q114 9 138 20q52 22 52 98v505h-667v-494q0 -71 52 -98t134 -31v-71h-589v71q114 9 138 20q52 22 52 98v1024q0 73 -60 101q-60 29 -130 34v71h589v-71q-151 -5 -175 -64q-12 -28 -11 -61v-440h667v430q0 73 -60 101q-60 29 -130 34v71h589v-71
q-151 -5 -175 -64q-12 -28 -11 -61v-1023q0 -71 52 -98t134 -31v-71z" />
    <glyph glyph-name="afii10032" unicode="&#x41e;" horiz-adv-x="1524" 
d="M1095 245q107 174 107 469t-114 472q-114 178 -333 178q-218 0 -334 -202q-99 -174 -99 -460t111 -467q111 -180 329 -180q107 0 193 50t140 140zM1244 1251q200 -209 200 -544t-204 -541q-194 -200 -478 -200q-148 0 -274 56t-215 153q-89 99 -141 237t-52 304
q0 324 203 535q193 202 481 202q138 0 264 -53q125 -53 216 -149z" />
    <glyph glyph-name="afii10033" unicode="&#x41f;" horiz-adv-x="1655" 
d="M1553 0h-589v71q114 9 138 20q52 22 52 98v1140h-653v-1129q0 -71 52 -98t134 -31v-71h-589v71q114 9 138 20q52 22 52 98v1024q0 73 -60 101q-60 29 -130 34v71h1455v-71q-150 -5 -168 -48.5t-18 -76.5v-1023q0 -71 52 -98t134 -31v-71z" />
    <glyph glyph-name="afii10034" unicode="&#x420;" horiz-adv-x="1249" 
d="M936 1027q0 215 -152 284q-57 26 -142 26h-141v-627h102q197 0 277 117q56 79 56 200zM1184 1069q0 -219 -164 -338q-147 -108 -360 -108h-159v-430q0 -79 59 -102q44 -17 147 -20v-71h-609v71q108 9 136 21q54 24 54 101v1024q0 35 -10 63q-20 56 -187 68v71h648
q197 1 321 -95t124 -255z" />
    <glyph glyph-name="afii10035" unicode="&#x421;" horiz-adv-x="1315" 
d="M754 1450q190 0 352 -99l41 68h80l9 -506h-82q-68 315 -237 413q-66 38 -157 39q-90 0 -174 -43q-84 -44 -144 -126q-126 -174 -125 -465q0 -291 135 -471t345 -180q156 0 267 93q102 90 150 222l75 -36q-86 -211 -228 -301t-338 -91q-264 0 -455 200q-190 200 -190 531
q0 332 196 545q91 99 215 153t265 54z" />
    <glyph glyph-name="afii10036" unicode="&#x422;" horiz-adv-x="1267" 
d="M1251 1034h-69q-20 81 -68 153q-90 137 -151 145q-62 9 -165 9h-58v-1135q0 -76 63 -103q17 -7 75 -19t90 -13v-71h-670v71q132 9 165 23q64 26 64 103v1144h-58q-98 0 -148 -6q-49 -5 -85 -41t-82 -104t-69 -156h-70v385h1236v-385z" />
    <glyph glyph-name="afii10037" unicode="&#x423;" horiz-adv-x="1345" 
d="M1061 1267q0 64 -197 81v71h530v-71q-69 -3 -118 -31t-69.5 -57.5t-72.5 -133.5t-165 -359t-227 -487t-226 -266t-181 -34t-124 44t-55 98t30.5 91.5t86.5 37.5q73 0 110.5 -68t48.5 -85q75 21 125 81.5t98 145.5q-367 708 -424 810q-56 102 -100 153t-166 60v71h598v-71
q-175 -8 -175 -50q0 -19 30 -75t115.5 -223t236.5 -451q120 260 197 446q76 187 85 221.5t9 50.5z" />
    <glyph glyph-name="afii10038" unicode="&#x424;" horiz-adv-x="1570" 
d="M888 219v-45q0 -72 50 -92t154 -22v-70h-601v70q111 9 137 21q54 24 54 93v45q-274 0 -444 136q-171 136 -171 384q0 204 150 338t455 134h10v27q0 69 -58 94t-135 31v70h592v-70q-154 -5 -173.5 -43t-19.5 -72v-37h10q303 0 454 -134t151 -338q0 -126 -48.5 -225
t-130.5 -163q-168 -132 -436 -132zM1266 722q0 56 -17 136t-54 138q-86 137 -264 136h-42v-832q216 0 313 162q64 109 64 260zM681 300v832h-42q-175 0 -265 -138q-70 -111 -70 -279q0 -52 9 -114.5t57 -143.5q92 -157 311 -157z" />
    <glyph glyph-name="afii10039" unicode="&#x425;" horiz-adv-x="1455" 
d="M1045 1282q1 32 -37 47t-127 19v71h529v-71q-144 -6 -210 -80q-86 -98 -379 -498q81 -114 179 -259t178 -261t146 -157q31 -18 133 -22v-71h-664v71q183 4 183 57q0 35 -61 133q-145 232 -225 350q-88 -115 -200 -279t-112 -195t30 -47t135 -19v-71h-530v71q96 7 153 37
t124 122t167 224t177 239q-58 85 -148 215t-162 237q-72 106 -98 132q-24 26 -65 45t-134 26v71h657v-71q-58 -2 -120 -14t-63 -39q-1 -35 59 -129q140 -223 208 -320q277 375 277 436z" />
    <glyph glyph-name="afii10040" unicode="&#x426;" horiz-adv-x="1655" 
d="M1154 175v1038q0 75 -58 102q-58 28 -126 33v71h583v-71q-150 -5 -168 -48.5t-18 -76.5v-1041q0 -56 28 -77.5t90 -21.5h84v-417h-75q-47 184 -109.5 256t-106.5 78h-1180v71q114 9 138 20q52 22 52 98v1024q0 73 -60 101q-60 29 -130 34v71h583v-71q-62 -2 -127 -24
q-53 -19 -53 -101v-1027q0 -41 26 -76t95 -35l217 -3q57 0 110.5 1t111.5 2t75.5 22.5t17.5 67.5z" />
    <glyph glyph-name="afii10041" unicode="&#x427;" horiz-adv-x="1533" 
d="M1032 1213q0 73 -60 101q-60 29 -130 34v71h589v-71q-150 -5 -168 -48.5t-18 -76.5v-1023q0 -71 52 -98t134 -31v-71h-589v71q114 9 138 20q52 22 52 98v469q-93 -47 -192.5 -81t-219.5 -34q-235 0 -327 111q-72 84 -72 266v293q0 73 -60 101q-60 29 -130 34v71h589v-71
q-62 -2 -111 -19q-50 -17 -61.5 -45t-11.5 -61v-256q0 -50 4.5 -99.5t30.5 -94.5q59 -102 230 -102q73 0 166.5 19.5t164.5 52.5v470z" />
    <glyph glyph-name="afii10042" unicode="&#x428;" horiz-adv-x="2249" 
d="M1730 165v1048q0 75 -59 103t-123 32v71h579v-71q-150 -5 -168 -48.5t-18 -76.5v-1023q0 -70 58 -101q17 -9 62 -18t70 -10v-71h-2037v71q116 10 141 20q53 22 53 98v1024q0 73 -60 101q-60 29 -130 34v71h579v-71q-59 -2 -125 -24q-53 -19 -53 -101v-1037
q0 -101 121 -101l158 -3q189 0 210 18t21 65v1048q0 75 -59 103t-123 32v71h571v-71q-59 -2 -125 -24q-53 -19 -53 -101v-1037q0 -101 121 -101l147 -3q36 0 74 1t84 2t65 17t19 63z" />
    <glyph glyph-name="afii10043" unicode="&#x429;" horiz-adv-x="2249" 
d="M1730 165v1048q0 75 -59 103t-123 32v71h579v-71q-150 -5 -168 -48.5t-18 -76.5v-1041q0 -56 28 -77.5t90 -21.5h84v-417h-75q-47 184 -109.5 256t-106.5 78h-1758v71q116 10 141 20q53 22 53 98v1024q0 73 -60 101q-60 29 -130 34v71h579v-71q-59 -2 -125 -24
q-53 -19 -53 -101v-1037q0 -101 121 -101l158 -3q189 0 210 18t21 65v1048q0 75 -59 103t-123 32v71h571v-71q-59 -2 -125 -24q-53 -19 -53 -101v-1037q0 -101 121 -101l147 -3q36 0 74 1t84 2t65 17t19 63z" />
    <glyph glyph-name="afii10044" unicode="&#x42a;" horiz-adv-x="1561" 
d="M1337 730q166 -101 166 -311t-157 -321q-136 -98 -330 -98h-692v71q117 8 150 23q63 29 63 99v1147h-52q-117 0 -176 -7q-60 -7 -125 -92t-94 -182h-75v360h939v-71q-75 -3 -145 -26q-59 -21 -59 -103v-403q49 1 97.5 2t128.5 1t181.5 -20.5t179.5 -68.5zM921 732
q-87 0 -171 -4v-520q0 -66 39 -97.5t154 -31.5q152 0 232 91.5t80 245.5t-91.5 235t-242.5 81z" />
    <glyph glyph-name="afii10045" unicode="&#x42b;" horiz-adv-x="1982" 
d="M1481 1213q0 73 -60 101q-60 29 -130 34v71h589v-71q-150 -5 -168 -48.5t-18 -76.5v-1023q0 -71 52 -98t134 -31v-71h-589v71q114 9 138 20q52 22 52 98v1024zM1084 730q166 -101 166 -311t-148 -314q-148 -105 -335 -105h-672v71q101 8 134 23q59 26 59 99v1016
q0 75 -57 102q-61 32 -133 37v71h601v-71q-159 -6 -178.5 -51t-19.5 -78v-403l98 2t126 1t179 -20.5t180 -68.5zM672 732q-87 0 -171 -4v-520q0 -66 39 -97.5t171 -31.5t211.5 91.5t79.5 245.5t-91 235t-239 81z" />
    <glyph glyph-name="afii10046" unicode="&#x42c;" horiz-adv-x="1312" 
d="M1088 730q166 -101 166 -311t-157 -321q-136 -98 -330 -98h-672v71q101 8 134 23q59 26 59 99v1016q0 75 -57 102q-61 32 -133 37v71h601v-71q-159 -6 -178.5 -51t-19.5 -78v-403l98 2t129 1t181 -20.5t179 -68.5zM672 732q-87 0 -171 -4v-520q0 -66 39 -97.5t154 -31.5
q152 0 232 91.5t80 245.5t-91.5 235t-242.5 81z" />
    <glyph glyph-name="afii10047" unicode="&#x42d;" horiz-adv-x="1347" 
d="M168 430q116 0 116 -129q0 -59 -21 -151q114 -98 280 -98q104 0 197 48t156 134q137 189 143 510q-128 -92 -180.5 -109t-110.5 -17t-152 39t-148 39q-55 0 -85 -17t-64 -43l-43 54q62 62 139 104t147 42t163 -38t170 -38t163 64q-10 262 -124 401.5t-294 139.5
q-326 0 -420 -452h-82l7 506h79l39 -68q163 99 403 99q125 0 240.5 -47.5t201.5 -138.5q180 -191 180 -528t-196 -553t-497 -216q-267 0 -409 108q-120 90 -120 213q0 63 30.5 102.5t91.5 39.5z" />
    <glyph glyph-name="afii10048" unicode="&#x42e;" horiz-adv-x="2183" 
d="M1759 245q102 173 102 470t-109 473t-322 176t-326 -202q-94 -168 -94 -457q0 -290 106 -470t319 -180q109 0 191.5 51.5t132.5 138.5zM2103 710q0 -335 -194 -540q-194 -204 -475 -204q-282 0 -467 203t-190 523h-278v-492q0 -71 52 -98t134 -31v-71h-587v71
q114 9 138 20q52 22 52 98v1024q0 73 -60 101q-60 29 -130 34v71h587v-71q-150 -5 -168 -48.5t-18 -76.5v-442h280q23 300 209 486t449 186q140 0 261.5 -53.5t210.5 -149.5t141.5 -234t52.5 -306z" />
    <glyph glyph-name="afii10049" unicode="&#x42f;" horiz-adv-x="1427" 
d="M926 729v609h-172q-130 0 -206.5 -84t-76.5 -226t88 -220.5t233 -78.5h134zM229 1051q1 173 131 270q130 98 319 98h657v-71q-68 -2 -139 -26q-58 -20 -58 -103v-1026q0 -79 51 -99t146 -23v-71h-600v71q108 9 136 21q54 24 54 101v450h-94q-115 0 -177.5 -47.5
t-120.5 -175.5q-97 -217 -171 -420h-389v71q23 3 51.5 6t62.5 9t59.5 29t53.5 83t63 134t54 116q45 99 105.5 151t152.5 83v14q-347 73 -347 355z" />
    <glyph glyph-name="afii10065" unicode="&#x430;" horiz-adv-x="1032" 
d="M281 236q-1 -74 43 -112q44 -39 113 -39q123 0 214 116l6 345q-184 -54 -268 -109q-108 -74 -108 -201zM331 -25q-107 0 -179 68q-72 69 -72 179t64 182q44 52 116 80t210 74t185 72v99q1 121 -85 185q-36 28 -94 27q-56 1 -96 -15t-55 -33q-1 -20 9 -59t10 -73t-32 -63
t-84 -29q-52 -1 -76 35t-24 81q0 88 112 158q112 71 218 71t168 -12t113 -48q104 -76 104 -265l-6 -495q0 -70 55 -101q18 -11 114 -11v-64q-105 -38 -163 -38q-157 0 -184 143h-6q-65 -72 -139 -110t-183 -38z" />
    <glyph glyph-name="afii10066" unicode="&#x431;" horiz-adv-x="1107" 
d="M555 1008q235 0 358 -139t123 -367q0 -229 -134 -380q-134 -152 -348 -152t-339 149q-140 164 -140 456t76 527q45 141 143 228.5t241 95.5q71 4 150.5 8t122.5 8q94 8 163 95l57 -41q-88 -120 -134 -166t-67 -57t-79 -14q-57 -3 -118.5 -8t-118.5 -7q-107 -4 -177.5 -82
t-108.5 -199t-48 -232l8 -2q48 120 147.5 199.5t222.5 79.5zM280 503q0 -457 275 -457q135 0 205 133q69 133 69 324q0 294 -93.5 361.5t-173.5 67.5q-145 0 -222 -140q-60 -114 -60 -289z" />
    <glyph glyph-name="afii10067" unicode="&#x432;" horiz-adv-x="1061" 
d="M516 918q-17 0 -113 -4v-360h97q135 0 187 59q46 48 46 143q0 162 -217 162zM931 764q0 -99 -61.5 -156.5t-161.5 -78.5v-11q189 -26 233 -103t44 -145q0 -135 -115 -203q-115 -67 -275 -67h-521v66q23 2 47.5 4t47.5 10q50 16 50 88v640q0 89 -65.5 99.5t-86.5 12.5v66
l495 2q369 0 369 -224zM537 68q248 0 248 222q0 88 -65 139t-186 51l-131 -4v-326q0 -82 134 -82z" />
    <glyph glyph-name="afii10068" unicode="&#x433;" horiz-adv-x="901" 
d="M571 0h-497v66q23 2 47.5 4t47.5 10q50 16 50 88v640q0 90 -69 100t-89 12v66h822v-327h-62q-24 75 -57 129q-66 110 -119 117q-54 6 -134 6h-106v-733q0 -87 69.5 -98.5t96.5 -13.5v-66z" />
    <glyph glyph-name="afii10069" unicode="&#x434;" horiz-adv-x="1146" 
d="M657 81q82 0 82 63v760h-275q-6 -253 -69.5 -463.5t-168.5 -359.5h431zM358 774q0 89 -46 112t-140 34v66h898v-66q-52 -4 -85 -12q-60 -15 -60 -90v-639q0 -53 20.5 -75.5t86.5 -22.5h64v-370h-72q-21 101 -71 191t-108 102h-581q-54 -9 -109.5 -100t-75.5 -193h-72v370
h105q99 131 172.5 344t73.5 349z" />
    <glyph glyph-name="afii10070" unicode="&#x435;" horiz-adv-x="990" 
d="M727 608q0 331 -206 331q-105 1 -175 -87t-75 -244h456zM551 -26q-238 0 -359 149q-120 149 -120 366q0 216 123 371q123 154 329 154q205 0 303 -119q97 -119 97 -305v-66h-653q0 -310 179 -406q63 -34 151 -34q89 0 153 42t124 149l70 -43q-62 -118 -166 -188t-231 -70
z" />
    <glyph glyph-name="afii10072" unicode="&#x436;" horiz-adv-x="1612" 
d="M1597 0h-332q-101 332 -180.5 393t-168.5 61h-19v-278q0 -87 61.5 -97.5t87.5 -12.5v-66h-473v66q23 2 46.5 3t46.5 9q49 16 49 88v288h-19q-93 0 -146 -42t-95 -124t-62.5 -141t-47.5 -147h-330v66q62 7 93 14q32 6 52 23.5t35 49.5t33 72.5t48 101.5t80.5 108t140.5 66
v13q-83 52 -129 196q-16 50 -32.5 101.5t-36.5 68.5q-50 -60 -75.5 -81t-69.5 -21t-72.5 29.5t-28.5 76.5t34.5 80.5t102.5 33.5t106 -15t74 -55t52.5 -84t44.5 -133t60 -124q55 -58 129 -58h59v281q0 66 -55 90q-29 14 -94 20v66h473v-66q-66 -4 -91 -11q-51 -14 -51 -89
v-291h59q74 0 118 47t83 172q38 125 78 171t80.5 62.5t106.5 16.5t101.5 -34t35.5 -81t-29.5 -76t-73.5 -29t-70.5 23t-72.5 79q-22 -17 -38 -69.5t-32 -105.5q-41 -136 -128 -191v-13q149 -29 219 -168q33 -65 64 -135t62 -97.5t137 -34.5v-66z" />
    <glyph glyph-name="afii10073" unicode="&#x437;" horiz-adv-x="970" 
d="M158 50q-97 72 -97 175q1 103 101 103q52 0 80 -29t28 -68t-23 -124q59 -59 178 -59t188 62t69 161t-49.5 152.5t-174.5 53.5h-105v93h86q120 0 168 50.5t48 140.5t-46 133.5t-127 43.5q-190 0 -295 -289h-67l6 357h67l36 -55q137 63 263 63q210 0 302 -90
q63 -61 63 -143q0 -126 -88.5 -175t-163.5 -64v-13q111 -5 197 -63q85 -58 85 -189t-123.5 -217t-311.5 -86t-294 76z" />
    <glyph glyph-name="afii10074" unicode="&#x438;" horiz-adv-x="1254" 
d="M1184 0h-479v66q23 2 47.5 4t47.5 10q53 17 53 88v518l-454 -491v-17q0 -101 154 -112v-66h-479v66q23 2 47.5 4t47.5 10q50 16 50 88v640q0 89 -65.5 99.5t-86.5 12.5v66h479v-66q-52 -4 -85 -12q-60 -15 -60 -90v-510l454 492q0 74 -55 98q-36 16 -99 22v66h479v-66
q-52 -4 -85 -12q-60 -15 -60 -90v-640q0 -68 53 -90q37 -17 96 -22v-66z" />
    <glyph glyph-name="afii10075" unicode="&#x439;" horiz-adv-x="1254" 
d="M766 1410q0 46 32 68t70 22t67 -30t29 -70q0 -93 -84 -167t-252 -74q-169 0 -262 83q-71 65 -71 149q0 48 28.5 78.5t66.5 30.5t70.5 -22t32.5 -70t-31 -118q53 -65 166 -65q44 0 93 15.5t76 49.5q-31 74 -31 120zM1184 0h-479v66q23 2 47.5 4t47.5 10q53 17 53 88v518
l-454 -491v-17q0 -101 154 -112v-66h-479v66q23 2 47.5 4t47.5 10q50 16 50 88v640q0 89 -65.5 99.5t-86.5 12.5v66h479v-66q-52 -4 -85 -12q-60 -15 -60 -90v-510l454 492q0 74 -55 98q-36 16 -99 22v66h479v-66q-52 -4 -85 -12q-60 -15 -60 -90v-640q0 -68 53 -90
q37 -17 96 -22v-66z" />
    <glyph glyph-name="afii10076" unicode="&#x43a;" horiz-adv-x="1129" 
d="M1118 0h-339q-54 178 -103 274q-48 96 -104.5 138t-145.5 42h-23v-276q0 -100 152 -112v-66h-481v66q23 2 47.5 4t47.5 10q50 16 50 88v640q0 89 -65.5 99.5t-86.5 12.5v66h481v-66q-52 -4 -85 -12q-60 -15 -60 -90v-289h63q74 0 119 48t90 173q44 125 79 168
q65 80 157 80q91 0 127 -33t36 -79t-28.5 -77.5t-74.5 -31.5t-71.5 23t-70.5 77q-19 -17 -36.5 -71.5t-40.5 -115.5q-47 -124 -128 -176v-13q156 -31 226 -168q33 -65 79 -171q31 -71 100 -82q41 -9 89 -14v-66z" />
    <glyph glyph-name="afii10077" unicode="&#x43b;" horiz-adv-x="1190" 
d="M78 205q74 0 142 -91q63 58 124 252q60 194 60 408q0 89 -46 112t-140 34v66h898v-66q-52 -4 -85 -12q-60 -15 -60 -90v-640q0 -68 53 -90q37 -17 96 -22v-66h-482v66q23 2 47 4t47 10q53 17 53 88v736h-274q0 -456 -122 -707q-53 -109 -120 -163t-138 -54t-108 37.5
t-37 80.5t23.5 75t68.5 32z" />
    <glyph glyph-name="afii10078" unicode="&#x43c;" horiz-adv-x="1465" 
d="M1395 0h-483v66q23 2 47.5 4t48.5 10t39 31t15 57v714h-24l-334 -866h-62l-314 883h-22v-691q0 -97 56 -120q37 -17 96 -22v-66h-384v66q23 2 47.5 4t48.5 10q49 16 49 118v600q0 99 -65.5 109.5t-86.5 12.5v66h410l247 -706l218 585q33 95 35 121h414v-66
q-52 -4 -85 -12q-60 -15 -60 -90v-640q0 -68 53 -90q37 -17 96 -22v-66z" />
    <glyph glyph-name="afii10079" unicode="&#x43d;" horiz-adv-x="1247" 
d="M1177 0h-482v66q23 2 47.5 4t47.5 10q53 17 53 88v314h-439v-304q0 -100 152 -112v-66h-482v66q23 2 47.5 4t47.5 10q50 16 50 88v640q0 89 -65.5 99.5t-86.5 12.5v66h482v-66q-52 -4 -85 -12q-60 -15 -60 -90v-254h439v244q0 89 -65.5 99.5t-86.5 12.5v66h482v-66
q-52 -4 -85 -12q-60 -15 -60 -90v-640q0 -68 53 -90q37 -17 96 -22v-66z" />
    <glyph glyph-name="afii10080" unicode="&#x43e;" horiz-adv-x="1104" 
d="M826 501q0 295 -144 399q-52 38 -128 38q-146 0 -219 -142q-58 -111 -58 -290q1 -318 151 -424q52 -36 127 -36q125 0 198 121t73 334zM901 122q-132 -152 -343 -152t-350 143q-138 143 -138 375t134 379t348 147q212 0 346 -140t135 -369q0 -231 -132 -383z" />
    <glyph glyph-name="afii10081" unicode="&#x43f;" horiz-adv-x="1232" 
d="M1162 0h-482v66q23 2 47 4t47 10q53 17 53 88v736h-422v-726q0 -100 151 -112v-66h-482v66q23 2 47.5 4t47.5 10q50 16 50 88v640q0 89 -65.5 99.5t-86.5 12.5v66h1091v-66q-52 -4 -85 -12q-60 -15 -60 -90v-640q0 -68 53 -90q37 -17 96 -22v-66z" />
    <glyph glyph-name="afii10082" unicode="&#x440;" horiz-adv-x="1170" 
d="M601 902q-123 0 -216 -110v-583q20 -60 63 -95q43 -36 79 -52t90 -15q120 0 195 117q76 117 76 323q0 278 -155 379q-55 36 -132 36zM385 41v-296q0 -73 61 -96t138 -26v-67h-551v67q80 5 111 15q55 18 55 94v1049q0 65 -54 103q-33 22 -112 27v65l336 22l14 -12v-111
l8 -2q52 60 129 100t161 40q172 0 294 -146t122 -372q0 -227 -142 -378q-139 -143 -323 -143q-150 0 -239 67h-8z" />
    <glyph glyph-name="afii10083" unicode="&#x441;" horiz-adv-x="930" 
d="M278 525q0 -205 82 -323t217 -118q97 0 163 47t121 141l64 -42q-66 -118 -174 -187t-223 -69q-214 0 -335 142t-121 365t127 375q131 158 362 158q125 0 216 -70t91 -189q0 -51 -24 -89t-81 -38t-89 30t-33 71q0 41 12 89t14 69q-30 52 -132 52t-180 -104
q-77 -104 -77 -310z" />
    <glyph glyph-name="afii10084" unicode="&#x442;" horiz-adv-x="964" 
d="M942 670h-61q-41 127 -91.5 179.5t-94.5 57.5t-120 5v-734q0 -86 67 -98t94 -14v-66h-502v66q23 2 52.5 4t52.5 10q50 16 50 88v744q-103 -3 -132 -6q-49 -4 -99 -82q-50 -79 -75 -154h-61v316h920v-316z" />
    <glyph glyph-name="afii10085" unicode="&#x443;" horiz-adv-x="1008" 
d="M-3 -321q-1 49 27 81t64 31q78 0 133 -84q17 -26 27 -43q50 27 120 141t100 200q-159 398 -333 811q-19 46 -64 72t-90 32v66h450v-70q-30 0 -72 -12t-42 -27q1 -21 105 -271t147 -362q45 108 93 222t82 202t47 120q13 34 13 59t-46 47t-86 28v64h366v-62q-30 -4 -79 -34
t-73 -84q-120 -276 -212 -503t-148 -351q-105 -233 -201 -325q-78 -71 -158 -71q-81 0 -125 37t-45 86z" />
    <glyph glyph-name="afii10086" unicode="&#x444;" horiz-adv-x="1542" 
d="M279 490q0 -324 99.5 -375.5t169.5 -51.5t130 51v759q-63 51 -132 51q-267 0 -267 -434zM1263 498q0 426 -265 426q-67 0 -134 -51v-759q31 -24 58 -37.5t84 -13.5q189 0 223 164.5t34 270.5zM869 962q76 41 167 41q187 0 309 -136t122 -371q0 -236 -124 -374t-307 -138
q-85 0 -167 41h-5v-280q0 -73 61 -96t128 -26v-67h-551v67q92 6 122 15q54 17 54 94v293h-5q-167 -79 -331.5 -8.5t-215.5 212t-51 259.5q0 234 126 378q56 65 137.5 101t165.5 36t169 -41h5v293q0 67 -54 103q-33 22 -112 27v65l338 22l14 -12v-498h5z" />
    <glyph glyph-name="afii10087" unicode="&#x445;" horiz-adv-x="1034" 
d="M732 871q0 35 -100 51v64h364v-62q-128 -33 -193 -111q-33 -41 -79 -101t-127 -168q166 -233 263 -379q28 -43 64 -69t98 -30v-66h-452v66q44 5 76 10t32 26q0 28 -205 324q-71 -88 -133 -178q-62 -89 -70 -104t-7 -24q0 -46 114 -56v-64h-365v62q115 34 186 119
q30 40 86 110t144 190q-176 252 -224 322q-48 69 -82 93t-94 24v66h429v-66q-94 0 -94 -22q-1 -14 21 -46t68 -103t101 -150q166 227 172 245q7 17 7 27z" />
    <glyph glyph-name="afii10088" unicode="&#x446;" horiz-adv-x="1234" 
d="M827 156v652q0 66 -56 90q-36 17 -95 22v66h482v-66q-52 -4 -85 -12q-60 -15 -60 -90v-642q0 -53 20.5 -75.5t86.5 -22.5h64v-370h-72q-20 100 -70.5 190t-108.5 102h-859v66q23 2 47.5 4t47.5 10q50 16 50 88v640q0 89 -64 99.5t-85 12.5v66h482v-66q-51 -4 -84 -12
q-63 -16 -63 -90v-644q0 -54 25 -74.5t69 -21.5l133 -3q174 0 184.5 19.5t10.5 61.5z" />
    <glyph glyph-name="afii10089" unicode="&#x447;" horiz-adv-x="1172" 
d="M549 461q105 0 218 39v308q0 89 -65.5 99.5t-86.5 12.5v66h483v-66q-52 -4 -85 -12q-60 -15 -60 -90v-640q0 -68 53 -90q37 -17 96 -22v-66h-483v66q23 2 47.5 4t47.5 10q53 17 53 88v262q-81 -34 -143 -55.5t-149 -21.5q-157 0 -230.5 62t-73.5 197v196q0 89 -65.5 99.5
t-86.5 12.5v66h482v-66q-52 -4 -85 -12q-59 -15 -59 -90v-156q0 -107 43.5 -154t148.5 -47z" />
    <glyph glyph-name="afii10090" unicode="&#x448;" horiz-adv-x="1768" 
d="M1363 156v652q0 69 -48 90q-37 17 -93 22v66h472v-66q-52 -4 -85 -12q-60 -15 -60 -90v-640q0 -68 53 -90q38 -17 100 -22v-66h-1632v66q23 2 49.5 4t49.5 10q50 16 50 88v640q0 89 -64 99.5t-85 12.5v66h472v-66q-45 -3 -80 -12q-57 -14 -57 -90v-644q0 -54 25 -74.5
t69 -21.5l113 -3q30 0 55 0.5t65 2.5t49.5 19t9.5 59v652q0 69 -48 90q-37 17 -93 22v66h465v-66q-49 -3 -84 -12q-54 -13 -54 -90v-646q0 -54 25.5 -73.5t68.5 -20.5l115 -3q156 0 166.5 19.5t10.5 61.5z" />
    <glyph glyph-name="afii10091" unicode="&#x449;" horiz-adv-x="1770" 
d="M1363 156v652q0 69 -48 90q-37 17 -93 22v66h472v-66q-52 -4 -85 -12q-60 -15 -60 -90v-642q0 -53 20.5 -75.5t86.5 -22.5h64v-370h-72q-17 85 -67 182t-112 110h-1399v66q23 2 49.5 4t49.5 10q50 16 50 88v640q0 89 -64 99.5t-85 12.5v66h472v-66q-45 -3 -80 -12
q-57 -14 -57 -90v-644q0 -54 25 -74.5t69 -21.5l113 -3q30 0 55 0.5t65 2.5t49.5 19t9.5 59v652q0 69 -48 90q-37 17 -93 22v66h465v-66q-49 -3 -84 -12q-54 -13 -54 -90v-646q0 -54 25.5 -73.5t68.5 -20.5l115 -3q156 0 166.5 19.5t10.5 61.5z" />
    <glyph glyph-name="afii10092" unicode="&#x44a;" horiz-adv-x="1183" 
d="M1139 304q0 -148 -115 -226t-265 -78h-530v66q23 2 52.5 4t52.5 10q50 16 50 88v744q-93 -3 -130 -5q-57 -4 -117 -98q-36 -60 -64 -137h-61v314h717v-66q-81 -5 -109 -13q-52 -14 -52 -89v-235l151 4q297 0 358.5 -101.5t61.5 -181.5zM568 152q0 -42 30.5 -63t104.5 -21
q134 0 184 71t50 162t-61 150.5t-178 59.5l-130 -7v-352z" />
    <glyph glyph-name="afii10093" unicode="&#x44b;" horiz-adv-x="1552" 
d="M1482 0h-481v66q23 2 46.5 4t46.5 10q53 17 53 88v640q0 89 -65.5 99.5t-86.5 12.5v66h483v-66q-52 -4 -85 -12q-60 -15 -60 -90v-640q0 -68 53 -90q37 -17 96 -22v-66zM974 304q0 -148 -115 -226t-265 -78h-520v66q23 2 47.5 4t47.5 10q50 16 50 88v640q0 89 -65.5 99.5
t-86.5 12.5v66h497v-66q-81 -5 -109 -13q-52 -14 -52 -89v-235l151 4q297 0 358.5 -101.5t61.5 -181.5zM403 152q0 -42 30.5 -63t104.5 -21q134 0 184 71t50 162t-61 150.5t-178 59.5l-130 -7v-352z" />
    <glyph glyph-name="afii10094" unicode="&#x44c;" horiz-adv-x="1018" 
d="M974 304q0 -148 -115 -226t-265 -78h-520v66q23 2 47.5 4t47.5 10q50 16 50 88v640q0 89 -65.5 99.5t-86.5 12.5v66h497v-66q-81 -5 -109 -13q-52 -14 -52 -89v-235l151 4q297 0 358.5 -101.5t61.5 -181.5zM403 152q0 -42 30.5 -63t104.5 -21q134 0 184 71t50 162
t-61 150.5t-178 59.5l-130 -7v-352z" />
    <glyph glyph-name="afii10095" unicode="&#x44d;" horiz-adv-x="996" 
d="M473 938q-191 0 -288 -272h-67l6 347h68l31 -47q88 47 228 47t221.5 -38.5t137.5 -103.5q114 -133 114 -357t-134 -382t-366 -158q-173 0 -268 69t-95 173q0 45 23.5 74t75.5 29t81 -29t29 -64t-23 -120q6 -4 18 -13t54 -27t109 -18q138 0 219 120q80 120 80 306h-396v93
h398q-2 199 -74 285q-71 86 -182 86z" />
    <glyph glyph-name="afii10096" unicode="&#x44e;" horiz-adv-x="1617" 
d="M403 482v-304q0 -100 152 -112v-66h-481v66q23 2 47.5 4t47.5 10q50 16 50 88v640q0 89 -65.5 99.5t-86.5 12.5v66h481v-66q-52 -4 -85 -12q-60 -15 -60 -90v-254h212q19 200 142.5 325t329.5 125t333 -143q126 -143 126 -370t-129 -379t-335 -152q-207 0 -336 137
q-130 143 -134 375h-209zM1242.5 115.5q96.5 69.5 96.5 377.5q0 307 -93 376t-171 69q-143 0 -212 -142q-54 -108 -54 -290q0 -319 96.5 -389.5t168.5 -70.5t168.5 69.5z" />
    <glyph glyph-name="afii10097" unicode="&#x44f;" horiz-adv-x="1122" 
d="M157 730q0 118 106.5 187t269.5 69h515v-66q-52 -4 -85 -12q-60 -15 -60 -90v-640q0 -68 53 -90q37 -17 96 -22v-66h-483v66q23 2 47.5 4t47.5 10q53 17 53 88v277h-42q-93 0 -169.5 -52t-180.5 -393h-337v66q46 6 83 12q74 13 106 84q84 194 132 242.5t106 71.5v6
q-258 52 -258 248zM717 518v397h-112q-105 0 -174 -48.5t-69 -146.5t73 -150t208 -52h74z" />
    <glyph glyph-name="afii10071" unicode="&#x451;" horiz-adv-x="990" 
d="M727 608q0 331 -206 331q-105 1 -175 -87t-75 -244h456zM551 -26q-238 0 -359 149q-120 149 -120 366q0 216 123 371q123 154 329 154q205 0 303 -119q97 -119 97 -305v-66h-653q0 -310 179 -406q63 -34 151 -34q89 0 153 42t124 149l70 -43q-62 -118 -166 -188t-231 -70
zM432 1364q0 -51 -34 -87t-84 -36t-84 36t-34 87t34 87t84 36t84 -36t34 -87zM862 1364q0 -51 -34 -87t-84 -36t-84 36t-34 87t34 87t84 36t84 -36t34 -87z" />
    </font>
</defs>
</svg>
